{
.appVersion = "1349";
DisplayStrings = (
"/three.circled",
"/asciitilde.full",
"/equal.full",
"/minus.full",
"/multiply.full",
"/divide.full",
"",
"/plus.full",
"/plusminus.full",
"/hyphentwo",
"/quoteright",
"/quotesingle.half",
"--/hyphen.rotat",
"'",
"/period.half/comma.half/colon.half/semicolon.half/parenleft.half/parenright.half/hyphen.half",
"/period.half",
"/colon.half",
"/semicolon.half",
"/parenleft.half",
"/parenright.half",
"/hyphen.half",
"/quotedoubleprime.vert/quotedoubleprimeReversed.vert",
"§",
"&",
"£",
"¤",
"/mars",
"µ",
"/we-hira",
"/wi-hira",
"/comma-han.vert",
"/quotedoubleprime.vert",
"/quotedoubleprimeReversed.vert",
"/lowquotedoubleprime.full.vert",
"/quotedoubleprimeReversed",
"\"",
"/lowquotedoubleprime.vert",
"/lowquotedoubleprime",
"/uniE0DC",
"/uniE0E2",
"/exclam.full",
"/exclamationquestion",
"/exclamdouble",
"/exclamdouble.locl",
"/exclamationquestion.locl",
"/doublequestion",
"/questionexclamation",
"/questionexclamation.locl",
"/doublequestion.locl",
"/question.full",
"A/a-hira/comma-han .,/semicolon.full",
"/braceleft.full",
":",
"/a-hira/comma-han ;",
",",
".",
"/ellipsis",
"·",
"/colon.full",
"/twodotenleader",
"/comma.full",
"/comma.half",
"/colon.full.vert",
"/twodotenleader.vert",
"/ellipsis.full.vert",
"/quotesinglbase",
"/quotedblbase",
"/quotedblleft",
"/quotedblright",
"/quoteleft",
"/quotesinglbase '",
"/quotesinglbase \"",
"/period.full",
"/na-hira/n-hira/to-hira ,.",
"/bullet",
"(",
"/percent.full",
"/parenleft.full",
"/ellipsis.full",
"/ellipsis/twodotenleader",
"/twodotenleader/twodotenleader.vert",
"/ellipsis/twodotenleader/ellipsis.full",
"/ellipsis/twodotenleader/ellipsis.full/ellipsis.full.vert/twodotenleader.vert",
"·/periodcentered.rotat",
"/to-hira *",
"/a-hira/comma-han",
"/a-hira/period-han",
"/comma-han",
"/period-han.vert",
"/period-han",
"/uniE064",
"/uniE065",
"/heartBlackSuit",
"/heartWhiteSuit",
"Æ",
"ÃÆ",
"æ",
"/OE",
"/oe o",
"è",
"/oe",
"/voicedcomb-kana",
"/voicedcomb-kana.vert",
"/circumflexcomb",

glyphs = (
{
glyphname = .notdef;
lastChange = "2020-08-19 14:31:40 +0000";
layers = (
{
hints = (
{
horizontal = 1;
place = "{-120, 50}";
type = Stem;
},
{
horizontal = 1;
place = "{830, 50}";
type = Stem;
},
{
place = "{100, 50}";
type = Stem;
},
{
place = "{850, 50}";
type = Stem;
},
{
horizontal = 1;
place = "{789, 91}";
type = Stem;
}
);
layerId = "BE1754C0-A605-45AC-AA12-D3A1FC0C380B";
paths = (
{
closed = 1;
nodes = (
"875 -70 LINE",
"875 830 LINE",
"125 830 LINE",
"125 -70 LINE"
);
},
{
closed = 1;
nodes = (
"873 -33 LINE",
"161 822 LINE",
"126 793 LINE",
"838 -62 LINE"
);
},
{
closed = 1;
nodes = (
"873 793 LINE",
"838 822 LINE",
"126 -33 LINE",
"161 -62 LINE"
);
},
{
closed = 1;
nodes = (
"170 785 LINE",
"829 785 LINE",
"829 -25 LINE",
"170 -25 LINE"
);
}
);
vertWidth = 1000;
width = 1000;
},
{
associatedMasterId = "BE1754C0-A605-45AC-AA12-D3A1FC0C380B";
hints = (
{
horizontal = 1;
place = "{-24, 10}";
type = Stem;
},
{
horizontal = 1;
place = "{166, 10}";
type = Stem;
},
{
place = "{20, 10}";
type = Stem;
},
{
place = "{170, 10}";
type = Stem;
},
{
horizontal = 1;
place = "{157.8, 18.2}";
type = Stem;
}
);
layerId = "3FC96813-E7C5-45AC-9F0B-5DBEB42CEC4B";
name = E;
paths = (
{
closed = 1;
nodes = (
"875 -70 LINE",
"875 830 LINE",
"125 830 LINE",
"125 -70 LINE"
);
},
{
closed = 1;
nodes = (
"873 -33 LINE",
"161 822 LINE",
"126 793 LINE",
"838 -62 LINE"
);
},
{
closed = 1;
nodes = (
"873 793 LINE",
"838 822 LINE",
"126 -33 LINE",
"161 -62 LINE"
);
},
{
closed = 1;
nodes = (
"170 785 LINE",
"829 785 LINE",
"829 -25 LINE",
"170 -25 LINE"
);
}
);
vertWidth = 1000;
width = 1000;
},
{
associatedMasterId = "BE1754C0-A605-45AC-AA12-D3A1FC0C380B";
hints = (
{
horizontal = 1;
place = "{96, -40}";
type = Stem;
},
{
horizontal = 1;
place = "{-664, -40}";
type = Stem;
},
{
place = "{-80, -40}";
type = Stem;
},
{
place = "{-680, -40}";
type = Stem;
},
{
horizontal = 1;
place = "{-631.2, -72.8}";
type = Stem;
}
);
layerId = "56DC1C81-F651-46E9-87C8-388DC3C1949A";
name = "new Layer";
paths = (
{
closed = 1;
nodes = (
"875 -70 LINE",
"875 830 LINE",
"125 830 LINE",
"125 -70 LINE"
);
},
{
closed = 1;
nodes = (
"873 -33 LINE",
"161 822 LINE",
"126 793 LINE",
"838 -62 LINE"
);
},
{
closed = 1;
nodes = (
"873 793 LINE",
"838 822 LINE",
"126 -33 LINE",
"161 -62 LINE"
);
},
{
closed = 1;
nodes = (
"170 785 LINE",
"829 785 LINE",
"829 -25 LINE",
"170 -25 LINE"
);
}
);
vertWidth = 1000;
width = 1000;
},
{
associatedMasterId = "BE1754C0-A605-45AC-AA12-D3A1FC0C380B";
hints = (
{
horizontal = 1;
place = "{-96, 40}";
type = Stem;
},
{
horizontal = 1;
place = "{664, 40}";
type = Stem;
},
{
place = "{80, 40}";
type = Stem;
},
{
place = "{680, 40}";
type = Stem;
},
{
horizontal = 1;
place = "{631.2, 72.8}";
type = Stem;
}
);
layerId = "50639781-45F7-44BB-90CB-1A2425705211";
name = M;
paths = (
{
closed = 1;
nodes = (
"875 -70 LINE",
"875 830 LINE",
"125 830 LINE",
"125 -70 LINE"
);
},
{
closed = 1;
nodes = (
"873 -33 LINE",
"161 822 LINE",
"126 793 LINE",
"838 -62 LINE"
);
},
{
closed = 1;
nodes = (
"873 793 LINE",
"838 822 LINE",
"126 -33 LINE",
"161 -62 LINE"
);
},
{
closed = 1;
nodes = (
"170 785 LINE",
"829 785 LINE",
"829 -25 LINE",
"170 -25 LINE"
);
}
);
vertWidth = 1000;
width = 1000;
},
{
associatedMasterId = "BE1754C0-A605-45AC-AA12-D3A1FC0C380B";
hints = (
{
horizontal = 1;
place = "{-72, 30}";
type = Stem;
},
{
horizontal = 1;
place = "{498, 30}";
type = Stem;
},
{
place = "{60, 30}";
type = Stem;
},
{
place = "{510, 30}";
type = Stem;
},
{
horizontal = 1;
place = "{473.4, 54.6}";
type = Stem;
}
);
layerId = "8F95FC53-393D-46E7-B373-56CFCCC74A43";
name = D;
paths = (
{
closed = 1;
nodes = (
"875 -70 LINE",
"875 830 LINE",
"125 830 LINE",
"125 -70 LINE"
);
},
{
closed = 1;
nodes = (
"873 -33 LINE",
"161 822 LINE",
"126 793 LINE",
"838 -62 LINE"
);
},
{
closed = 1;
nodes = (
"873 793 LINE",
"838 822 LINE",
"126 -33 LINE",
"161 -62 LINE"
);
},
{
closed = 1;
nodes = (
"170 785 LINE",
"829 785 LINE",
"829 -25 LINE",
"170 -25 LINE"
);
}
);
vertWidth = 1000;
width = 1000;
},
{
associatedMasterId = "BE1754C0-A605-45AC-AA12-D3A1FC0C380B";
hints = (
{
horizontal = 1;
place = "{-48, 20}";
type = Stem;
},
{
horizontal = 1;
place = "{332, 20}";
type = Stem;
},
{
place = "{40, 20}";
type = Stem;
},
{
place = "{340, 20}";
type = Stem;
},
{
horizontal = 1;
place = "{315.6, 36.4}";
type = Stem;
}
);
layerId = "479F3D7D-B043-41C8-943F-3141743CF422";
name = B;
paths = (
{
closed = 1;
nodes = (
"875 -70 LINE",
"875 830 LINE",
"125 830 LINE",
"125 -70 LINE"
);
},
{
closed = 1;
nodes = (
"873 -33 LINE",
"161 822 LINE",
"126 793 LINE",
"838 -62 LINE"
);
},
{
closed = 1;
nodes = (
"873 793 LINE",
"838 822 LINE",
"126 -33 LINE",
"161 -62 LINE"
);
},
{
closed = 1;
nodes = (
"170 785 LINE",
"829 785 LINE",
"829 -25 LINE",
"170 -25 LINE"
);
}
);
vertWidth = 1000;
width = 1000;
}
);
note = .notdef;
},
{
glyphname = A;
lastChange = "2020-11-09 07:19:07 +0000";
layers = (
{
layerId = "BE1754C0-A605-45AC-AA12-D3A1FC0C380B";
paths = (
{
closed = 1;
nodes = (
"228 151 OFFCURVE",
"325 435 OFFCURVE",
"366 520 CURVE SMOOTH",
"405 601 OFFCURVE",
"427 635 OFFCURVE",
"457 635 CURVE SMOOTH",
"486 635 OFFCURVE",
"508 601 OFFCURVE",
"537 530 CURVE SMOOTH",
"574 440 OFFCURVE",
"643 166 OFFCURVE",
"684 -70 CURVE",
"849 -47 LINE",
"825 102 OFFCURVE",
"700 815 OFFCURVE",
"462 815 CURVE SMOOTH",
"234 815 OFFCURVE",
"56 102 OFFCURVE",
"21 -41 CURVE",
"180 -70 LINE"
);
},
{
closed = 1;
nodes = (
"241 194 OFFCURVE",
"430 208 OFFCURVE",
"569 208 CURVE SMOOTH",
"632 208 OFFCURVE",
"684 205 OFFCURVE",
"711 199 CURVE",
"685 351 LINE",
"645 358 OFFCURVE",
"577 363 OFFCURVE",
"502 363 CURVE SMOOTH",
"395 363 OFFCURVE",
"275 354 OFFCURVE",
"209 331 CURVE",
"166 173 LINE"
);
}
);
width = 868;
}
);
unicode = 0041;
},
{
glyphname = AE;
lastChange = "2020-08-19 14:06:58 +0000";
layers = (
{
layerId = "BE1754C0-A605-45AC-AA12-D3A1FC0C380B";
paths = (
{
closed = 1;
nodes = (
"259 215 OFFCURVE",
"309 341 OFFCURVE",
"404 511 CURVE",
"442 579 OFFCURVE",
"497 641 OFFCURVE",
"523 641 CURVE",
"540 641 OFFCURVE",
"546 614 OFFCURVE",
"546 588 CURVE",
"615 732 LINE",
"590 788 OFFCURVE",
"558 813 OFFCURVE",
"509 813 CURVE SMOOTH",
"297 813 OFFCURVE",
"45 95 OFFCURVE",
"1 -37 CURVE",
"154 -82 LINE"
);
},
{
closed = 1;
nodes = (
"266 196 OFFCURVE",
"328 206 OFFCURVE",
"397 206 CURVE SMOOTH",
"434 206 OFFCURVE",
"472 203 OFFCURVE",
"517 197 CURVE",
"540 353 LINE",
"502 359 OFFCURVE",
"461 361 OFFCURVE",
"420 361 CURVE SMOOTH",
"351 361 OFFCURVE",
"283 354 OFFCURVE",
"234 345 CURVE",
"186 182 LINE"
);
},
{
closed = 1;
nodes = (
"756 -78 OFFCURVE",
"875 -59 OFFCURVE",
"993 -16 CURVE",
"990 153 LINE",
"863 100 OFFCURVE",
"754 80 OFFCURVE",
"678 80 CURVE SMOOTH",
"631 80 OFFCURVE",
"618 101 OFFCURVE",
"620 203 CURVE",
"621 293 OFFCURVE",
"636 560 OFFCURVE",
"669 733 CURVE",
"515 713 LINE",
"502 629 OFFCURVE",
"466 398 OFFCURVE",
"466 213 CURVE",
"466 -32 OFFCURVE",
"534 -78 OFFCURVE",
"688 -78 CURVE"
);
},
{
closed = 1;
nodes = (
"584 311 OFFCURVE",
"789 323 OFFCURVE",
"903 323 CURVE SMOOTH",
"929 323 OFFCURVE",
"950 322 OFFCURVE",
"964 321 CURVE",
"967 473 LINE",
"950 475 OFFCURVE",
"927 475 OFFCURVE",
"899 475 CURVE SMOOTH",
"786 475 OFFCURVE",
"602 462 OFFCURVE",
"528 435 CURVE",
"525 287 LINE"
);
},
{
closed = 1;
nodes = (
"609 646 OFFCURVE",
"738 656 OFFCURVE",
"840 656 CURVE SMOOTH",
"894 656 OFFCURVE",
"940 653 OFFCURVE",
"968 647 CURVE",
"974 800 LINE",
"947 804 OFFCURVE",
"906 806 OFFCURVE",
"859 806 CURVE SMOOTH",
"765 806 OFFCURVE",
"644 798 OFFCURVE",
"547 785 CURVE",
"541 741 OFFCURVE",
"533 687 OFFCURVE",
"527 634 CURVE"
);
}
);
width = 1000;
},
{
associatedMasterId = "BE1754C0-A605-45AC-AA12-D3A1FC0C380B";
layerId = "3FC96813-E7C5-45AC-9F0B-5DBEB42CEC4B";
name = E;
paths = (
{
closed = 1;
nodes = (
"1099 0 LINE",
"1119 58 OFFCURVE",
"1150 141 OFFCURVE",
"1171 194 CURVE SMOOTH",
"1173 199 OFFCURVE",
"1170 204 OFFCURVE",
"1164 207 CURVE SMOOTH",
"1158 210 OFFCURVE",
"1154 209 OFFCURVE",
"1149 205 CURVE SMOOTH",
"1107 147 OFFCURVE",
"1024 36 OFFCURVE",
"888 30 CURVE SMOOTH",
"862 29 OFFCURVE",
"848 28 OFFCURVE",
"827 30 CURVE SMOOTH",
"772 34 OFFCURVE",
"738 42 OFFCURVE",
"738 92 CURVE SMOOTH",
"738 648 LINE SMOOTH",
"738 708 OFFCURVE",
"782 711 OFFCURVE",
"849 711 CURVE SMOOTH",
"866 711 LINE SMOOTH",
"972 711 OFFCURVE",
"1081 642 OFFCURVE",
"1128 594 CURVE SMOOTH",
"1132 591 OFFCURVE",
"1137 591 OFFCURVE",
"1143 593 CURVE SMOOTH",
"1149 595 OFFCURVE",
"1152 599 OFFCURVE",
"1149 605 CURVE SMOOTH",
"1146 614 OFFCURVE",
"1076 740 OFFCURVE",
"1076 740 CURVE",
"594 740 LINE",
"594 96 LINE SMOOTH",
"594 26 OFFCURVE",
"524 22 OFFCURVE",
"488 22 CURVE SMOOTH",
"476 22 LINE SMOOTH",
"471 22 OFFCURVE",
"469 18 OFFCURVE",
"469 12 CURVE SMOOTH",
"469 4 OFFCURVE",
"470 0 OFFCURVE",
"476 0 CURVE SMOOTH"
);
},
{
closed = 1;
nodes = (
"295 0 LINE SMOOTH",
"300 0 OFFCURVE",
"301 6 OFFCURVE",
"301 12 CURVE SMOOTH",
"301 17 OFFCURVE",
"301 22 OFFCURVE",
"295 22 CURVE SMOOTH",
"234 22 OFFCURVE",
"186 46 OFFCURVE",
"225 105 CURVE SMOOTH",
"266 167 OFFCURVE",
"662 740 OFFCURVE",
"662 740 CURVE",
"505 740 LINE SMOOTH",
"499 740 OFFCURVE",
"497 736 OFFCURVE",
"497 729 CURVE SMOOTH",
"497 722 OFFCURVE",
"499 718 OFFCURVE",
"505 718 CURVE SMOOTH",
"516 718 LINE SMOOTH",
"549 718 OFFCURVE",
"595 714 OFFCURVE",
"562 663 CURVE SMOOTH",
"528 612 OFFCURVE",
"210 151 OFFCURVE",
"176 103 CURVE SMOOTH",
"134 44 OFFCURVE",
"79 22 OFFCURVE",
"38 22 CURVE SMOOTH",
"33 22 OFFCURVE",
"31 18 OFFCURVE",
"31 12 CURVE SMOOTH",
"31 4 OFFCURVE",
"32 0 OFFCURVE",
"38 0 CURVE SMOOTH"
);
},
{
closed = 1;
nodes = (
"664 250 LINE",
"664 285 LINE",
"324 285 LINE",
"302 250 LINE"
);
},
{
closed = 1;
nodes = (
"1000 258 OFFCURVE",
"1004 260 OFFCURVE",
"1004 266 CURVE SMOOTH",
"1004 500 LINE SMOOTH",
"1004 505 OFFCURVE",
"1000 506 OFFCURVE",
"992 506 CURVE SMOOTH",
"985 506 OFFCURVE",
"981 505 OFFCURVE",
"981 500 CURVE SMOOTH",
"981 455 OFFCURVE",
"948 402 OFFCURVE",
"888 401 CURVE SMOOTH",
"831 400 OFFCURVE",
"703 401 OFFCURVE",
"703 401 CURVE",
"703 365 LINE",
"703 365 OFFCURVE",
"831 366 OFFCURVE",
"888 365 CURVE SMOOTH",
"948 364 OFFCURVE",
"981 311 OFFCURVE",
"981 266 CURVE SMOOTH",
"981 260 OFFCURVE",
"985 258 OFFCURVE",
"992 258 CURVE SMOOTH"
);
}
);
width = 1226;
},
{
associatedMasterId = "BE1754C0-A605-45AC-AA12-D3A1FC0C380B";
layerId = "56DC1C81-F651-46E9-87C8-388DC3C1949A";
name = "new Layer";
paths = (
{
closed = 1;
nodes = (
"1116 1 LINE",
"1137 61 OFFCURVE",
"1183 195 OFFCURVE",
"1203 236 CURVE SMOOTH",
"1205 240 OFFCURVE",
"1202 243 OFFCURVE",
"1198 246 CURVE SMOOTH",
"1193 249 OFFCURVE",
"1191 247 OFFCURVE",
"1185 244 CURVE SMOOTH",
"1157 196 OFFCURVE",
"1041 31 OFFCURVE",
"900 31 CURVE SMOOTH",
"873 31 OFFCURVE",
"883 28 OFFCURVE",
"863 31 CURVE SMOOTH",
"806 38 OFFCURVE",
"770 43 OFFCURVE",
"770 95 CURVE SMOOTH",
"770 666 LINE SMOOTH",
"770 726 OFFCURVE",
"814 731 OFFCURVE",
"882 731 CURVE SMOOTH",
"889 731 LINE SMOOTH",
"1000 731 OFFCURVE",
"1139 626 OFFCURVE",
"1174 588 CURVE SMOOTH",
"1178 586 OFFCURVE",
"1182 588 OFFCURVE",
"1186 588 CURVE SMOOTH",
"1191 589 OFFCURVE",
"1193 593 OFFCURVE",
"1190 596 CURVE SMOOTH",
"1188 603 OFFCURVE",
"1104 759 OFFCURVE",
"1104 759 CURVE",
"547 759 LINE",
"547 103 LINE SMOOTH",
"547 4 OFFCURVE",
"423 15 OFFCURVE",
"415 15 CURVE SMOOTH",
"409 15 LINE SMOOTH",
"403 15 OFFCURVE",
"401 12 OFFCURVE",
"401 9 CURVE SMOOTH",
"401 3 OFFCURVE",
"403 1 OFFCURVE",
"409 1 CURVE SMOOTH"
);
},
{
closed = 1;
nodes = (
"207 0 LINE SMOOTH",
"212 0 OFFCURVE",
"214 4 OFFCURVE",
"214 8 CURVE SMOOTH",
"214 12 OFFCURVE",
"213 15 OFFCURVE",
"207 15 CURVE SMOOTH",
"147 15 OFFCURVE",
"116 34 OFFCURVE",
"144 70 CURVE SMOOTH",
"180 119 OFFCURVE",
"639 759 OFFCURVE",
"639 759 CURVE",
"471 759 LINE SMOOTH",
"465 759 OFFCURVE",
"463 756 OFFCURVE",
"463 752 CURVE SMOOTH",
"463 748 OFFCURVE",
"466 745 OFFCURVE",
"471 745 CURVE SMOOTH",
"477 745 LINE SMOOTH",
"497 745 OFFCURVE",
"583 766 OFFCURVE",
"539 699 CURVE SMOOTH",
"493 631 OFFCURVE",
"170 168 OFFCURVE",
"111 84 CURVE SMOOTH",
"86 47 OFFCURVE",
"-12 15 OFFCURVE",
"-64 15 CURVE SMOOTH",
"-68 15 OFFCURVE",
"-70 12 OFFCURVE",
"-70 8 CURVE SMOOTH",
"-70 3 OFFCURVE",
"-70 0 OFFCURVE",
"-64 0 CURVE SMOOTH"
);
},
{
closed = 1;
nodes = (
"647 236 LINE",
"647 268 LINE",
"272 268 LINE",
"247 236 LINE"
);
},
{
closed = 1;
nodes = (
"1009 266 OFFCURVE",
"1012 267 OFFCURVE",
"1012 273 CURVE SMOOTH",
"1012 514 LINE SMOOTH",
"1012 518 OFFCURVE",
"1009 519 OFFCURVE",
"1002 519 CURVE SMOOTH",
"996 519 OFFCURVE",
"993 518 OFFCURVE",
"993 514 CURVE SMOOTH",
"993 479 OFFCURVE",
"958 413 OFFCURVE",
"895 412 CURVE SMOOTH",
"837 411 OFFCURVE",
"746 412 OFFCURVE",
"746 412 CURVE",
"746 375 LINE",
"746 375 OFFCURVE",
"837 376 OFFCURVE",
"895 375 CURVE SMOOTH",
"958 374 OFFCURVE",
"993 308 OFFCURVE",
"993 273 CURVE SMOOTH",
"993 267 OFFCURVE",
"996 266 OFFCURVE",
"1002 266 CURVE SMOOTH"
);
}
);
width = 1179;
},
{
associatedMasterId = "BE1754C0-A605-45AC-AA12-D3A1FC0C380B";
layerId = "B1A4DE2A-A433-45B8-A685-0F6164F66E71";
name = M;
paths = (
{
closed = 1;
nodes = (
"1089 -1 LINE",
"1109 57 OFFCURVE",
"1131 109 OFFCURVE",
"1152 169 CURVE SMOOTH",
"1154 174 OFFCURVE",
"1151 181 OFFCURVE",
"1144 184 CURVE SMOOTH",
"1137 187 OFFCURVE",
"1132 187 OFFCURVE",
"1127 182 CURVE SMOOTH",
"1077 118 OFFCURVE",
"1014 39 OFFCURVE",
"881 29 CURVE SMOOTH",
"855 28 OFFCURVE",
"827 28 OFFCURVE",
"805 29 CURVE SMOOTH",
"752 32 OFFCURVE",
"719 41 OFFCURVE",
"719 91 CURVE SMOOTH",
"719 638 LINE SMOOTH",
"719 698 OFFCURVE",
"763 699 OFFCURVE",
"830 699 CURVE SMOOTH",
"853 699 LINE SMOOTH",
"956 699 OFFCURVE",
"1047 652 OFFCURVE",
"1100 598 CURVE SMOOTH",
"1104 594 OFFCURVE",
"1110 593 OFFCURVE",
"1118 596 CURVE SMOOTH",
"1124 599 OFFCURVE",
"1127 603 OFFCURVE",
"1124 610 CURVE SMOOTH",
"1121 621 OFFCURVE",
"1060 729 OFFCURVE",
"1060 729 CURVE",
"623 729 LINE",
"623 92 LINE SMOOTH",
"623 40 OFFCURVE",
"585 27 OFFCURVE",
"532 27 CURVE SMOOTH",
"517 27 LINE SMOOTH",
"512 27 OFFCURVE",
"510 22 OFFCURVE",
"510 14 CURVE SMOOTH",
"510 5 OFFCURVE",
"511 -1 OFFCURVE",
"517 -1 CURVE SMOOTH"
);
},
{
closed = 1;
nodes = (
"348 0 LINE SMOOTH",
"353 0 OFFCURVE",
"354 8 OFFCURVE",
"354 14 CURVE SMOOTH",
"354 20 OFFCURVE",
"354 27 OFFCURVE",
"348 27 CURVE SMOOTH",
"287 27 OFFCURVE",
"228 54 OFFCURVE",
"274 126 CURVE SMOOTH",
"318 196 OFFCURVE",
"676 729 OFFCURVE",
"676 729 CURVE",
"525 729 LINE SMOOTH",
"519 729 OFFCURVE",
"517 724 OFFCURVE",
"517 716 CURVE SMOOTH",
"517 706 OFFCURVE",
"519 702 OFFCURVE",
"525 702 CURVE SMOOTH",
"539 702 LINE SMOOTH",
"581 702 OFFCURVE",
"603 683 OFFCURVE",
"576 641 CURVE SMOOTH",
"549 601 OFFCURVE",
"234 141 OFFCURVE",
"215 114 CURVE SMOOTH",
"163 43 OFFCURVE",
"134 27 OFFCURVE",
"100 27 CURVE SMOOTH",
"94 27 OFFCURVE",
"92 22 OFFCURVE",
"92 14 CURVE SMOOTH",
"92 5 OFFCURVE",
"94 0 OFFCURVE",
"100 0 CURVE SMOOTH"
);
},
{
closed = 1;
nodes = (
"675 258 LINE",
"675 296 LINE",
"356 296 LINE",
"335 258 LINE"
);
},
{
closed = 1;
nodes = (
"995 254 OFFCURVE",
"1000 256 OFFCURVE",
"1000 262 CURVE SMOOTH",
"1000 492 LINE SMOOTH",
"1000 498 OFFCURVE",
"995 499 OFFCURVE",
"986 499 CURVE SMOOTH",
"978 499 OFFCURVE",
"974 498 OFFCURVE",
"974 492 CURVE SMOOTH",
"974 441 OFFCURVE",
"942 395 OFFCURVE",
"884 394 CURVE SMOOTH",
"827 393 OFFCURVE",
"678 394 OFFCURVE",
"678 394 CURVE",
"678 359 LINE",
"678 359 OFFCURVE",
"827 360 OFFCURVE",
"884 359 CURVE SMOOTH",
"942 358 OFFCURVE",
"974 313 OFFCURVE",
"974 262 CURVE SMOOTH",
"974 256 OFFCURVE",
"978 254 OFFCURVE",
"986 254 CURVE SMOOTH"
);
}
);
width = 1255;
},
{
associatedMasterId = "BE1754C0-A605-45AC-AA12-D3A1FC0C380B";
layerId = "D4F92898-FE9E-4031-93CC-4B24C74A170D";
name = D;
paths = (
{
closed = 1;
nodes = (
"1092 -1 LINE",
"1112 57 OFFCURVE",
"1137 120 OFFCURVE",
"1158 177 CURVE SMOOTH",
"1160 182 OFFCURVE",
"1157 189 OFFCURVE",
"1151 192 CURVE SMOOTH",
"1144 195 OFFCURVE",
"1139 194 OFFCURVE",
"1134 190 CURVE SMOOTH",
"1087 128 OFFCURVE",
"1017 38 OFFCURVE",
"883 29 CURVE SMOOTH",
"857 28 OFFCURVE",
"834 28 OFFCURVE",
"812 29 CURVE SMOOTH",
"759 33 OFFCURVE",
"725 41 OFFCURVE",
"725 91 CURVE SMOOTH",
"725 641 LINE SMOOTH",
"725 701 OFFCURVE",
"769 703 OFFCURVE",
"836 703 CURVE SMOOTH",
"857 703 LINE SMOOTH",
"961 703 OFFCURVE",
"1058 649 OFFCURVE",
"1109 597 CURVE SMOOTH",
"1113 593 OFFCURVE",
"1119 592 OFFCURVE",
"1126 595 CURVE SMOOTH",
"1132 598 OFFCURVE",
"1135 602 OFFCURVE",
"1132 608 CURVE SMOOTH",
"1129 619 OFFCURVE",
"1065 733 OFFCURVE",
"1065 733 CURVE",
"613 733 LINE",
"613 93 LINE SMOOTH",
"613 35 OFFCURVE",
"565 25 OFFCURVE",
"517 25 CURVE SMOOTH",
"503 25 LINE SMOOTH",
"498 25 OFFCURVE",
"496 21 OFFCURVE",
"496 13 CURVE SMOOTH",
"496 5 OFFCURVE",
"497 -1 OFFCURVE",
"503 -1 CURVE SMOOTH"
);
},
{
closed = 1;
nodes = (
"330 0 LINE SMOOTH",
"335 0 OFFCURVE",
"336 7 OFFCURVE",
"336 13 CURVE SMOOTH",
"336 19 OFFCURVE",
"336 25 OFFCURVE",
"330 25 CURVE SMOOTH",
"269 25 OFFCURVE",
"214 51 OFFCURVE",
"258 119 CURVE SMOOTH",
"301 186 OFFCURVE",
"671 733 OFFCURVE",
"671 733 CURVE",
"518 733 LINE SMOOTH",
"512 733 OFFCURVE",
"510 728 OFFCURVE",
"510 720 CURVE SMOOTH",
"510 711 OFFCURVE",
"512 707 OFFCURVE",
"518 707 CURVE SMOOTH",
"531 707 LINE SMOOTH",
"570 707 OFFCURVE",
"600 693 OFFCURVE",
"571 648 CURVE SMOOTH",
"542 605 OFFCURVE",
"226 144 OFFCURVE",
"202 110 CURVE SMOOTH",
"153 43 OFFCURVE",
"116 25 OFFCURVE",
"79 25 CURVE SMOOTH",
"74 25 OFFCURVE",
"72 21 OFFCURVE",
"72 13 CURVE SMOOTH",
"72 5 OFFCURVE",
"73 0 OFFCURVE",
"79 0 CURVE SMOOTH"
);
},
{
closed = 1;
nodes = (
"671 255 LINE",
"671 292 LINE",
"345 292 LINE",
"324 255 LINE"
);
},
{
closed = 1;
nodes = (
"997 255 OFFCURVE",
"1001 257 OFFCURVE",
"1001 263 CURVE SMOOTH",
"1001 495 LINE SMOOTH",
"1001 500 OFFCURVE",
"997 501 OFFCURVE",
"988 501 CURVE SMOOTH",
"980 501 OFFCURVE",
"976 500 OFFCURVE",
"976 495 CURVE SMOOTH",
"976 446 OFFCURVE",
"944 397 OFFCURVE",
"885 396 CURVE SMOOTH",
"828 395 OFFCURVE",
"686 396 OFFCURVE",
"686 396 CURVE",
"686 361 LINE",
"686 361 OFFCURVE",
"828 362 OFFCURVE",
"885 361 CURVE SMOOTH",
"944 360 OFFCURVE",
"976 312 OFFCURVE",
"976 263 CURVE SMOOTH",
"976 257 OFFCURVE",
"980 255 OFFCURVE",
"988 255 CURVE SMOOTH"
);
}
);
width = 1245;
},
{
associatedMasterId = "BE1754C0-A605-45AC-AA12-D3A1FC0C380B";
layerId = "674859A0-EBFE-4816-8CD7-51AEBE2383D6";
name = B;
paths = (
{
closed = 1;
nodes = (
"1096 0 LINE",
"1116 58 OFFCURVE",
"1144 130 OFFCURVE",
"1165 186 CURVE SMOOTH",
"1167 191 OFFCURVE",
"1164 196 OFFCURVE",
"1157 199 CURVE SMOOTH",
"1151 202 OFFCURVE",
"1147 202 OFFCURVE",
"1142 197 CURVE SMOOTH",
"1097 137 OFFCURVE",
"1021 37 OFFCURVE",
"886 30 CURVE SMOOTH",
"860 29 OFFCURVE",
"841 28 OFFCURVE",
"820 30 CURVE SMOOTH",
"765 33 OFFCURVE",
"732 42 OFFCURVE",
"732 92 CURVE SMOOTH",
"732 645 LINE SMOOTH",
"732 705 OFFCURVE",
"776 707 OFFCURVE",
"843 707 CURVE SMOOTH",
"862 707 LINE SMOOTH",
"967 707 OFFCURVE",
"1070 645 OFFCURVE",
"1119 595 CURVE SMOOTH",
"1123 592 OFFCURVE",
"1128 592 OFFCURVE",
"1135 594 CURVE SMOOTH",
"1141 596 OFFCURVE",
"1144 600 OFFCURVE",
"1141 607 CURVE SMOOTH",
"1138 616 OFFCURVE",
"1071 736 OFFCURVE",
"1071 736 CURVE",
"604 736 LINE",
"604 95 LINE SMOOTH",
"604 31 OFFCURVE",
"544 24 OFFCURVE",
"503 24 CURVE SMOOTH",
"490 24 LINE SMOOTH",
"485 24 OFFCURVE",
"483 19 OFFCURVE",
"483 13 CURVE SMOOTH",
"483 4 OFFCURVE",
"484 0 OFFCURVE",
"490 0 CURVE SMOOTH"
);
},
{
closed = 1;
nodes = (
"313 0 LINE SMOOTH",
"318 0 OFFCURVE",
"319 7 OFFCURVE",
"319 13 CURVE SMOOTH",
"319 18 OFFCURVE",
"319 24 OFFCURVE",
"313 24 CURVE SMOOTH",
"252 24 OFFCURVE",
"200 49 OFFCURVE",
"241 112 CURVE SMOOTH",
"283 177 OFFCURVE",
"667 736 OFFCURVE",
"667 736 CURVE",
"512 736 LINE SMOOTH",
"506 736 OFFCURVE",
"504 732 OFFCURVE",
"504 725 CURVE SMOOTH",
"504 717 OFFCURVE",
"506 713 OFFCURVE",
"512 713 CURVE SMOOTH",
"524 713 LINE SMOOTH",
"560 713 OFFCURVE",
"598 704 OFFCURVE",
"567 656 CURVE SMOOTH",
"535 608 OFFCURVE",
"218 148 OFFCURVE",
"189 107 CURVE SMOOTH",
"144 44 OFFCURVE",
"97 24 OFFCURVE",
"59 24 CURVE SMOOTH",
"53 24 OFFCURVE",
"51 19 OFFCURVE",
"51 13 CURVE SMOOTH",
"51 4 OFFCURVE",
"53 0 OFFCURVE",
"59 0 CURVE SMOOTH"
);
},
{
closed = 1;
nodes = (
"668 253 LINE",
"668 289 LINE",
"335 289 LINE",
"313 253 LINE"
);
},
{
closed = 1;
nodes = (
"998 257 OFFCURVE",
"1003 259 OFFCURVE",
"1003 265 CURVE SMOOTH",
"1003 497 LINE SMOOTH",
"1003 503 OFFCURVE",
"998 504 OFFCURVE",
"990 504 CURVE SMOOTH",
"983 504 OFFCURVE",
"979 503 OFFCURVE",
"979 497 CURVE SMOOTH",
"979 450 OFFCURVE",
"946 400 OFFCURVE",
"887 399 CURVE SMOOTH",
"830 398 OFFCURVE",
"695 399 OFFCURVE",
"695 399 CURVE",
"695 363 LINE",
"695 363 OFFCURVE",
"830 364 OFFCURVE",
"887 363 CURVE SMOOTH",
"946 362 OFFCURVE",
"979 312 OFFCURVE",
"979 265 CURVE SMOOTH",
"979 259 OFFCURVE",
"983 257 OFFCURVE",
"990 257 CURVE SMOOTH"
);
}
);
width = 1236;
}
);
unicode = 00C6;
},
{
glyphname = B;
lastChange = "2020-08-16 10:04:43 +0000";
layers = (
{
layerId = "BE1754C0-A605-45AC-AA12-D3A1FC0C380B";
paths = (
{
closed = 1;
nodes = (
"548 337 OFFCURVE",
"770 375 OFFCURVE",
"770 580 CURVE SMOOTH",
"770 736 OFFCURVE",
"648 815 OFFCURVE",
"440 815 CURVE SMOOTH",
"333 815 OFFCURVE",
"202 793 OFFCURVE",
"54 752 CURVE",
"78 597 LINE",
"161 626 OFFCURVE",
"321 661 OFFCURVE",
"444 661 CURVE SMOOTH",
"537 661 OFFCURVE",
"608 633 OFFCURVE",
"608 574 CURVE SMOOTH",
"608 476 OFFCURVE",
"463 456 OFFCURVE",
"330 456 CURVE SMOOTH",
"288 456 OFFCURVE",
"247 458 OFFCURVE",
"212 460 CURVE",
"214 317 LINE"
);
},
{
closed = 1;
nodes = (
"247 -67 LINE",
"248 184 OFFCURVE",
"273 620 OFFCURVE",
"289 740 CURVE",
"128 704 LINE",
"121 622 OFFCURVE",
"86 167 OFFCURVE",
"86 -23 CURVE SMOOTH",
"86 -42 OFFCURVE",
"86 -57 OFFCURVE",
"87 -70 CURVE"
);
},
{
closed = 1;
nodes = (
"558 -69 OFFCURVE",
"790 -45 OFFCURVE",
"790 173 CURVE SMOOTH",
"790 350 OFFCURVE",
"646 436 OFFCURVE",
"391 436 CURVE SMOOTH",
"340 436 OFFCURVE",
"285 433 OFFCURVE",
"226 429 CURVE",
"213 308 LINE",
"259 311 OFFCURVE",
"307 311 OFFCURVE",
"354 311 CURVE SMOOTH",
"499 311 OFFCURVE",
"632 278 OFFCURVE",
"632 180 CURVE SMOOTH",
"632 113 OFFCURVE",
"586 82 OFFCURVE",
"466 82 CURVE SMOOTH",
"397 82 OFFCURVE",
"284 98 OFFCURVE",
"190 141 CURVE",
"175 9 LINE",
"266 -44 OFFCURVE",
"388 -69 OFFCURVE",
"485 -69 CURVE SMOOTH"
);
}
);
width = 833;
}
);
unicode = 0042;
},
{
glyphname = C;
lastChange = "2020-11-09 07:16:45 +0000";
layers = (
{
layerId = "BE1754C0-A605-45AC-AA12-D3A1FC0C380B";
paths = (
{
closed = 1;
nodes = (
"642 -81 OFFCURVE",
"753 29 OFFCURVE",
"843 210 CURVE",
"690 279 LINE",
"636 156 OFFCURVE",
"580 75 OFFCURVE",
"436 75 CURVE SMOOTH",
"259 75 OFFCURVE",
"208 219 OFFCURVE",
"208 349 CURVE SMOOTH",
"208 467 OFFCURVE",
"257 662 OFFCURVE",
"447 662 CURVE SMOOTH",
"580 662 OFFCURVE",
"644 572 OFFCURVE",
"689 490 CURVE",
"824 593 LINE",
"791 644 OFFCURVE",
"697 815 OFFCURVE",
"445 815 CURVE SMOOTH",
"137 815 OFFCURVE",
"42 522 OFFCURVE",
"42 353 CURVE SMOOTH",
"42 86 OFFCURVE",
"198 -81 OFFCURVE",
"442 -81 CURVE SMOOTH"
);
}
);
width = 892;
}
);
unicode = 0043;
},
{
glyphname = D;
lastChange = "2020-08-15 18:40:11 +0000";
layers = (
{
layerId = "BE1754C0-A605-45AC-AA12-D3A1FC0C380B";
paths = (
{
closed = 1;
nodes = (
"634 -76 OFFCURVE",
"759 109 OFFCURVE",
"759 375 CURVE SMOOTH",
"759 713 OFFCURVE",
"506 814 OFFCURVE",
"290 814 CURVE SMOOTH",
"181 814 OFFCURVE",
"74 795 OFFCURVE",
"2 781 CURVE",
"29 624 LINE",
"100 647 OFFCURVE",
"198 659 OFFCURVE",
"283 659 CURVE SMOOTH",
"332 659 OFFCURVE",
"603 647 OFFCURVE",
"603 383 CURVE SMOOTH",
"603 219 OFFCURVE",
"538 73 OFFCURVE",
"367 73 CURVE SMOOTH",
"276 73 OFFCURVE",
"192 105 OFFCURVE",
"152 127 CURVE",
"141 -11 LINE",
"209 -53 OFFCURVE",
"295 -76 OFFCURVE",
"373 -76 CURVE SMOOTH"
);
},
{
closed = 1;
nodes = (
"195 -23 OFFCURVE",
"229 719 OFFCURVE",
"232 741 CURVE",
"78 726 LINE",
"75 627 OFFCURVE",
"45 -25 OFFCURVE",
"41 -66 CURVE",
"198 -80 LINE"
);
}
);
width = 797;
}
);
unicode = 0044;
},
{
glyphname = Eth;
lastChange = "2020-08-16 10:04:41 +0000";
layers = (
{
layerId = "BE1754C0-A605-45AC-AA12-D3A1FC0C380B";
paths = (
{
closed = 1;
nodes = (
"725 -76 OFFCURVE",
"850 109 OFFCURVE",
"850 375 CURVE SMOOTH",
"850 713 OFFCURVE",
"597 814 OFFCURVE",
"381 814 CURVE SMOOTH",
"272 814 OFFCURVE",
"165 795 OFFCURVE",
"93 781 CURVE",
"120 624 LINE",
"191 647 OFFCURVE",
"289 659 OFFCURVE",
"374 659 CURVE SMOOTH",
"423 659 OFFCURVE",
"694 647 OFFCURVE",
"694 383 CURVE SMOOTH",
"694 219 OFFCURVE",
"629 73 OFFCURVE",
"458 73 CURVE SMOOTH",
"367 73 OFFCURVE",
"283 105 OFFCURVE",
"243 127 CURVE",
"232 -11 LINE",
"300 -53 OFFCURVE",
"386 -76 OFFCURVE",
"464 -76 CURVE SMOOTH"
);
},
{
closed = 1;
nodes = (
"286 -23 OFFCURVE",
"320 719 OFFCURVE",
"323 741 CURVE",
"169 726 LINE",
"166 627 OFFCURVE",
"136 -25 OFFCURVE",
"132 -66 CURVE",
"289 -80 LINE"
);
},
{
closed = 1;
nodes = (
"176 304 OFFCURVE",
"373 303 OFFCURVE",
"498 302 CURVE",
"500 442 LINE",
"391 448 OFFCURVE",
"154 447 OFFCURVE",
"40 438 CURVE",
"44 296 LINE"
);
}
);
width = 890;
},
{
associatedMasterId = "BE1754C0-A605-45AC-AA12-D3A1FC0C380B";
layerId = "3FC96813-E7C5-45AC-9F0B-5DBEB42CEC4B";
name = E;
paths = (
{
closed = 1;
nodes = (
"447 364 LINE",
"447 400 LINE",
"50 400 LINE",
"50 364 LINE"
);
},
{
closed = 1;
nodes = (
"51 0 OFFCURVE",
"321 -5 OFFCURVE",
"412 0 CURVE SMOOTH",
"553 8 OFFCURVE",
"765 104 OFFCURVE",
"765 370 CURVE SMOOTH",
"765 636 OFFCURVE",
"553 732 OFFCURVE",
"412 740 CURVE SMOOTH",
"321 745 OFFCURVE",
"51 740 OFFCURVE",
"51 740 CURVE",
"46 740 OFFCURVE",
"44 736 OFFCURVE",
"44 730 CURVE SMOOTH",
"44 722 OFFCURVE",
"45 718 OFFCURVE",
"51 718 CURVE SMOOTH",
"62 718 LINE SMOOTH",
"99 718 OFFCURVE",
"146 708 OFFCURVE",
"146 632 CURVE SMOOTH",
"146 108 LINE SMOOTH",
"146 32 OFFCURVE",
"99 22 OFFCURVE",
"62 22 CURVE SMOOTH",
"51 22 LINE SMOOTH",
"46 22 OFFCURVE",
"44 18 OFFCURVE",
"44 12 CURVE SMOOTH",
"44 4 OFFCURVE",
"45 0 OFFCURVE",
"51 0 CURVE"
);
},
{
closed = 1;
nodes = (
"314 30 OFFCURVE",
"287 44 OFFCURVE",
"287 93 CURVE SMOOTH",
"287 647 LINE SMOOTH",
"287 694 OFFCURVE",
"312 710 OFFCURVE",
"374 710 CURVE SMOOTH",
"383 710 LINE SMOOTH",
"474 710 OFFCURVE",
"610 656 OFFCURVE",
"610 370 CURVE SMOOTH",
"610 84 OFFCURVE",
"474 30 OFFCURVE",
"383 30 CURVE SMOOTH",
"374 30 LINE SMOOTH"
);
}
);
width = 812;
},
{
associatedMasterId = "BE1754C0-A605-45AC-AA12-D3A1FC0C380B";
components = (
{
alignment = -1;
name = strokeshortcomb;
},
{
alignment = -1;
name = D;
}
);
layerId = "56DC1C81-F651-46E9-87C8-388DC3C1949A";
name = "new Layer";
paths = (
{
closed = 1;
nodes = (
"456 373 LINE",
"456 406 LINE",
"65 406 LINE",
"65 373 LINE"
);
}
);
width = 833;
},
{
associatedMasterId = "BE1754C0-A605-45AC-AA12-D3A1FC0C380B";
layerId = "B1A4DE2A-A433-45B8-A685-0F6164F66E71";
name = M;
paths = (
{
closed = 1;
nodes = (
"442 359 LINE",
"442 396 LINE",
"41 396 LINE",
"41 359 LINE"
);
},
{
closed = 1;
nodes = (
"61 0 OFFCURVE",
"275 -4 OFFCURVE",
"381 2 CURVE SMOOTH",
"547 10 OFFCURVE",
"740 103 OFFCURVE",
"740 365 CURVE SMOOTH",
"740 628 OFFCURVE",
"547 722 OFFCURVE",
"381 728 CURVE SMOOTH",
"275 732 OFFCURVE",
"61 730 OFFCURVE",
"61 730 CURVE",
"55 730 OFFCURVE",
"53 725 OFFCURVE",
"53 717 CURVE SMOOTH",
"53 707 OFFCURVE",
"55 702 OFFCURVE",
"61 702 CURVE SMOOTH",
"76 702 LINE SMOOTH",
"128 702 OFFCURVE",
"160 690 OFFCURVE",
"160 634 CURVE SMOOTH",
"160 95 LINE SMOOTH",
"160 40 OFFCURVE",
"128 27 OFFCURVE",
"76 27 CURVE SMOOTH",
"61 27 LINE SMOOTH",
"55 27 OFFCURVE",
"53 22 OFFCURVE",
"53 14 CURVE SMOOTH",
"53 5 OFFCURVE",
"55 0 OFFCURVE",
"61 0 CURVE"
);
},
{
closed = 1;
nodes = (
"282 30 OFFCURVE",
"256 46 OFFCURVE",
"256 92 CURVE SMOOTH",
"256 637 LINE SMOOTH",
"256 684 OFFCURVE",
"281 699 OFFCURVE",
"342 699 CURVE SMOOTH",
"359 699 LINE SMOOTH",
"449 699 OFFCURVE",
"632 648 OFFCURVE",
"632 365 CURVE SMOOTH",
"632 83 OFFCURVE",
"449 30 OFFCURVE",
"359 30 CURVE SMOOTH",
"342 30 LINE SMOOTH"
);
}
);
width = 799;
},
{
associatedMasterId = "BE1754C0-A605-45AC-AA12-D3A1FC0C380B";
layerId = "D4F92898-FE9E-4031-93CC-4B24C74A170D";
name = D;
paths = (
{
closed = 1;
nodes = (
"444 361 LINE",
"444 397 LINE",
"44 397 LINE",
"44 361 LINE"
);
},
{
closed = 1;
nodes = (
"58 0 OFFCURVE",
"290 -4 OFFCURVE",
"391 1 CURVE SMOOTH",
"549 9 OFFCURVE",
"748 103 OFFCURVE",
"748 367 CURVE SMOOTH",
"748 631 OFFCURVE",
"549 725 OFFCURVE",
"391 732 CURVE SMOOTH",
"290 736 OFFCURVE",
"58 733 OFFCURVE",
"58 733 CURVE",
"52 733 OFFCURVE",
"50 729 OFFCURVE",
"50 721 CURVE SMOOTH",
"50 712 OFFCURVE",
"52 707 OFFCURVE",
"58 707 CURVE SMOOTH",
"71 707 LINE SMOOTH",
"118 707 OFFCURVE",
"155 696 OFFCURVE",
"155 633 CURVE SMOOTH",
"155 99 LINE SMOOTH",
"155 37 OFFCURVE",
"118 25 OFFCURVE",
"71 25 CURVE SMOOTH",
"58 25 LINE SMOOTH",
"52 25 OFFCURVE",
"50 21 OFFCURVE",
"50 13 CURVE SMOOTH",
"50 5 OFFCURVE",
"52 0 OFFCURVE",
"58 0 CURVE"
);
},
{
closed = 1;
nodes = (
"293 30 OFFCURVE",
"266 45 OFFCURVE",
"266 92 CURVE SMOOTH",
"266 640 LINE SMOOTH",
"266 687 OFFCURVE",
"291 703 OFFCURVE",
"353 703 CURVE SMOOTH",
"367 703 LINE SMOOTH",
"457 703 OFFCURVE",
"625 651 OFFCURVE",
"625 367 CURVE SMOOTH",
"625 83 OFFCURVE",
"457 30 OFFCURVE",
"367 30 CURVE SMOOTH",
"353 30 LINE SMOOTH"
);
}
);
width = 803;
},
{
associatedMasterId = "BE1754C0-A605-45AC-AA12-D3A1FC0C380B";
layerId = "674859A0-EBFE-4816-8CD7-51AEBE2383D6";
name = B;
paths = (
{
closed = 1;
nodes = (
"445 362 LINE",
"445 399 LINE",
"47 399 LINE",
"47 362 LINE"
);
},
{
closed = 1;
nodes = (
"54 0 OFFCURVE",
"306 -5 OFFCURVE",
"402 1 CURVE SMOOTH",
"551 9 OFFCURVE",
"757 104 OFFCURVE",
"757 368 CURVE SMOOTH",
"757 633 OFFCURVE",
"551 729 OFFCURVE",
"402 736 CURVE SMOOTH",
"306 741 OFFCURVE",
"54 737 OFFCURVE",
"54 737 CURVE",
"49 737 OFFCURVE",
"47 732 OFFCURVE",
"47 726 CURVE SMOOTH",
"47 717 OFFCURVE",
"48 713 OFFCURVE",
"54 713 CURVE SMOOTH",
"67 713 LINE SMOOTH",
"109 713 OFFCURVE",
"151 702 OFFCURVE",
"151 633 CURVE SMOOTH",
"151 104 LINE SMOOTH",
"151 35 OFFCURVE",
"109 24 OFFCURVE",
"67 24 CURVE SMOOTH",
"54 24 LINE SMOOTH",
"49 24 OFFCURVE",
"47 19 OFFCURVE",
"47 13 CURVE SMOOTH",
"47 4 OFFCURVE",
"48 0 OFFCURVE",
"54 0 CURVE"
);
},
{
closed = 1;
nodes = (
"303 30 OFFCURVE",
"277 45 OFFCURVE",
"277 93 CURVE SMOOTH",
"277 644 LINE SMOOTH",
"277 691 OFFCURVE",
"302 706 OFFCURVE",
"363 706 CURVE SMOOTH",
"375 706 LINE SMOOTH",
"466 706 OFFCURVE",
"617 653 OFFCURVE",
"617 368 CURVE SMOOTH",
"617 84 OFFCURVE",
"466 30 OFFCURVE",
"375 30 CURVE SMOOTH",
"363 30 LINE SMOOTH"
);
}
);
width = 808;
}
);
unicode = 00D0;
},
{
glyphname = E;
lastChange = "2020-06-25 14:33:34 +0000";
layers = (
{
layerId = "BE1754C0-A605-45AC-AA12-D3A1FC0C380B";
paths = (
{
closed = 1;
nodes = (
"487 -75 OFFCURVE",
"619 -63 OFFCURVE",
"778 -20 CURVE",
"767 141 LINE",
"633 99 OFFCURVE",
"491 80 OFFCURVE",
"373 80 CURVE SMOOTH",
"268 80 OFFCURVE",
"225 93 OFFCURVE",
"225 199 CURVE SMOOTH",
"225 289 OFFCURVE",
"247 556 OFFCURVE",
"291 729 CURVE",
"137 709 LINE",
"120 625 OFFCURVE",
"72 394 OFFCURVE",
"72 209 CURVE SMOOTH",
"72 -36 OFFCURVE",
"190 -75 OFFCURVE",
"396 -75 CURVE SMOOTH"
);
},
{
closed = 1;
nodes = (
"248 312 OFFCURVE",
"640 324 OFFCURVE",
"739 317 CURVE",
"743 469 LINE",
"630 477 OFFCURVE",
"278 465 OFFCURVE",
"155 431 CURVE",
"150 283 LINE"
);
},
{
closed = 1;
nodes = (
"208 644 OFFCURVE",
"617 664 OFFCURVE",
"744 643 CURVE",
"752 796 LINE",
"618 812 OFFCURVE",
"249 797 OFFCURVE",
"64 766 CURVE",
"82 620 LINE"
);
}
);
width = 839;
}
);
unicode = 0045;
},
{
glyphname = F;
lastChange = "2020-05-29 06:35:07 +0000";
layers = (
{
layerId = "BE1754C0-A605-45AC-AA12-D3A1FC0C380B";
paths = (
{
closed = 1;
nodes = (
"218 -66 LINE",
"224 126 OFFCURVE",
"240 532 OFFCURVE",
"268 736 CURVE",
"118 721 LINE",
"101 599 OFFCURVE",
"60 42 OFFCURVE",
"69 -70 CURVE"
);
},
{
closed = 1;
nodes = (
"360 324 OFFCURVE",
"515 324 OFFCURVE",
"716 302 CURVE",
"728 452 LINE",
"616 477 OFFCURVE",
"284 473 OFFCURVE",
"168 439 CURVE",
"165 289 LINE"
);
},
{
closed = 1;
nodes = (
"277 653 OFFCURVE",
"615 675 OFFCURVE",
"790 644 CURVE",
"804 796 LINE",
"605 816 OFFCURVE",
"296 813 OFFCURVE",
"54 784 CURVE",
"74 626 LINE"
);
}
);
width = 841;
}
);
unicode = 0046;
},
{
glyphname = G;
lastChange = "2020-08-16 10:04:41 +0000";
layers = (
{
layerId = "BE1754C0-A605-45AC-AA12-D3A1FC0C380B";
paths = (
{
closed = 1;
nodes = (
"714 -48 OFFCURVE",
"713 204 OFFCURVE",
"719 338 CURVE",
"637 334 LINE",
"629 212 OFFCURVE",
"566 108 OFFCURVE",
"408 108 CURVE SMOOTH",
"270 108 OFFCURVE",
"201 226 OFFCURVE",
"201 359 CURVE SMOOTH",
"201 507 OFFCURVE",
"281 660 OFFCURVE",
"471 660 CURVE SMOOTH",
"597 660 OFFCURVE",
"661 598 OFFCURVE",
"716 534 CURVE",
"833 660 LINE",
"770 727 OFFCURVE",
"656 816 OFFCURVE",
"477 816 CURVE SMOOTH",
"186 816 OFFCURVE",
"42 580 OFFCURVE",
"42 358 CURVE SMOOTH",
"42 170 OFFCURVE",
"132 -48 OFFCURVE",
"410 -48 CURVE SMOOTH"
);
},
{
closed = 1;
nodes = (
"804 38 OFFCURVE",
"808 293 OFFCURVE",
"795 376 CURVE",
"663 374 LINE",
"678 311 OFFCURVE",
"648 13 OFFCURVE",
"640 -67 CURVE",
"798 -71 LINE"
);
},
{
closed = 1;
nodes = (
"583 272 OFFCURVE",
"795 283 OFFCURVE",
"872 267 CURVE",
"875 418 LINE",
"781 436 OFFCURVE",
"579 428 OFFCURVE",
"451 404 CURVE",
"468 254 LINE"
);
}
);
width = 919;
}
);
unicode = 0047;
},
{
glyphname = H;
lastChange = "2020-05-29 06:37:34 +0000";
layers = (
{
layerId = "BE1754C0-A605-45AC-AA12-D3A1FC0C380B";
paths = (
{
closed = 1;
nodes = (
"233 -67 LINE",
"220 192 OFFCURVE",
"223 566 OFFCURVE",
"257 801 CURVE",
"97 804 LINE",
"74 560 OFFCURVE",
"59 123 OFFCURVE",
"87 -73 CURVE"
);
},
{
closed = 1;
nodes = (
"309 324 OFFCURVE",
"547 344 OFFCURVE",
"725 322 CURVE",
"727 472 LINE",
"585 491 OFFCURVE",
"295 478 OFFCURVE",
"145 444 CURVE",
"143 296 LINE"
);
},
{
closed = 1;
nodes = (
"785 -68 LINE",
"813 233 OFFCURVE",
"805 601 OFFCURVE",
"783 809 CURVE",
"625 798 LINE",
"642 688 OFFCURVE",
"648 98 OFFCURVE",
"631 -68 CURVE"
);
}
);
width = 875;
}
);
unicode = 0048;
},
{
glyphname = I;
lastChange = "2020-05-29 07:20:31 +0000";
layers = (
{
layerId = "BE1754C0-A605-45AC-AA12-D3A1FC0C380B";
paths = (
{
closed = 1;
nodes = (
"233 -64 LINE",
"219 195 OFFCURVE",
"206 566 OFFCURVE",
"238 801 CURVE",
"68 804 LINE",
"44 560 OFFCURVE",
"47 126 OFFCURVE",
"75 -70 CURVE"
);
}
);
width = 290;
}
);
unicode = 0049;
},
{
glyphname = J;
lastChange = "2020-05-29 06:39:09 +0000";
layers = (
{
layerId = "BE1754C0-A605-45AC-AA12-D3A1FC0C380B";
paths = (
{
closed = 1;
nodes = (
"655 -78 OFFCURVE",
"664 201 OFFCURVE",
"664 348 CURVE SMOOTH",
"664 513 OFFCURVE",
"644 703 OFFCURVE",
"630 813 CURVE",
"456 785 LINE",
"483 634 OFFCURVE",
"502 487 OFFCURVE",
"502 355 CURVE SMOOTH",
"502 259 OFFCURVE",
"511 80 OFFCURVE",
"367 80 CURVE SMOOTH",
"305 80 OFFCURVE",
"231 113 OFFCURVE",
"207 289 CURVE",
"47 241 LINE",
"92 41 OFFCURVE",
"189 -78 OFFCURVE",
"376 -78 CURVE SMOOTH"
);
}
);
width = 729;
}
);
unicode = 004A;
},
{
glyphname = K;
lastChange = "2020-05-29 06:39:23 +0000";
layers = (
{
layerId = "BE1754C0-A605-45AC-AA12-D3A1FC0C380B";
paths = (
{
closed = 1;
nodes = (
"823 75 LINE",
"617 173 OFFCURVE",
"465 267 OFFCURVE",
"392 323 CURVE SMOOTH",
"359 348 OFFCURVE",
"342 364 OFFCURVE",
"342 379 CURVE SMOOTH",
"342 391 OFFCURVE",
"354 404 OFFCURVE",
"378 421 CURVE SMOOTH",
"453 472 OFFCURVE",
"607 562 OFFCURVE",
"780 634 CURVE",
"734 792 LINE",
"547 712 OFFCURVE",
"282 539 OFFCURVE",
"196 476 CURVE SMOOTH",
"159 448 OFFCURVE",
"141 411 OFFCURVE",
"141 376 CURVE SMOOTH",
"141 350 OFFCURVE",
"151 326 OFFCURVE",
"169 309 CURVE SMOOTH",
"235 250 OFFCURVE",
"446 84 OFFCURVE",
"737 -69 CURVE"
);
},
{
closed = 1;
nodes = (
"224 -69 LINE",
"215 165 OFFCURVE",
"217 506 OFFCURVE",
"253 801 CURVE",
"92 804 LINE",
"64 499 OFFCURVE",
"57 153 OFFCURVE",
"65 -72 CURVE"
);
}
);
width = 847;
}
);
unicode = 004B;
},
{
glyphname = L;
lastChange = "2020-08-16 10:04:41 +0000";
layers = (
{
layerId = "BE1754C0-A605-45AC-AA12-D3A1FC0C380B";
paths = (
{
closed = 1;
nodes = (
"494 -74 OFFCURVE",
"670 -49 OFFCURVE",
"808 -14 CURVE",
"772 146 LINE",
"645 103 OFFCURVE",
"469 80 OFFCURVE",
"353 80 CURVE SMOOTH",
"238 80 OFFCURVE",
"230 104 OFFCURVE",
"233 197 CURVE SMOOTH",
"239 392 OFFCURVE",
"253 598 OFFCURVE",
"277 786 CURVE",
"108 804 LINE",
"88 539 OFFCURVE",
"73 294 OFFCURVE",
"74 133 CURVE SMOOTH",
"77 -69 OFFCURVE",
"220 -74 OFFCURVE",
"360 -74 CURVE SMOOTH"
);
}
);
width = 830;
}
);
unicode = 004C;
},
{
glyphname = M;
lastChange = "2020-07-01 23:09:57 +0000";
layers = (
{
layerId = "BE1754C0-A605-45AC-AA12-D3A1FC0C380B";
paths = (
{
closed = 1;
nodes = (
"209 -73 LINE",
"206 54 OFFCURVE",
"206 413 OFFCURVE",
"228 579 CURVE SMOOTH",
"231 600 OFFCURVE",
"236 611 OFFCURVE",
"242 611 CURVE SMOOTH",
"247 611 OFFCURVE",
"253 602 OFFCURVE",
"259 585 CURVE SMOOTH",
"271 546 OFFCURVE",
"397 52 OFFCURVE",
"415 -30 CURVE",
"562 -26 LINE",
"593 146 OFFCURVE",
"690 559 OFFCURVE",
"698 592 CURVE SMOOTH",
"702 608 OFFCURVE",
"707 620 OFFCURVE",
"712 620 CURVE SMOOTH",
"717 620 OFFCURVE",
"721 611 OFFCURVE",
"725 593 CURVE SMOOTH",
"755 459 OFFCURVE",
"772 -8 OFFCURVE",
"772 -67 CURVE",
"935 -71 LINE",
"925 272 OFFCURVE",
"895 555 OFFCURVE",
"872 653 CURVE SMOOTH",
"850 752 OFFCURVE",
"796 815 OFFCURVE",
"717 815 CURVE SMOOTH",
"640 815 OFFCURVE",
"593 755 OFFCURVE",
"564 661 CURVE SMOOTH",
"536 567 OFFCURVE",
"490 368 OFFCURVE",
"475 264 CURVE",
"491 264 LINE",
"468 380 OFFCURVE",
"443 522 OFFCURVE",
"397 662 CURVE SMOOTH",
"375 728 OFFCURVE",
"326 815 OFFCURVE",
"231 815 CURVE SMOOTH",
"135 815 OFFCURVE",
"101 731 OFFCURVE",
"83 644 CURVE SMOOTH",
"52 494 OFFCURVE",
"36 251 OFFCURVE",
"46 -74 CURVE"
);
}
);
width = 981;
}
);
unicode = 004D;
},
{
glyphname = N;
lastChange = "2020-05-29 06:40:55 +0000";
layers = (
{
layerId = "BE1754C0-A605-45AC-AA12-D3A1FC0C380B";
paths = (
{
closed = 1;
nodes = (
"782 -77 OFFCURVE",
"816 -13 OFFCURVE",
"829 88 CURVE SMOOTH",
"848 238 OFFCURVE",
"844 641 OFFCURVE",
"840 805 CURVE",
"666 784 LINE",
"691 644 OFFCURVE",
"701 170 OFFCURVE",
"676 79 CURVE",
"690 91 LINE",
"593 257 OFFCURVE",
"358 631 OFFCURVE",
"241 779 CURVE",
"147 666 LINE",
"223 569 OFFCURVE",
"419 242 OFFCURVE",
"523 68 CURVE SMOOTH",
"587 -39 OFFCURVE",
"636 -77 OFFCURVE",
"697 -77 CURVE SMOOTH"
);
},
{
closed = 1;
nodes = (
"238 -71 LINE",
"231 134 OFFCURVE",
"249 542 OFFCURVE",
"283 796 CURVE",
"125 803 LINE",
"99 582 OFFCURVE",
"72 340 OFFCURVE",
"72 -74 CURVE"
);
}
);
width = 915;
}
);
unicode = 004E;
},
{
glyphname = O;
lastChange = "2020-06-30 13:15:13 +0000";
layers = (
{
layerId = "BE1754C0-A605-45AC-AA12-D3A1FC0C380B";
paths = (
{
closed = 1;
nodes = (
"715 -77 OFFCURVE",
"875 118 OFFCURVE",
"875 375 CURVE SMOOTH",
"876 598 OFFCURVE",
"743 815 OFFCURVE",
"450 815 CURVE SMOOTH",
"171 815 OFFCURVE",
"44 589 OFFCURVE",
"42 369 CURVE SMOOTH",
"41 129 OFFCURVE",
"213 -77 OFFCURVE",
"470 -77 CURVE SMOOTH"
);
},
{
closed = 1;
nodes = (
"325 82 OFFCURVE",
"203 205 OFFCURVE",
"202 353 CURVE SMOOTH",
"201 502 OFFCURVE",
"263 655 OFFCURVE",
"455 658 CURVE SMOOTH",
"584 660 OFFCURVE",
"718 570 OFFCURVE",
"712 373 CURVE SMOOTH",
"706 167 OFFCURVE",
"593 80 OFFCURVE",
"468 81 CURVE SMOOTH"
);
}
);
width = 917;
}
);
unicode = 004F;
},
{
glyphname = Oslash;
lastChange = "2020-08-15 18:39:09 +0000";
layers = (
{
layerId = "BE1754C0-A605-45AC-AA12-D3A1FC0C380B";
paths = (
{
closed = 1;
nodes = (
"722 -77 OFFCURVE",
"882 118 OFFCURVE",
"882 375 CURVE SMOOTH",
"883 598 OFFCURVE",
"750 815 OFFCURVE",
"457 815 CURVE SMOOTH",
"178 815 OFFCURVE",
"51 589 OFFCURVE",
"49 369 CURVE SMOOTH",
"48 129 OFFCURVE",
"232 -77 OFFCURVE",
"477 -77 CURVE SMOOTH"
);
},
{
closed = 1;
nodes = (
"326 82 OFFCURVE",
"201 205 OFFCURVE",
"200 353 CURVE SMOOTH",
"199 502 OFFCURVE",
"264 655 OFFCURVE",
"456 658 CURVE SMOOTH",
"585 660 OFFCURVE",
"719 570 OFFCURVE",
"713 373 CURVE SMOOTH",
"707 167 OFFCURVE",
"594 80 OFFCURVE",
"469 81 CURVE SMOOTH"
);
},
{
closed = 1;
nodes = (
"291 128 OFFCURVE",
"697 541 OFFCURVE",
"881 705 CURVE",
"799 802 LINE",
"653 670 OFFCURVE",
"202 229 OFFCURVE",
"38 45 CURVE",
"133 -38 LINE"
);
}
);
width = 895;
},
{
associatedMasterId = "BE1754C0-A605-45AC-AA12-D3A1FC0C380B";
components = (
{
alignment = -1;
name = O;
},
{
alignment = -1;
name = slashlongcomb;
}
);
layerId = "3FC96813-E7C5-45AC-9F0B-5DBEB42CEC4B";
name = E;
paths = (
{
closed = 1;
nodes = (
"703 743 LINE",
"681 760 LINE",
"106 -5 LINE",
"128 -22 LINE"
);
}
);
width = 809;
},
{
associatedMasterId = "BE1754C0-A605-45AC-AA12-D3A1FC0C380B";
components = (
{
alignment = -1;
name = O;
},
{
alignment = -1;
name = slashlongcomb;
}
);
layerId = "56DC1C81-F651-46E9-87C8-388DC3C1949A";
name = "new Layer";
paths = (
{
closed = 1;
nodes = (
"739 767 LINE",
"717 784 LINE",
"120 -12 LINE",
"142 -29 LINE"
);
}
);
width = 857;
},
{
associatedMasterId = "BE1754C0-A605-45AC-AA12-D3A1FC0C380B";
components = (
{
alignment = -1;
name = O;
},
{
alignment = -1;
name = slashlongcomb;
}
);
layerId = "B1A4DE2A-A433-45B8-A685-0F6164F66E71";
name = M;
paths = (
{
closed = 1;
nodes = (
"681 729 LINE",
"659 746 LINE",
"98 -1 LINE",
"120 -18 LINE"
);
}
);
width = 781;
},
{
associatedMasterId = "BE1754C0-A605-45AC-AA12-D3A1FC0C380B";
components = (
{
alignment = -1;
name = O;
},
{
alignment = -1;
name = slashlongcomb;
}
);
layerId = "D4F92898-FE9E-4031-93CC-4B24C74A170D";
name = D;
paths = (
{
closed = 1;
nodes = (
"688 734 LINE",
"666 751 LINE",
"101 -2 LINE",
"123 -19 LINE"
);
}
);
width = 790;
},
{
associatedMasterId = "BE1754C0-A605-45AC-AA12-D3A1FC0C380B";
components = (
{
alignment = -1;
name = O;
},
{
alignment = -1;
name = slashlongcomb;
}
);
layerId = "674859A0-EBFE-4816-8CD7-51AEBE2383D6";
name = B;
paths = (
{
closed = 1;
nodes = (
"696 738 LINE",
"674 755 LINE",
"103 -4 LINE",
"125 -21 LINE"
);
}
);
width = 800;
}
);
unicode = 00D8;
},
{
glyphname = OE;
lastChange = "2020-08-19 14:10:13 +0000";
layers = (
{
layerId = "BE1754C0-A605-45AC-AA12-D3A1FC0C380B";
paths = (
{
closed = 1;
nodes = (
"399 -80 OFFCURVE",
"481 -33 OFFCURVE",
"536 45 CURVE",
"536 45 OFFCURVE",
"557 365 OFFCURVE",
"596 692 CURVE",
"534 772 OFFCURVE",
"439 814 OFFCURVE",
"357 814 CURVE SMOOTH",
"116 814 OFFCURVE",
"7 530 OFFCURVE",
"7 336 CURVE SMOOTH",
"7 86 OFFCURVE",
"145 -80 OFFCURVE",
"313 -80 CURVE SMOOTH"
);
},
{
closed = 1;
nodes = (
"227 81 OFFCURVE",
"162 171 OFFCURVE",
"162 317 CURVE SMOOTH",
"162 427 OFFCURVE",
"211 655 OFFCURVE",
"356 655 CURVE SMOOTH",
"437 655 OFFCURVE",
"512 589 OFFCURVE",
"512 440 CURVE SMOOTH",
"512 320 OFFCURVE",
"461 81 OFFCURVE",
"323 81 CURVE SMOOTH"
);
},
{
closed = 1;
nodes = (
"754 -78 OFFCURVE",
"873 -59 OFFCURVE",
"991 -16 CURVE",
"988 153 LINE",
"862 100 OFFCURVE",
"748 80 OFFCURVE",
"676 80 CURVE SMOOTH",
"631 80 OFFCURVE",
"618 99 OFFCURVE",
"618 187 CURVE SMOOTH",
"618 257 OFFCURVE",
"632 548 OFFCURVE",
"667 733 CURVE",
"513 713 LINE",
"500 629 OFFCURVE",
"464 398 OFFCURVE",
"464 213 CURVE SMOOTH",
"464 -32 OFFCURVE",
"532 -78 OFFCURVE",
"686 -78 CURVE SMOOTH"
);
},
{
closed = 1;
nodes = (
"582 311 OFFCURVE",
"787 323 OFFCURVE",
"901 323 CURVE SMOOTH",
"927 323 OFFCURVE",
"948 322 OFFCURVE",
"962 321 CURVE",
"965 473 LINE",
"948 475 OFFCURVE",
"925 475 OFFCURVE",
"897 475 CURVE SMOOTH",
"784 475 OFFCURVE",
"600 462 OFFCURVE",
"526 435 CURVE",
"523 287 LINE"
);
},
{
closed = 1;
nodes = (
"538 641 OFFCURVE",
"709 656 OFFCURVE",
"838 656 CURVE SMOOTH",
"892 656 OFFCURVE",
"938 653 OFFCURVE",
"966 647 CURVE",
"972 800 LINE",
"944 804 OFFCURVE",
"903 806 OFFCURVE",
"855 806 CURVE SMOOTH",
"730 806 OFFCURVE",
"558 792 OFFCURVE",
"458 770 CURVE",
"472 624 LINE"
);
}
);
width = 1000;
},
{
associatedMasterId = "BE1754C0-A605-45AC-AA12-D3A1FC0C380B";
layerId = "3FC96813-E7C5-45AC-9F0B-5DBEB42CEC4B";
name = E;
paths = (
{
closed = 1;
nodes = (
"447 -13 OFFCURVE",
"493 -1 OFFCURVE",
"530 0 CURVE SMOOTH",
"1059 0 LINE",
"1080 58 OFFCURVE",
"1111 141 OFFCURVE",
"1131 194 CURVE SMOOTH",
"1133 199 OFFCURVE",
"1130 204 OFFCURVE",
"1124 207 CURVE SMOOTH",
"1118 210 OFFCURVE",
"1114 209 OFFCURVE",
"1109 205 CURVE SMOOTH",
"1067 147 OFFCURVE",
"984 38 OFFCURVE",
"848 30 CURVE SMOOTH",
"822 28 OFFCURVE",
"808 28 OFFCURVE",
"787 30 CURVE SMOOTH",
"732 33 OFFCURVE",
"698 42 OFFCURVE",
"698 92 CURVE SMOOTH",
"698 648 LINE SMOOTH",
"698 708 OFFCURVE",
"742 711 OFFCURVE",
"810 711 CURVE SMOOTH",
"827 711 LINE SMOOTH",
"933 709 OFFCURVE",
"1042 642 OFFCURVE",
"1088 594 CURVE SMOOTH",
"1092 591 OFFCURVE",
"1097 590 OFFCURVE",
"1104 593 CURVE SMOOTH",
"1109 595 OFFCURVE",
"1112 599 OFFCURVE",
"1109 605 CURVE SMOOTH",
"1106 614 OFFCURVE",
"1037 740 OFFCURVE",
"1037 740 CURVE",
"530 740 LINE",
"493 739 OFFCURVE",
"447 751 OFFCURVE",
"406 751 CURVE SMOOTH",
"243 751 OFFCURVE",
"46 623 OFFCURVE",
"46 369 CURVE SMOOTH",
"46 115 OFFCURVE",
"243 -13 OFFCURVE",
"406 -13 CURVE SMOOTH"
);
},
{
closed = 1;
nodes = (
"292 21 OFFCURVE",
"207 133 OFFCURVE",
"207 368 CURVE SMOOTH",
"207 603 OFFCURVE",
"292 715 OFFCURVE",
"407 715 CURVE SMOOTH",
"469 715 OFFCURVE",
"552 675 OFFCURVE",
"555 610 CURVE SMOOTH",
"556 582 OFFCURVE",
"556 476 OFFCURVE",
"556 369 CURVE SMOOTH",
"556 261 OFFCURVE",
"556 154 OFFCURVE",
"555 126 CURVE SMOOTH",
"551 61 OFFCURVE",
"469 21 OFFCURVE",
"407 21 CURVE SMOOTH"
);
},
{
closed = 1;
nodes = (
"960 258 OFFCURVE",
"965 260 OFFCURVE",
"965 266 CURVE SMOOTH",
"965 500 LINE SMOOTH",
"965 505 OFFCURVE",
"960 506 OFFCURVE",
"952 506 CURVE SMOOTH",
"945 506 OFFCURVE",
"941 505 OFFCURVE",
"941 500 CURVE SMOOTH",
"940 455 OFFCURVE",
"908 402 OFFCURVE",
"848 401 CURVE SMOOTH",
"791 399 OFFCURVE",
"664 401 OFFCURVE",
"664 401 CURVE",
"664 365 LINE",
"664 365 OFFCURVE",
"791 366 OFFCURVE",
"848 365 CURVE SMOOTH",
"908 363 OFFCURVE",
"940 311 OFFCURVE",
"941 266 CURVE SMOOTH",
"941 260 OFFCURVE",
"945 258 OFFCURVE",
"952 258 CURVE SMOOTH"
);
}
);
width = 1172;
},
{
associatedMasterId = "BE1754C0-A605-45AC-AA12-D3A1FC0C380B";
layerId = "56DC1C81-F651-46E9-87C8-388DC3C1949A";
name = "new Layer";
paths = (
{
closed = 1;
nodes = (
"454 -12 OFFCURVE",
"490 -1 OFFCURVE",
"514 1 CURVE SMOOTH",
"1145 1 LINE",
"1167 61 OFFCURVE",
"1214 195 OFFCURVE",
"1232 236 CURVE SMOOTH",
"1234 240 OFFCURVE",
"1231 243 OFFCURVE",
"1227 246 CURVE SMOOTH",
"1222 249 OFFCURVE",
"1220 247 OFFCURVE",
"1214 244 CURVE SMOOTH",
"1186 196 OFFCURVE",
"1070 35 OFFCURVE",
"929 31 CURVE SMOOTH",
"902 29 OFFCURVE",
"912 28 OFFCURVE",
"892 31 CURVE SMOOTH",
"835 35 OFFCURVE",
"799 43 OFFCURVE",
"799 95 CURVE SMOOTH",
"799 666 LINE SMOOTH",
"799 726 OFFCURVE",
"843 731 OFFCURVE",
"912 731 CURVE SMOOTH",
"919 731 LINE SMOOTH",
"1030 727 OFFCURVE",
"1169 626 OFFCURVE",
"1203 588 CURVE SMOOTH",
"1207 586 OFFCURVE",
"1211 586 OFFCURVE",
"1216 588 CURVE SMOOTH",
"1220 589 OFFCURVE",
"1222 593 OFFCURVE",
"1219 596 CURVE SMOOTH",
"1217 603 OFFCURVE",
"1134 759 OFFCURVE",
"1134 759 CURVE",
"514 759 LINE",
"490 760 OFFCURVE",
"454 771 OFFCURVE",
"427 771 CURVE SMOOTH",
"247 771 OFFCURVE",
"29 640 OFFCURVE",
"29 380 CURVE SMOOTH",
"29 120 OFFCURVE",
"247 -12 OFFCURVE",
"427 -12 CURVE SMOOTH"
);
},
{
closed = 1;
nodes = (
"316 22 OFFCURVE",
"269 136 OFFCURVE",
"269 378 CURVE SMOOTH",
"269 619 OFFCURVE",
"316 733 OFFCURVE",
"429 733 CURVE SMOOTH",
"489 733 OFFCURVE",
"578 666 OFFCURVE",
"577 630 CURVE SMOOTH",
"577 602 OFFCURVE",
"576 486 OFFCURVE",
"576 376 CURVE SMOOTH",
"576 264 OFFCURVE",
"576 153 OFFCURVE",
"577 125 CURVE SMOOTH",
"580 89 OFFCURVE",
"489 22 OFFCURVE",
"429 22 CURVE SMOOTH"
);
},
{
closed = 1;
nodes = (
"1038 266 OFFCURVE",
"1042 267 OFFCURVE",
"1042 273 CURVE SMOOTH",
"1042 514 LINE SMOOTH",
"1042 518 OFFCURVE",
"1038 519 OFFCURVE",
"1031 519 CURVE SMOOTH",
"1025 519 OFFCURVE",
"1022 518 OFFCURVE",
"1022 514 CURVE SMOOTH",
"1020 479 OFFCURVE",
"987 413 OFFCURVE",
"924 412 CURVE SMOOTH",
"866 409 OFFCURVE",
"776 412 OFFCURVE",
"776 412 CURVE",
"776 375 LINE",
"776 375 OFFCURVE",
"866 376 OFFCURVE",
"924 375 CURVE SMOOTH",
"987 372 OFFCURVE",
"1020 308 OFFCURVE",
"1022 273 CURVE SMOOTH",
"1022 267 OFFCURVE",
"1025 266 OFFCURVE",
"1031 266 CURVE SMOOTH"
);
}
);
width = 1272;
},
{
associatedMasterId = "BE1754C0-A605-45AC-AA12-D3A1FC0C380B";
layerId = "B1A4DE2A-A433-45B8-A685-0F6164F66E71";
name = M;
paths = (
{
closed = 1;
nodes = (
"443 -14 OFFCURVE",
"495 -1 OFFCURVE",
"540 -1 CURVE SMOOTH",
"1007 -1 LINE",
"1028 57 OFFCURVE",
"1050 109 OFFCURVE",
"1070 169 CURVE SMOOTH",
"1072 174 OFFCURVE",
"1069 181 OFFCURVE",
"1063 184 CURVE SMOOTH",
"1056 187 OFFCURVE",
"1050 187 OFFCURVE",
"1046 182 CURVE SMOOTH",
"996 118 OFFCURVE",
"932 40 OFFCURVE",
"799 29 CURVE SMOOTH",
"774 27 OFFCURVE",
"746 28 OFFCURVE",
"724 29 CURVE SMOOTH",
"671 32 OFFCURVE",
"637 41 OFFCURVE",
"637 91 CURVE SMOOTH",
"637 638 LINE SMOOTH",
"637 698 OFFCURVE",
"681 699 OFFCURVE",
"749 699 CURVE SMOOTH",
"772 699 LINE SMOOTH",
"875 699 OFFCURVE",
"966 652 OFFCURVE",
"1019 598 CURVE SMOOTH",
"1023 594 OFFCURVE",
"1029 592 OFFCURVE",
"1037 596 CURVE SMOOTH",
"1042 599 OFFCURVE",
"1046 603 OFFCURVE",
"1043 610 CURVE SMOOTH",
"1039 621 OFFCURVE",
"979 729 OFFCURVE",
"979 729 CURVE",
"540 729 LINE",
"495 726 OFFCURVE",
"443 739 OFFCURVE",
"393 739 CURVE SMOOTH",
"241 739 OFFCURVE",
"57 613 OFFCURVE",
"57 362 CURVE SMOOTH",
"57 112 OFFCURVE",
"241 -14 OFFCURVE",
"393 -14 CURVE SMOOTH"
);
},
{
closed = 1;
nodes = (
"278 20 OFFCURVE",
"170 132 OFFCURVE",
"170 362 CURVE SMOOTH",
"170 593 OFFCURVE",
"278 705 OFFCURVE",
"394 705 CURVE SMOOTH",
"457 705 OFFCURVE",
"536 680 OFFCURVE",
"542 598 CURVE SMOOTH",
"543 570 OFFCURVE",
"544 470 OFFCURVE",
"544 365 CURVE SMOOTH",
"544 260 OFFCURVE",
"544 155 OFFCURVE",
"542 127 CURVE SMOOTH",
"534 45 OFFCURVE",
"457 20 OFFCURVE",
"394 20 CURVE SMOOTH"
);
},
{
closed = 1;
nodes = (
"914 254 OFFCURVE",
"919 256 OFFCURVE",
"919 262 CURVE SMOOTH",
"919 492 LINE SMOOTH",
"919 498 OFFCURVE",
"914 499 OFFCURVE",
"905 499 CURVE SMOOTH",
"897 499 OFFCURVE",
"892 498 OFFCURVE",
"892 492 CURVE SMOOTH",
"892 441 OFFCURVE",
"861 395 OFFCURVE",
"802 394 CURVE SMOOTH",
"746 393 OFFCURVE",
"597 394 OFFCURVE",
"597 394 CURVE",
"597 359 LINE",
"597 359 OFFCURVE",
"746 360 OFFCURVE",
"802 359 CURVE SMOOTH",
"861 358 OFFCURVE",
"892 313 OFFCURVE",
"892 262 CURVE SMOOTH",
"892 256 OFFCURVE",
"897 254 OFFCURVE",
"905 254 CURVE SMOOTH"
);
}
);
width = 1111;
},
{
associatedMasterId = "BE1754C0-A605-45AC-AA12-D3A1FC0C380B";
layerId = "D4F92898-FE9E-4031-93CC-4B24C74A170D";
name = D;
paths = (
{
closed = 1;
nodes = (
"444 -14 OFFCURVE",
"494 -1 OFFCURVE",
"537 -1 CURVE SMOOTH",
"1024 -1 LINE",
"1045 57 OFFCURVE",
"1070 120 OFFCURVE",
"1090 177 CURVE SMOOTH",
"1092 182 OFFCURVE",
"1089 189 OFFCURVE",
"1083 192 CURVE SMOOTH",
"1077 195 OFFCURVE",
"1071 194 OFFCURVE",
"1067 190 CURVE SMOOTH",
"1020 128 OFFCURVE",
"949 39 OFFCURVE",
"815 29 CURVE SMOOTH",
"790 27 OFFCURVE",
"767 28 OFFCURVE",
"745 29 CURVE SMOOTH",
"691 32 OFFCURVE",
"657 41 OFFCURVE",
"657 91 CURVE SMOOTH",
"657 641 LINE SMOOTH",
"657 701 OFFCURVE",
"701 703 OFFCURVE",
"769 703 CURVE SMOOTH",
"790 703 LINE SMOOTH",
"894 702 OFFCURVE",
"991 649 OFFCURVE",
"1042 597 CURVE SMOOTH",
"1046 593 OFFCURVE",
"1052 591 OFFCURVE",
"1059 595 CURVE SMOOTH",
"1064 598 OFFCURVE",
"1068 602 OFFCURVE",
"1065 608 CURVE SMOOTH",
"1061 619 OFFCURVE",
"998 733 OFFCURVE",
"998 733 CURVE",
"537 733 LINE",
"494 730 OFFCURVE",
"444 743 OFFCURVE",
"397 743 CURVE SMOOTH",
"242 743 OFFCURVE",
"53 616 OFFCURVE",
"53 364 CURVE SMOOTH",
"53 113 OFFCURVE",
"242 -14 OFFCURVE",
"397 -14 CURVE SMOOTH"
);
},
{
closed = 1;
nodes = (
"283 20 OFFCURVE",
"182 132 OFFCURVE",
"182 364 CURVE SMOOTH",
"182 596 OFFCURVE",
"283 708 OFFCURVE",
"398 708 CURVE SMOOTH",
"461 708 OFFCURVE",
"541 678 OFFCURVE",
"546 602 CURVE SMOOTH",
"547 574 OFFCURVE",
"548 472 OFFCURVE",
"548 366 CURVE SMOOTH",
"548 260 OFFCURVE",
"548 155 OFFCURVE",
"546 127 CURVE SMOOTH",
"540 50 OFFCURVE",
"461 20 OFFCURVE",
"398 20 CURVE SMOOTH"
);
},
{
closed = 1;
nodes = (
"929 255 OFFCURVE",
"934 257 OFFCURVE",
"934 263 CURVE SMOOTH",
"934 495 LINE SMOOTH",
"934 500 OFFCURVE",
"929 501 OFFCURVE",
"921 501 CURVE SMOOTH",
"913 501 OFFCURVE",
"908 500 OFFCURVE",
"908 495 CURVE SMOOTH",
"908 446 OFFCURVE",
"877 397 OFFCURVE",
"817 396 CURVE SMOOTH",
"761 395 OFFCURVE",
"619 396 OFFCURVE",
"619 396 CURVE",
"619 361 LINE",
"619 361 OFFCURVE",
"761 362 OFFCURVE",
"817 361 CURVE SMOOTH",
"877 360 OFFCURVE",
"908 312 OFFCURVE",
"908 263 CURVE SMOOTH",
"908 257 OFFCURVE",
"913 255 OFFCURVE",
"921 255 CURVE SMOOTH"
);
}
);
width = 1131;
},
{
associatedMasterId = "BE1754C0-A605-45AC-AA12-D3A1FC0C380B";
layerId = "674859A0-EBFE-4816-8CD7-51AEBE2383D6";
name = B;
paths = (
{
closed = 1;
nodes = (
"446 -13 OFFCURVE",
"494 -1 OFFCURVE",
"533 0 CURVE SMOOTH",
"1042 0 LINE",
"1063 58 OFFCURVE",
"1091 130 OFFCURVE",
"1111 186 CURVE SMOOTH",
"1113 191 OFFCURVE",
"1110 196 OFFCURVE",
"1104 199 CURVE SMOOTH",
"1097 202 OFFCURVE",
"1093 202 OFFCURVE",
"1088 197 CURVE SMOOTH",
"1043 137 OFFCURVE",
"967 39 OFFCURVE",
"832 30 CURVE SMOOTH",
"806 28 OFFCURVE",
"787 28 OFFCURVE",
"766 30 CURVE SMOOTH",
"712 33 OFFCURVE",
"678 42 OFFCURVE",
"678 92 CURVE SMOOTH",
"678 645 LINE SMOOTH",
"678 705 OFFCURVE",
"722 707 OFFCURVE",
"790 707 CURVE SMOOTH",
"809 707 LINE SMOOTH",
"914 706 OFFCURVE",
"1017 645 OFFCURVE",
"1065 595 CURVE SMOOTH",
"1069 592 OFFCURVE",
"1074 591 OFFCURVE",
"1082 594 CURVE SMOOTH",
"1087 596 OFFCURVE",
"1090 600 OFFCURVE",
"1087 607 CURVE SMOOTH",
"1084 616 OFFCURVE",
"1018 736 OFFCURVE",
"1018 736 CURVE",
"533 736 LINE",
"494 735 OFFCURVE",
"446 747 OFFCURVE",
"402 747 CURVE SMOOTH",
"242 747 OFFCURVE",
"50 620 OFFCURVE",
"50 367 CURVE SMOOTH",
"50 114 OFFCURVE",
"242 -13 OFFCURVE",
"402 -13 CURVE SMOOTH"
);
},
{
closed = 1;
nodes = (
"287 21 OFFCURVE",
"195 133 OFFCURVE",
"195 366 CURVE SMOOTH",
"195 600 OFFCURVE",
"287 712 OFFCURVE",
"403 712 CURVE SMOOTH",
"465 712 OFFCURVE",
"547 677 OFFCURVE",
"551 606 CURVE SMOOTH",
"552 578 OFFCURVE",
"552 474 OFFCURVE",
"552 368 CURVE SMOOTH",
"552 261 OFFCURVE",
"552 154 OFFCURVE",
"551 126 CURVE SMOOTH",
"545 56 OFFCURVE",
"465 21 OFFCURVE",
"403 21 CURVE SMOOTH"
);
},
{
closed = 1;
nodes = (
"945 257 OFFCURVE",
"950 259 OFFCURVE",
"950 265 CURVE SMOOTH",
"950 497 LINE SMOOTH",
"950 503 OFFCURVE",
"945 504 OFFCURVE",
"936 504 CURVE SMOOTH",
"929 504 OFFCURVE",
"925 503 OFFCURVE",
"925 497 CURVE SMOOTH",
"924 450 OFFCURVE",
"892 400 OFFCURVE",
"833 399 CURVE SMOOTH",
"776 397 OFFCURVE",
"642 399 OFFCURVE",
"642 399 CURVE",
"642 363 LINE",
"642 363 OFFCURVE",
"776 364 OFFCURVE",
"833 363 CURVE SMOOTH",
"892 361 OFFCURVE",
"924 312 OFFCURVE",
"925 265 CURVE SMOOTH",
"925 259 OFFCURVE",
"929 257 OFFCURVE",
"936 257 CURVE SMOOTH"
);
}
);
width = 1152;
}
);
unicode = 0152;
},
{
glyphname = P;
lastChange = "2020-08-16 10:04:41 +0000";
layers = (
{
layerId = "BE1754C0-A605-45AC-AA12-D3A1FC0C380B";
paths = (
{
closed = 1;
nodes = (
"565 247 OFFCURVE",
"779 313 OFFCURVE",
"779 529 CURVE SMOOTH",
"779 791 OFFCURVE",
"529 814 OFFCURVE",
"423 814 CURVE SMOOTH",
"346 814 OFFCURVE",
"176 795 OFFCURVE",
"44 755 CURVE",
"80 608 LINE",
"150 630 OFFCURVE",
"295 663 OFFCURVE",
"418 663 CURVE SMOOTH",
"528 663 OFFCURVE",
"621 637 OFFCURVE",
"626 553 CURVE SMOOTH",
"634 422 OFFCURVE",
"504 389 OFFCURVE",
"373 389 CURVE SMOOTH",
"320 389 OFFCURVE",
"267 394 OFFCURVE",
"223 401 CURVE",
"223 262 LINE",
"268 253 OFFCURVE",
"321 247 OFFCURVE",
"377 247 CURVE SMOOTH"
);
},
{
closed = 1;
nodes = (
"287 -64 LINE",
"278 122 OFFCURVE",
"284 526 OFFCURVE",
"307 726 CURVE",
"158 714 LINE",
"141 483 OFFCURVE",
"125 217 OFFCURVE",
"131 -68 CURVE"
);
}
);
width = 822;
}
);
unicode = 0050;
},
{
glyphname = Thorn;
lastChange = "2020-11-07 19:05:03 +0000";
layers = (
{
layerId = "BE1754C0-A605-45AC-AA12-D3A1FC0C380B";
paths = (
{
closed = 1;
nodes = (
"533 76 OFFCURVE",
"745 160 OFFCURVE",
"745 376 CURVE SMOOTH",
"745 624 OFFCURVE",
"496 658 OFFCURVE",
"377 658 CURVE SMOOTH",
"314 658 OFFCURVE",
"252 651 OFFCURVE",
"181 635 CURVE",
"181 482 LINE",
"243 494 OFFCURVE",
"312 503 OFFCURVE",
"376 503 CURVE SMOOTH",
"486 503 OFFCURVE",
"589 471 OFFCURVE",
"589 387 CURVE SMOOTH",
"589 267 OFFCURVE",
"439 228 OFFCURVE",
"331 228 CURVE SMOOTH",
"278 228 OFFCURVE",
"225 236 OFFCURVE",
"181 243 CURVE",
"177 94 LINE",
"232 79 OFFCURVE",
"293 72 OFFCURVE",
"353 73 CURVE SMOOTH"
);
},
{
closed = 1;
nodes = (
"233 -77 LINE",
"226 133 OFFCURVE",
"243 567 OFFCURVE",
"261 803 CURVE",
"104 812 LINE",
"91 571 OFFCURVE",
"70 207 OFFCURVE",
"76 -78 CURVE"
);
}
);
width = 755;
},
{
associatedMasterId = "BE1754C0-A605-45AC-AA12-D3A1FC0C380B";
layerId = "3FC96813-E7C5-45AC-9F0B-5DBEB42CEC4B";
name = E;
paths = (
{
closed = 1;
nodes = (
"388 0 LINE SMOOTH",
"394 0 OFFCURVE",
"396 6 OFFCURVE",
"396 12 CURVE SMOOTH",
"396 17 OFFCURVE",
"395 23 OFFCURVE",
"388 23 CURVE SMOOTH",
"377 23 LINE SMOOTH",
"341 23 OFFCURVE",
"293 33 OFFCURVE",
"293 109 CURVE SMOOTH",
"295 631 LINE SMOOTH",
"295 707 OFFCURVE",
"340 717 OFFCURVE",
"377 717 CURVE SMOOTH",
"388 717 LINE SMOOTH",
"394 717 OFFCURVE",
"396 723 OFFCURVE",
"396 729 CURVE SMOOTH",
"396 734 OFFCURVE",
"395 740 OFFCURVE",
"388 740 CURVE SMOOTH",
"50 740 LINE SMOOTH",
"44 740 OFFCURVE",
"43 734 OFFCURVE",
"43 729 CURVE SMOOTH",
"43 723 OFFCURVE",
"44 717 OFFCURVE",
"50 717 CURVE SMOOTH",
"61 717 LINE SMOOTH",
"98 717 OFFCURVE",
"145 707 OFFCURVE",
"145 631 CURVE SMOOTH",
"144 109 LINE SMOOTH",
"144 34 OFFCURVE",
"98 23 OFFCURVE",
"61 23 CURVE SMOOTH",
"50 23 LINE SMOOTH",
"44 23 OFFCURVE",
"43 17 OFFCURVE",
"43 12 CURVE SMOOTH",
"43 6 OFFCURVE",
"44 0 OFFCURVE",
"50 0 CURVE SMOOTH"
);
},
{
closed = 1;
nodes = (
"254 180 OFFCURVE",
"315 178 OFFCURVE",
"410 180 CURVE",
"520 183 OFFCURVE",
"699 231 OFFCURVE",
"699 383 CURVE",
"699 506 OFFCURVE",
"568 569 OFFCURVE",
"432 578 CURVE",
"321 585 OFFCURVE",
"254 578 OFFCURVE",
"254 578 CURVE",
"254 550 LINE",
"254 550 OFFCURVE",
"301 554 OFFCURVE",
"376 549 CURVE",
"473 544 OFFCURVE",
"539 486 OFFCURVE",
"539 387 CURVE",
"539 289 OFFCURVE",
"503 213 OFFCURVE",
"368 208 CURVE",
"317 207 OFFCURVE",
"254 208 OFFCURVE",
"254 208 CURVE",
"254 180 LINE"
);
}
);
width = 726;
},
{
associatedMasterId = "BE1754C0-A605-45AC-AA12-D3A1FC0C380B";
layerId = "56DC1C81-F651-46E9-87C8-388DC3C1949A";
name = "new Layer";
paths = (
{
closed = 1;
nodes = (
"446 0 LINE SMOOTH",
"452 0 OFFCURVE",
"453 7 OFFCURVE",
"453 9 CURVE SMOOTH",
"453 10 OFFCURVE",
"452 17 OFFCURVE",
"446 17 CURVE SMOOTH",
"440 17 LINE SMOOTH",
"432 17 OFFCURVE",
"358 22 OFFCURVE",
"358 133 CURVE SMOOTH",
"362 627 LINE SMOOTH",
"362 739 OFFCURVE",
"434 743 OFFCURVE",
"440 743 CURVE SMOOTH",
"446 743 LINE SMOOTH",
"452 743 OFFCURVE",
"453 750 OFFCURVE",
"453 751 CURVE SMOOTH",
"453 753 OFFCURVE",
"452 759 OFFCURVE",
"446 759 CURVE SMOOTH",
"39 759 LINE SMOOTH",
"32 759 OFFCURVE",
"32 753 OFFCURVE",
"32 751 CURVE SMOOTH",
"32 750 OFFCURVE",
"32 743 OFFCURVE",
"39 743 CURVE SMOOTH",
"44 743 LINE SMOOTH",
"55 743 OFFCURVE",
"125 738 OFFCURVE",
"125 627 CURVE SMOOTH",
"123 133 LINE SMOOTH",
"123 20 OFFCURVE",
"52 17 OFFCURVE",
"44 17 CURVE SMOOTH",
"39 17 LINE SMOOTH",
"32 17 OFFCURVE",
"32 10 OFFCURVE",
"32 9 CURVE SMOOTH",
"32 7 OFFCURVE",
"32 0 OFFCURVE",
"39 0 CURVE SMOOTH"
);
},
{
closed = 1;
nodes = (
"320 184 OFFCURVE",
"315 183 OFFCURVE",
"480 184 CURVE",
"583 181 OFFCURVE",
"804 252 OFFCURVE",
"804 392 CURVE",
"804 518 OFFCURVE",
"657 573 OFFCURVE",
"502 591 CURVE",
"403 604 OFFCURVE",
"320 592 OFFCURVE",
"320 592 CURVE",
"320 564 LINE",
"320 564 OFFCURVE",
"340 573 OFFCURVE",
"445 562 CURVE",
"490 550 OFFCURVE",
"560 497 OFFCURVE",
"560 396 CURVE",
"560 295 OFFCURVE",
"534 220 OFFCURVE",
"430 212 CURVE",
"345 209 OFFCURVE",
"320 212 OFFCURVE",
"320 212 CURVE",
"320 184 LINE"
);
}
);
width = 822;
},
{
associatedMasterId = "BE1754C0-A605-45AC-AA12-D3A1FC0C380B";
layerId = "B1A4DE2A-A433-45B8-A685-0F6164F66E71";
name = M;
paths = (
{
closed = 1;
nodes = (
"354 0 LINE SMOOTH",
"360 0 OFFCURVE",
"362 5 OFFCURVE",
"362 14 CURVE SMOOTH",
"362 22 OFFCURVE",
"361 27 OFFCURVE",
"354 27 CURVE SMOOTH",
"340 27 LINE SMOOTH",
"286 27 OFFCURVE",
"254 40 OFFCURVE",
"254 95 CURVE SMOOTH",
"255 633 LINE SMOOTH",
"255 688 OFFCURVE",
"284 701 OFFCURVE",
"340 701 CURVE SMOOTH",
"354 701 LINE SMOOTH",
"360 701 OFFCURVE",
"362 707 OFFCURVE",
"362 716 CURVE SMOOTH",
"362 723 OFFCURVE",
"361 729 OFFCURVE",
"354 729 CURVE SMOOTH",
"57 729 LINE SMOOTH",
"52 729 OFFCURVE",
"50 723 OFFCURVE",
"50 716 CURVE SMOOTH",
"50 707 OFFCURVE",
"52 701 OFFCURVE",
"57 701 CURVE SMOOTH",
"72 701 LINE SMOOTH",
"124 701 OFFCURVE",
"157 688 OFFCURVE",
"157 633 CURVE SMOOTH",
"157 95 LINE SMOOTH",
"157 42 OFFCURVE",
"126 27 OFFCURVE",
"72 27 CURVE SMOOTH",
"57 27 LINE SMOOTH",
"52 27 OFFCURVE",
"50 22 OFFCURVE",
"50 14 CURVE SMOOTH",
"50 5 OFFCURVE",
"52 0 OFFCURVE",
"57 0 CURVE SMOOTH"
);
},
{
closed = 1;
nodes = (
"214 178 OFFCURVE",
"315 175 OFFCURVE",
"368 178 CURVE",
"483 185 OFFCURVE",
"636 218 OFFCURVE",
"636 378 CURVE",
"636 499 OFFCURVE",
"515 567 OFFCURVE",
"390 571 CURVE",
"272 574 OFFCURVE",
"214 570 OFFCURVE",
"214 570 CURVE",
"214 542 LINE",
"214 542 OFFCURVE",
"278 543 OFFCURVE",
"335 542 CURVE",
"463 540 OFFCURVE",
"526 479 OFFCURVE",
"526 382 CURVE",
"526 285 OFFCURVE",
"484 209 OFFCURVE",
"331 206 CURVE",
"301 206 OFFCURVE",
"214 206 OFFCURVE",
"214 206 CURVE",
"214 178 LINE"
);
}
);
width = 668;
},
{
associatedMasterId = "BE1754C0-A605-45AC-AA12-D3A1FC0C380B";
layerId = "D4F92898-FE9E-4031-93CC-4B24C74A170D";
name = D;
paths = (
{
closed = 1;
nodes = (
"365 0 LINE SMOOTH",
"371 0 OFFCURVE",
"373 5 OFFCURVE",
"373 13 CURVE SMOOTH",
"373 20 OFFCURVE",
"372 26 OFFCURVE",
"365 26 CURVE SMOOTH",
"352 26 LINE SMOOTH",
"304 26 OFFCURVE",
"267 38 OFFCURVE",
"267 100 CURVE SMOOTH",
"268 632 LINE SMOOTH",
"268 694 OFFCURVE",
"303 706 OFFCURVE",
"352 706 CURVE SMOOTH",
"365 706 LINE SMOOTH",
"371 706 OFFCURVE",
"373 712 OFFCURVE",
"373 720 CURVE SMOOTH",
"373 727 OFFCURVE",
"372 733 OFFCURVE",
"365 733 CURVE SMOOTH",
"55 733 LINE SMOOTH",
"49 733 OFFCURVE",
"48 727 OFFCURVE",
"48 720 CURVE SMOOTH",
"48 712 OFFCURVE",
"49 706 OFFCURVE",
"55 706 CURVE SMOOTH",
"68 706 LINE SMOOTH",
"115 706 OFFCURVE",
"153 694 OFFCURVE",
"153 632 CURVE SMOOTH",
"153 100 LINE SMOOTH",
"153 39 OFFCURVE",
"117 26 OFFCURVE",
"68 26 CURVE SMOOTH",
"55 26 LINE SMOOTH",
"49 26 OFFCURVE",
"48 20 OFFCURVE",
"48 13 CURVE SMOOTH",
"48 5 OFFCURVE",
"49 0 OFFCURVE",
"55 0 CURVE SMOOTH"
);
},
{
closed = 1;
nodes = (
"227 179 OFFCURVE",
"315 176 OFFCURVE",
"382 179 CURVE",
"495 184 OFFCURVE",
"657 222 OFFCURVE",
"657 380 CURVE",
"657 501 OFFCURVE",
"533 568 OFFCURVE",
"404 573 CURVE",
"288 578 OFFCURVE",
"227 573 OFFCURVE",
"227 573 CURVE",
"227 545 LINE",
"227 545 OFFCURVE",
"286 547 OFFCURVE",
"349 544 CURVE",
"466 541 OFFCURVE",
"530 481 OFFCURVE",
"530 384 CURVE",
"530 286 OFFCURVE",
"490 210 OFFCURVE",
"343 207 CURVE",
"306 206 OFFCURVE",
"227 207 OFFCURVE",
"227 207 CURVE",
"227 179 LINE"
);
}
);
width = 687;
},
{
associatedMasterId = "BE1754C0-A605-45AC-AA12-D3A1FC0C380B";
layerId = "674859A0-EBFE-4816-8CD7-51AEBE2383D6";
name = B;
paths = (
{
closed = 1;
nodes = (
"377 0 LINE SMOOTH",
"383 0 OFFCURVE",
"385 6 OFFCURVE",
"385 13 CURVE SMOOTH",
"385 19 OFFCURVE",
"384 24 OFFCURVE",
"377 24 CURVE SMOOTH",
"365 24 LINE SMOOTH",
"323 24 OFFCURVE",
"280 35 OFFCURVE",
"280 104 CURVE SMOOTH",
"282 632 LINE SMOOTH",
"282 701 OFFCURVE",
"321 712 OFFCURVE",
"365 712 CURVE SMOOTH",
"377 712 LINE SMOOTH",
"383 712 OFFCURVE",
"385 718 OFFCURVE",
"385 725 CURVE SMOOTH",
"385 730 OFFCURVE",
"384 736 OFFCURVE",
"377 736 CURVE SMOOTH",
"52 736 LINE SMOOTH",
"47 736 OFFCURVE",
"45 730 OFFCURVE",
"45 725 CURVE SMOOTH",
"45 718 OFFCURVE",
"47 712 OFFCURVE",
"52 712 CURVE SMOOTH",
"65 712 LINE SMOOTH",
"107 712 OFFCURVE",
"149 701 OFFCURVE",
"149 632 CURVE SMOOTH",
"148 104 LINE SMOOTH",
"148 37 OFFCURVE",
"107 24 OFFCURVE",
"65 24 CURVE SMOOTH",
"52 24 LINE SMOOTH",
"47 24 OFFCURVE",
"45 19 OFFCURVE",
"45 13 CURVE SMOOTH",
"45 6 OFFCURVE",
"47 0 OFFCURVE",
"52 0 CURVE SMOOTH"
);
},
{
closed = 1;
nodes = (
"241 179 OFFCURVE",
"315 177 OFFCURVE",
"396 179 CURVE",
"508 184 OFFCURVE",
"678 227 OFFCURVE",
"678 381 CURVE",
"678 504 OFFCURVE",
"550 568 OFFCURVE",
"418 576 CURVE",
"305 581 OFFCURVE",
"241 575 OFFCURVE",
"241 575 CURVE",
"241 547 LINE",
"241 547 OFFCURVE",
"293 550 OFFCURVE",
"362 547 CURVE",
"470 543 OFFCURVE",
"535 484 OFFCURVE",
"535 385 CURVE",
"535 288 OFFCURVE",
"497 212 OFFCURVE",
"356 207 CURVE",
"312 207 OFFCURVE",
"241 207 OFFCURVE",
"241 207 CURVE",
"241 179 LINE"
);
}
);
width = 707;
}
);
unicode = 00DE;
},
{
glyphname = Q;
lastChange = "2020-06-25 13:58:55 +0000";
layers = (
{
layerId = "BE1754C0-A605-45AC-AA12-D3A1FC0C380B";
paths = (
{
closed = 1;
nodes = (
"675 -75 OFFCURVE",
"845 69 OFFCURVE",
"845 355 CURVE SMOOTH",
"845 641 OFFCURVE",
"705 815 OFFCURVE",
"430 811 CURVE SMOOTH",
"164 807 OFFCURVE",
"42 560 OFFCURVE",
"42 365 CURVE SMOOTH",
"42 109 OFFCURVE",
"194 -75 OFFCURVE",
"436 -75 CURVE SMOOTH"
);
},
{
closed = 1;
nodes = (
"862 45 LINE",
"731 99 OFFCURVE",
"586 247 OFFCURVE",
"546 350 CURVE",
"403 288 LINE",
"480 141 OFFCURVE",
"606 0 OFFCURVE",
"767 -77 CURVE"
);
},
{
closed = 1;
nodes = (
"334 78 OFFCURVE",
"193 158 OFFCURVE",
"193 345 CURVE SMOOTH",
"193 533 OFFCURVE",
"280 652 OFFCURVE",
"427 656 CURVE SMOOTH",
"528 659 OFFCURVE",
"693 628 OFFCURVE",
"693 365 CURVE SMOOTH",
"693 102 OFFCURVE",
"540 78 OFFCURVE",
"436 78 CURVE SMOOTH"
);
}
);
width = 910;
}
);
unicode = 0051;
},
{
glyphname = R;
lastChange = "2020-08-16 10:04:41 +0000";
layers = (
{
layerId = "BE1754C0-A605-45AC-AA12-D3A1FC0C380B";
paths = (
{
closed = 1;
nodes = (
"547 287 OFFCURVE",
"771 337 OFFCURVE",
"771 564 CURVE SMOOTH",
"771 750 OFFCURVE",
"633 810 OFFCURVE",
"445 810 CURVE SMOOTH",
"324 810 OFFCURVE",
"182 786 OFFCURVE",
"44 754 CURVE",
"92 608 LINE",
"174 631 OFFCURVE",
"319 664 OFFCURVE",
"436 664 CURVE SMOOTH",
"579 664 OFFCURVE",
"615 616 OFFCURVE",
"615 558 CURVE SMOOTH",
"615 404 OFFCURVE",
"327 415 OFFCURVE",
"234 415 CURVE",
"242 291 LINE",
"275 288 OFFCURVE",
"310 287 OFFCURVE",
"346 287 CURVE SMOOTH"
);
},
{
closed = 1;
nodes = (
"174 -72 OFFCURVE",
"236 -72 OFFCURVE",
"287 -72 CURVE",
"287 213 OFFCURVE",
"291 454 OFFCURVE",
"315 742 CURVE",
"167 735 LINE",
"130 475 OFFCURVE",
"117 131 OFFCURVE",
"127 -76 CURVE"
);
},
{
closed = 1;
nodes = (
"832 68 LINE",
"669 127 OFFCURVE",
"511 216 OFFCURVE",
"357 377 CURVE",
"219 306 LINE",
"279 239 OFFCURVE",
"535 5 OFFCURVE",
"729 -68 CURVE"
);
}
);
width = 870;
}
);
unicode = 0052;
},
{
glyphname = S;
lastChange = "2020-08-16 10:04:41 +0000";
layers = (
{
layerId = "BE1754C0-A605-45AC-AA12-D3A1FC0C380B";
paths = (
{
closed = 1;
nodes = (
"685 -81 OFFCURVE",
"745 77 OFFCURVE",
"745 176 CURVE SMOOTH",
"745 297 OFFCURVE",
"653 358 OFFCURVE",
"581 397 CURVE SMOOTH",
"501 441 OFFCURVE",
"368 483 OFFCURVE",
"319 505 CURVE SMOOTH",
"253 533 OFFCURVE",
"243 561 OFFCURVE",
"244 587 CURVE SMOOTH",
"245 612 OFFCURVE",
"275 660 OFFCURVE",
"396 660 CURVE SMOOTH",
"506 660 OFFCURVE",
"588 611 OFFCURVE",
"650 552 CURVE",
"736 695 LINE",
"662 755 OFFCURVE",
"551 815 OFFCURVE",
"385 815 CURVE SMOOTH",
"178 815 OFFCURVE",
"90 692 OFFCURVE",
"90 572 CURVE SMOOTH",
"90 446 OFFCURVE",
"186 392 OFFCURVE",
"237 369 CURVE SMOOTH",
"290 345 OFFCURVE",
"454 286 OFFCURVE",
"486 269 CURVE SMOOTH",
"517 252 OFFCURVE",
"588 226 OFFCURVE",
"588 163 CURVE SMOOTH",
"588 101 OFFCURVE",
"514 74 OFFCURVE",
"433 74 CURVE SMOOTH",
"312 74 OFFCURVE",
"178 155 OFFCURVE",
"135 241 CURVE",
"44 96 LINE",
"130 0 OFFCURVE",
"261 -81 OFFCURVE",
"428 -81 CURVE SMOOTH"
);
}
);
width = 789;
}
);
unicode = 0053;
},
{
glyphname = T;
lastChange = "2020-07-01 23:17:56 +0000";
layers = (
{
layerId = "BE1754C0-A605-45AC-AA12-D3A1FC0C380B";
paths = (
{
closed = 1;
nodes = (
"271 655 OFFCURVE",
"613 666 OFFCURVE",
"846 633 CURVE",
"847 792 LINE",
"584 819 OFFCURVE",
"299 813 OFFCURVE",
"38 769 CURVE",
"36 615 LINE"
);
},
{
closed = 1;
nodes = (
"525 -70 LINE",
"498 252 OFFCURVE",
"511 529 OFFCURVE",
"527 705 CURVE",
"364 695 LINE",
"354 557 OFFCURVE",
"329 278 OFFCURVE",
"356 -75 CURVE"
);
}
);
width = 883;
}
);
unicode = 0054;
},
{
glyphname = U;
lastChange = "2020-05-29 06:46:14 +0000";
layers = (
{
layerId = "BE1754C0-A605-45AC-AA12-D3A1FC0C380B";
paths = (
{
closed = 1;
nodes = (
"723 -79 OFFCURVE",
"759 177 OFFCURVE",
"759 487 CURVE SMOOTH",
"759 576 OFFCURVE",
"754 681 OFFCURVE",
"743 808 CURVE",
"571 794 LINE",
"581 675 OFFCURVE",
"589 573 OFFCURVE",
"589 460 CURVE SMOOTH",
"589 307 OFFCURVE",
"589 75 OFFCURVE",
"406 75 CURVE SMOOTH",
"235 75 OFFCURVE",
"235 306 OFFCURVE",
"235 449 CURVE SMOOTH",
"235 557 OFFCURVE",
"239 648 OFFCURVE",
"259 792 CURVE",
"88 803 LINE",
"78 721 OFFCURVE",
"69 597 OFFCURVE",
"69 474 CURVE SMOOTH",
"69 194 OFFCURVE",
"95 -79 OFFCURVE",
"413 -79 CURVE SMOOTH"
);
}
);
width = 828;
}
);
unicode = 0055;
},
{
glyphname = V;
lastChange = "2020-08-16 10:04:43 +0000";
layers = (
{
layerId = "BE1754C0-A605-45AC-AA12-D3A1FC0C380B";
paths = (
{
closed = 1;
nodes = (
"482 -81 OFFCURVE",
"540 -32 OFFCURVE",
"594 69 CURVE SMOOTH",
"671 211 OFFCURVE",
"772 464 OFFCURVE",
"864 785 CURVE",
"698 816 LINE",
"623 539 OFFCURVE",
"531 289 OFFCURVE",
"464 166 CURVE SMOOTH",
"447 135 OFFCURVE",
"438 120 OFFCURVE",
"427 120 CURVE SMOOTH",
"418 120 OFFCURVE",
"407 137 OFFCURVE",
"394 162 CURVE SMOOTH",
"328 289 OFFCURVE",
"249 541 OFFCURVE",
"192 814 CURVE",
"23 791 LINE",
"95 480 OFFCURVE",
"164 235 OFFCURVE",
"255 69 CURVE SMOOTH",
"295 -5 OFFCURVE",
"350 -81 OFFCURVE",
"419 -81 CURVE SMOOTH"
);
}
);
width = 888;
}
);
unicode = 0056;
},
{
glyphname = W;
lastChange = "2020-08-16 10:04:41 +0000";
layers = (
{
layerId = "BE1754C0-A605-45AC-AA12-D3A1FC0C380B";
paths = (
{
closed = 1;
nodes = (
"736 -80 OFFCURVE",
"792 -3 OFFCURVE",
"827 122 CURVE SMOOTH",
"865 257 OFFCURVE",
"925 576 OFFCURVE",
"941 799 CURVE",
"777 799 LINE",
"758 584 OFFCURVE",
"723 331 OFFCURVE",
"690 214 CURVE SMOOTH",
"681 182 OFFCURVE",
"677 167 OFFCURVE",
"674 167 CURVE SMOOTH",
"670 167 OFFCURVE",
"667 181 OFFCURVE",
"661 204 CURVE SMOOTH",
"632 314 OFFCURVE",
"593 480 OFFCURVE",
"575 786 CURVE",
"409 785 LINE",
"422 564 OFFCURVE",
"486 214 OFFCURVE",
"526 98 CURVE SMOOTH",
"570 -28 OFFCURVE",
"611 -80 OFFCURVE",
"675 -80 CURVE SMOOTH"
);
},
{
closed = 1;
nodes = (
"361 -81 OFFCURVE",
"390 -39 OFFCURVE",
"426 71 CURVE SMOOTH",
"464 186 OFFCURVE",
"539 541 OFFCURVE",
"565 785 CURVE",
"411 785 LINE",
"393 544 OFFCURVE",
"347 314 OFFCURVE",
"315 204 CURVE SMOOTH",
"307 177 OFFCURVE",
"303 163 OFFCURVE",
"298 163 CURVE SMOOTH",
"293 163 OFFCURVE",
"289 173 OFFCURVE",
"283 192 CURVE SMOOTH",
"251 300 OFFCURVE",
"213 554 OFFCURVE",
"201 805 CURVE",
"41 797 LINE",
"56 507 OFFCURVE",
"99 270 OFFCURVE",
"139 128 CURVE SMOOTH",
"175 -1 OFFCURVE",
"238 -81 OFFCURVE",
"299 -81 CURVE SMOOTH"
);
}
);
width = 978;
}
);
unicode = 0057;
},
{
glyphname = X;
lastChange = "2020-07-01 23:17:28 +0000";
layers = (
{
layerId = "BE1754C0-A605-45AC-AA12-D3A1FC0C380B";
paths = (
{
closed = 1;
nodes = (
"890 41 LINE",
"708 252 OFFCURVE",
"321 662 OFFCURVE",
"171 811 CURVE",
"51 698 LINE",
"202 546 OFFCURVE",
"582 164 OFFCURVE",
"762 -78 CURVE"
);
},
{
closed = 1;
nodes = (
"321 128 OFFCURVE",
"677 508 OFFCURVE",
"882 686 CURVE",
"766 804 LINE",
"548 615 OFFCURVE",
"199 222 OFFCURVE",
"49 38 CURVE",
"166 -82 LINE"
);
}
);
width = 936;
}
);
unicode = 0058;
},
{
glyphname = Y;
lastChange = "2020-06-25 13:56:27 +0000";
layers = (
{
layerId = "BE1754C0-A605-45AC-AA12-D3A1FC0C380B";
paths = (
{
closed = 1;
nodes = (
"641 278 OFFCURVE",
"796 579 OFFCURVE",
"887 759 CURVE",
"732 818 LINE",
"693 715 OFFCURVE",
"534 437 OFFCURVE",
"468 437 CURVE SMOOTH",
"412 437 OFFCURVE",
"251 673 OFFCURVE",
"195 813 CURVE",
"42 751 LINE",
"125 576 OFFCURVE",
"297 278 OFFCURVE",
"471 278 CURVE SMOOTH"
);
},
{
closed = 1;
nodes = (
"386 -72 OFFCURVE",
"498 -69 OFFCURVE",
"552 -69 CURVE",
"549 54 OFFCURVE",
"544 282 OFFCURVE",
"556 385 CURVE",
"394 383 LINE",
"383 233 OFFCURVE",
"383 49 OFFCURVE",
"386 -72 CURVE"
);
}
);
width = 929;
}
);
unicode = 0059;
},
{
glyphname = Z;
lastChange = "2020-05-11 05:48:41 +0000";
layers = (
{
layerId = "BE1754C0-A605-45AC-AA12-D3A1FC0C380B";
paths = (
{
closed = 1;
nodes = (
"206 -9 OFFCURVE",
"532 268 OFFCURVE",
"736 568 CURVE SMOOTH",
"769 617 OFFCURVE",
"791 666 OFFCURVE",
"791 706 CURVE SMOOTH",
"791 804 OFFCURVE",
"676 810 OFFCURVE",
"585 810 CURVE SMOOTH",
"445 810 OFFCURVE",
"241 797 OFFCURVE",
"60 772 CURVE",
"79 610 LINE",
"271 639 OFFCURVE",
"505 654 OFFCURVE",
"561 654 CURVE SMOOTH",
"585 654 OFFCURVE",
"595 654 OFFCURVE",
"595 647 CURVE SMOOTH",
"595 643 OFFCURVE",
"590 636 OFFCURVE",
"581 622 CURVE SMOOTH",
"561 592 OFFCURVE",
"340 288 OFFCURVE",
"65 60 CURVE",
"206 -9 LINE"
);
},
{
closed = 1;
nodes = (
"298 -44 OFFCURVE",
"585 -43 OFFCURVE",
"784 -70 CURVE",
"811 89 LINE",
"624 120 OFFCURVE",
"271 121 OFFCURVE",
"48 62 CURVE",
"66 23 OFFCURVE",
"95 -43 OFFCURVE",
"103 -78 CURVE"
);
}
);
width = 859;
}
);
unicode = 005A;
},
{
glyphname = a;
lastChange = "2020-08-27 14:30:06 +0000";
layers = (
{
layerId = "BE1754C0-A605-45AC-AA12-D3A1FC0C380B";
paths = (
{
closed = 1;
nodes = (
"412 -78 OFFCURVE",
"515 -43 OFFCURVE",
"570 110 CURVE",
"501 273 LINE",
"473 155 OFFCURVE",
"422 74 OFFCURVE",
"321 74 CURVE SMOOTH",
"249 74 OFFCURVE",
"191 115 OFFCURVE",
"183 188 CURVE SMOOTH",
"163 374 OFFCURVE",
"377 448 OFFCURVE",
"526 349 CURVE",
"577 488 LINE",
"325 630 OFFCURVE",
"14 478 OFFCURVE",
"33 184 CURVE SMOOTH",
"43 31 OFFCURVE",
"160 -78 OFFCURVE",
"298 -78 CURVE SMOOTH"
);
},
{
closed = 1;
nodes = (
"711 82 LINE",
"636 79 OFFCURVE",
"627 154 OFFCURVE",
"627 220 CURVE SMOOTH",
"627 317 OFFCURVE",
"642 480 OFFCURVE",
"662 541 CURVE",
"504 567 LINE",
"489 474 OFFCURVE",
"472 340 OFFCURVE",
"472 221 CURVE SMOOTH",
"472 63 OFFCURVE",
"510 -76 OFFCURVE",
"689 -80 CURVE"
);
}
);
width = 729;
}
);
unicode = 0061;
},
{
glyphname = ae;
lastChange = "2020-08-19 14:14:58 +0000";
layers = (
{
layerId = "BE1754C0-A605-45AC-AA12-D3A1FC0C380B";
paths = (
{
closed = 1;
nodes = (
"385 -81 OFFCURVE",
"586 49 OFFCURVE",
"586 318 CURVE SMOOTH",
"586 456 OFFCURVE",
"485 551 OFFCURVE",
"318 551 CURVE SMOOTH",
"193 551 OFFCURVE",
"71 491 OFFCURVE",
"0 428 CURVE",
"80 299 LINE",
"142 351 OFFCURVE",
"249 407 OFFCURVE",
"330 407 CURVE SMOOTH",
"407 407 OFFCURVE",
"433 370 OFFCURVE",
"433 308 CURVE SMOOTH",
"433 243 OFFCURVE",
"405 152 OFFCURVE",
"331 104 CURVE SMOOTH",
"292 78 OFFCURVE",
"251 67 OFFCURVE",
"219 67 CURVE SMOOTH",
"183 67 OFFCURVE",
"157 81 OFFCURVE",
"157 104 CURVE SMOOTH",
"157 143 OFFCURVE",
"233 210 OFFCURVE",
"350 210 CURVE SMOOTH",
"386 210 OFFCURVE",
"426 204 OFFCURVE",
"468 189 CURVE",
"506 324 LINE",
"480 335 OFFCURVE",
"422 347 OFFCURVE",
"369 347 CURVE SMOOTH",
"208 347 OFFCURVE",
"7 287 OFFCURVE",
"7 94 CURVE SMOOTH",
"7 -34 OFFCURVE",
"118 -81 OFFCURVE",
"226 -81 CURVE SMOOTH"
);
},
{
closed = 1;
nodes = (
"869 -80 OFFCURVE",
"940 -7 OFFCURVE",
"998 53 CURVE",
"902 179 LINE",
"852 125 OFFCURVE",
"790 74 OFFCURVE",
"717 74 CURVE SMOOTH",
"645 74 OFFCURVE",
"575 108 OFFCURVE",
"575 209 CURVE SMOOTH",
"575 255 OFFCURVE",
"589 397 OFFCURVE",
"725 397 CURVE SMOOTH",
"802 397 OFFCURVE",
"816 370 OFFCURVE",
"816 351 CURVE SMOOTH",
"816 309 OFFCURVE",
"678 296 OFFCURVE",
"642 296 CURVE SMOOTH",
"602 296 OFFCURVE",
"560 300 OFFCURVE",
"520 311 CURVE",
"503 178 LINE",
"539 167 OFFCURVE",
"604 150 OFFCURVE",
"687 150 CURVE SMOOTH",
"866 150 OFFCURVE",
"969 243 OFFCURVE",
"969 370 CURVE SMOOTH",
"969 423 OFFCURVE",
"933 552 OFFCURVE",
"729 552 CURVE SMOOTH",
"501 552 OFFCURVE",
"425 364 OFFCURVE",
"425 221 CURVE SMOOTH",
"425 42 OFFCURVE",
"546 -80 OFFCURVE",
"708 -80 CURVE SMOOTH"
);
}
);
width = 1000;
},
{
associatedMasterId = "BE1754C0-A605-45AC-AA12-D3A1FC0C380B";
layerId = "3FC96813-E7C5-45AC-9F0B-5DBEB42CEC4B";
name = E;
paths = (
{
closed = 1;
nodes = (
"724 -13 OFFCURVE",
"789 59 OFFCURVE",
"814 112 CURVE SMOOTH",
"818 120 OFFCURVE",
"815 125 OFFCURVE",
"809 128 CURVE SMOOTH",
"804 131 OFFCURVE",
"798 132 OFFCURVE",
"794 125 CURVE SMOOTH",
"753 65 OFFCURVE",
"699 37 OFFCURVE",
"641 37 CURVE SMOOTH",
"561 42 OFFCURVE",
"490 92 OFFCURVE",
"488 236 CURVE SMOOTH",
"485 374 OFFCURVE",
"526 459 OFFCURVE",
"593 461 CURVE SMOOTH",
"643 464 OFFCURVE",
"688 416 OFFCURVE",
"689 335 CURVE SMOOTH",
"689 329 OFFCURVE",
"688 323 OFFCURVE",
"688 317 CURVE",
"427 315 LINE",
"424 286 LINE",
"821 288 LINE",
"807 422 OFFCURVE",
"710 498 OFFCURVE",
"599 498 CURVE SMOOTH",
"439 498 OFFCURVE",
"346 359 OFFCURVE",
"349 234 CURVE SMOOTH",
"352 84 OFFCURVE",
"479 -13 OFFCURVE",
"612 -13 CURVE SMOOTH"
);
},
{
closed = 1;
nodes = (
"260 -15 OFFCURVE",
"360 30 OFFCURVE",
"412 118 CURVE",
"411 166 LINE",
"380 80 OFFCURVE",
"309 42 OFFCURVE",
"254 42 CURVE SMOOTH",
"211 42 OFFCURVE",
"177 64 OFFCURVE",
"176 104 CURVE SMOOTH",
"175 180 OFFCURVE",
"241 233 OFFCURVE",
"406 262 CURVE",
"405 292 LINE",
"297 253 OFFCURVE",
"200 256 OFFCURVE",
"130 220 CURVE SMOOTH",
"81 195 OFFCURVE",
"42 159 OFFCURVE",
"42 97 CURVE SMOOTH",
"42 27 OFFCURVE",
"93 -15 OFFCURVE",
"177 -15 CURVE SMOOTH"
);
},
{
closed = 1;
nodes = (
"481 337 LINE",
"481 345 OFFCURVE",
"476 410 OFFCURVE",
"450 438 CURVE SMOOTH",
"420 471 OFFCURVE",
"370 498 OFFCURVE",
"277 498 CURVE SMOOTH",
"91 498 OFFCURVE",
"69 395 OFFCURVE",
"69 371 CURVE SMOOTH",
"69 337 OFFCURVE",
"97 316 OFFCURVE",
"132 316 CURVE SMOOTH",
"163 316 OFFCURVE",
"192 337 OFFCURVE",
"205 389 CURVE SMOOTH",
"219 449 OFFCURVE",
"241 471 OFFCURVE",
"272 472 CURVE SMOOTH",
"296 474 OFFCURVE",
"317 468 OFFCURVE",
"332 449 CURVE SMOOTH",
"349 425 OFFCURVE",
"350 397 OFFCURVE",
"350 322 CURVE SMOOTH",
"350 278 OFFCURVE",
"348 235 OFFCURVE",
"348 224 CURVE"
);
}
);
width = 859;
},
{
associatedMasterId = "BE1754C0-A605-45AC-AA12-D3A1FC0C380B";
layerId = "56DC1C81-F651-46E9-87C8-388DC3C1949A";
name = "new Layer";
paths = (
{
closed = 1;
nodes = (
"748 -12 OFFCURVE",
"819 63 OFFCURVE",
"846 116 CURVE SMOOTH",
"850 124 OFFCURVE",
"843 127 OFFCURVE",
"838 129 CURVE SMOOTH",
"831 132 OFFCURVE",
"828 127 OFFCURVE",
"826 125 CURVE SMOOTH",
"775 50 OFFCURVE",
"715 40 OFFCURVE",
"680 40 CURVE SMOOTH",
"611 51 OFFCURVE",
"559 89 OFFCURVE",
"554 233 CURVE SMOOTH",
"547 375 OFFCURVE",
"564 465 OFFCURVE",
"616 470 CURVE SMOOTH",
"656 476 OFFCURVE",
"688 410 OFFCURVE",
"683 340 CURVE SMOOTH",
"683 333 OFFCURVE",
"681 325 OFFCURVE",
"681 318 CURVE",
"446 316 LINE",
"443 291 LINE",
"860 293 LINE",
"846 431 OFFCURVE",
"724 508 OFFCURVE",
"622 508 CURVE SMOOTH",
"454 508 OFFCURVE",
"337 371 OFFCURVE",
"344 241 CURVE SMOOTH",
"351 89 OFFCURVE",
"501 -12 OFFCURVE",
"633 -12 CURVE SMOOTH"
);
},
{
closed = 1;
nodes = (
"263 -16 OFFCURVE",
"378 37 OFFCURVE",
"436 136 CURVE",
"434 165 LINE",
"398 86 OFFCURVE",
"342 57 OFFCURVE",
"299 57 CURVE SMOOTH",
"261 57 OFFCURVE",
"232 77 OFFCURVE",
"230 108 CURVE SMOOTH",
"227 180 OFFCURVE",
"249 254 OFFCURVE",
"425 285 CURVE",
"428 306 LINE",
"292 251 OFFCURVE",
"235 288 OFFCURVE",
"143 249 CURVE SMOOTH",
"84 225 OFFCURVE",
"29 181 OFFCURVE",
"29 109 CURVE SMOOTH",
"29 36 OFFCURVE",
"70 -16 OFFCURVE",
"171 -16 CURVE SMOOTH"
);
},
{
closed = 1;
nodes = (
"547 335 LINE",
"546 306 OFFCURVE",
"541 415 OFFCURVE",
"510 441 CURVE SMOOTH",
"470 477 OFFCURVE",
"433 508 OFFCURVE",
"299 508 CURVE SMOOTH",
"94 508 OFFCURVE",
"65 390 OFFCURVE",
"65 358 CURVE SMOOTH",
"65 307 OFFCURVE",
"106 287 OFFCURVE",
"148 287 CURVE SMOOTH",
"194 287 OFFCURVE",
"236 317 OFFCURVE",
"251 392 CURVE SMOOTH",
"265 469 OFFCURVE",
"287 482 OFFCURVE",
"293 485 CURVE SMOOTH",
"304 489 OFFCURVE",
"318 487 OFFCURVE",
"333 466 CURVE SMOOTH",
"347 443 OFFCURVE",
"343 413 OFFCURVE",
"343 323 CURVE SMOOTH",
"343 317 OFFCURVE",
"343 205 OFFCURVE",
"342 214 CURVE"
);
}
);
width = 875;
},
{
associatedMasterId = "BE1754C0-A605-45AC-AA12-D3A1FC0C380B";
layerId = "B1A4DE2A-A433-45B8-A685-0F6164F66E71";
name = M;
paths = (
{
closed = 1;
nodes = (
"710 -14 OFFCURVE",
"771 57 OFFCURVE",
"795 110 CURVE SMOOTH",
"799 118 OFFCURVE",
"799 124 OFFCURVE",
"792 127 CURVE SMOOTH",
"788 130 OFFCURVE",
"780 135 OFFCURVE",
"775 125 CURVE SMOOTH",
"740 74 OFFCURVE",
"689 36 OFFCURVE",
"618 36 CURVE SMOOTH",
"531 37 OFFCURVE",
"449 94 OFFCURVE",
"448 238 CURVE SMOOTH",
"448 373 OFFCURVE",
"504 455 OFFCURVE",
"580 456 CURVE SMOOTH",
"636 457 OFFCURVE",
"688 420 OFFCURVE",
"693 332 CURVE SMOOTH",
"693 327 OFFCURVE",
"693 322 OFFCURVE",
"693 316 CURVE",
"416 314 LINE",
"413 283 LINE",
"798 285 LINE",
"784 417 OFFCURVE",
"702 492 OFFCURVE",
"586 492 CURVE SMOOTH",
"430 492 OFFCURVE",
"351 352 OFFCURVE",
"352 230 CURVE SMOOTH",
"353 81 OFFCURVE",
"466 -14 OFFCURVE",
"599 -14 CURVE SMOOTH"
);
},
{
closed = 1;
nodes = (
"259 -14 OFFCURVE",
"350 26 OFFCURVE",
"398 108 CURVE",
"398 167 LINE",
"370 76 OFFCURVE",
"290 33 OFFCURVE",
"227 33 CURVE SMOOTH",
"181 33 OFFCURVE",
"144 57 OFFCURVE",
"144 102 CURVE SMOOTH",
"144 180 OFFCURVE",
"237 220 OFFCURVE",
"395 249 CURVE",
"392 284 LINE",
"300 255 OFFCURVE",
"179 237 OFFCURVE",
"123 203 CURVE SMOOTH",
"80 177 OFFCURVE",
"50 146 OFFCURVE",
"50 90 CURVE SMOOTH",
"50 22 OFFCURVE",
"107 -14 OFFCURVE",
"181 -14 CURVE SMOOTH"
);
},
{
closed = 1;
nodes = (
"441 339 LINE",
"442 368 OFFCURVE",
"437 407 OFFCURVE",
"414 437 CURVE SMOOTH",
"390 467 OFFCURVE",
"333 492 OFFCURVE",
"264 492 CURVE SMOOTH",
"90 492 OFFCURVE",
"71 398 OFFCURVE",
"71 379 CURVE SMOOTH",
"71 355 OFFCURVE",
"92 333 OFFCURVE",
"122 333 CURVE SMOOTH",
"144 333 OFFCURVE",
"166 349 OFFCURVE",
"177 388 CURVE SMOOTH",
"191 437 OFFCURVE",
"213 464 OFFCURVE",
"259 465 CURVE SMOOTH",
"292 465 OFFCURVE",
"316 457 OFFCURVE",
"331 439 CURVE SMOOTH",
"351 415 OFFCURVE",
"355 387 OFFCURVE",
"355 321 CURVE SMOOTH",
"355 255 OFFCURVE",
"351 253 OFFCURVE",
"352 230 CURVE"
);
}
);
width = 849;
},
{
associatedMasterId = "BE1754C0-A605-45AC-AA12-D3A1FC0C380B";
layerId = "D4F92898-FE9E-4031-93CC-4B24C74A170D";
name = D;
paths = (
{
closed = 1;
nodes = (
"715 -14 OFFCURVE",
"777 58 OFFCURVE",
"801 111 CURVE SMOOTH",
"805 119 OFFCURVE",
"804 124 OFFCURVE",
"798 127 CURVE SMOOTH",
"793 130 OFFCURVE",
"786 134 OFFCURVE",
"781 125 CURVE SMOOTH",
"744 71 OFFCURVE",
"692 36 OFFCURVE",
"626 36 CURVE SMOOTH",
"541 39 OFFCURVE",
"463 93 OFFCURVE",
"461 237 CURVE SMOOTH",
"460 373 OFFCURVE",
"511 456 OFFCURVE",
"584 458 CURVE SMOOTH",
"638 459 OFFCURVE",
"688 419 OFFCURVE",
"692 333 CURVE SMOOTH",
"692 328 OFFCURVE",
"691 322 OFFCURVE",
"691 316 CURVE",
"420 314 LINE",
"417 284 LINE",
"806 286 LINE",
"792 419 OFFCURVE",
"705 494 OFFCURVE",
"590 494 CURVE SMOOTH",
"433 494 OFFCURVE",
"349 354 OFFCURVE",
"351 231 CURVE SMOOTH",
"353 82 OFFCURVE",
"470 -14 OFFCURVE",
"603 -14 CURVE SMOOTH"
);
},
{
closed = 1;
nodes = (
"259 -14 OFFCURVE",
"353 27 OFFCURVE",
"403 111 CURVE",
"402 167 LINE",
"373 77 OFFCURVE",
"296 36 OFFCURVE",
"236 36 CURVE SMOOTH",
"191 36 OFFCURVE",
"155 59 OFFCURVE",
"155 103 CURVE SMOOTH",
"154 180 OFFCURVE",
"238 224 OFFCURVE",
"399 253 CURVE",
"396 287 LINE",
"299 254 OFFCURVE",
"186 243 OFFCURVE",
"125 209 CURVE SMOOTH",
"80 183 OFFCURVE",
"47 150 OFFCURVE",
"47 92 CURVE SMOOTH",
"47 24 OFFCURVE",
"102 -14 OFFCURVE",
"180 -14 CURVE SMOOTH"
);
},
{
closed = 1;
nodes = (
"454 338 LINE",
"455 360 OFFCURVE",
"450 408 OFFCURVE",
"426 437 CURVE SMOOTH",
"400 468 OFFCURVE",
"345 494 OFFCURVE",
"268 494 CURVE SMOOTH",
"90 494 OFFCURVE",
"70 397 OFFCURVE",
"70 376 CURVE SMOOTH",
"70 349 OFFCURVE",
"94 327 OFFCURVE",
"125 327 CURVE SMOOTH",
"150 327 OFFCURVE",
"175 345 OFFCURVE",
"186 388 CURVE SMOOTH",
"200 441 OFFCURVE",
"222 466 OFFCURVE",
"263 467 CURVE SMOOTH",
"293 468 OFFCURVE",
"316 461 OFFCURVE",
"331 442 CURVE SMOOTH",
"350 418 OFFCURVE",
"353 390 OFFCURVE",
"353 321 CURVE SMOOTH",
"353 263 OFFCURVE",
"350 247 OFFCURVE",
"351 228 CURVE"
);
}
);
width = 852;
},
{
associatedMasterId = "BE1754C0-A605-45AC-AA12-D3A1FC0C380B";
layerId = "674859A0-EBFE-4816-8CD7-51AEBE2383D6";
name = B;
paths = (
{
closed = 1;
nodes = (
"719 -13 OFFCURVE",
"783 58 OFFCURVE",
"808 111 CURVE SMOOTH",
"812 119 OFFCURVE",
"810 125 OFFCURVE",
"803 128 CURVE SMOOTH",
"799 131 OFFCURVE",
"792 133 OFFCURVE",
"788 125 CURVE SMOOTH",
"749 68 OFFCURVE",
"696 37 OFFCURVE",
"633 37 CURVE SMOOTH",
"551 40 OFFCURVE",
"476 93 OFFCURVE",
"475 237 CURVE SMOOTH",
"473 374 OFFCURVE",
"519 458 OFFCURVE",
"589 459 CURVE SMOOTH",
"641 462 OFFCURVE",
"688 417 OFFCURVE",
"690 334 CURVE SMOOTH",
"690 328 OFFCURVE",
"690 323 OFFCURVE",
"690 317 CURVE",
"423 315 LINE",
"420 285 LINE",
"813 287 LINE",
"799 420 OFFCURVE",
"707 496 OFFCURVE",
"595 496 CURVE SMOOTH",
"436 496 OFFCURVE",
"348 357 OFFCURVE",
"350 233 CURVE SMOOTH",
"352 83 OFFCURVE",
"475 -13 OFFCURVE",
"608 -13 CURVE SMOOTH"
);
},
{
closed = 1;
nodes = (
"260 -15 OFFCURVE",
"357 29 OFFCURVE",
"407 115 CURVE",
"407 166 LINE",
"377 79 OFFCURVE",
"303 39 OFFCURVE",
"245 39 CURVE SMOOTH",
"201 39 OFFCURVE",
"166 62 OFFCURVE",
"165 103 CURVE SMOOTH",
"165 180 OFFCURVE",
"240 229 OFFCURVE",
"402 258 CURVE",
"401 289 LINE",
"298 254 OFFCURVE",
"193 250 OFFCURVE",
"128 214 CURVE SMOOTH",
"81 189 OFFCURVE",
"45 155 OFFCURVE",
"45 95 CURVE SMOOTH",
"45 25 OFFCURVE",
"98 -15 OFFCURVE",
"178 -15 CURVE SMOOTH"
);
},
{
closed = 1;
nodes = (
"468 338 LINE",
"468 353 OFFCURVE",
"463 409 OFFCURVE",
"438 438 CURVE SMOOTH",
"410 470 OFFCURVE",
"358 496 OFFCURVE",
"273 496 CURVE SMOOTH",
"91 496 OFFCURVE",
"70 396 OFFCURVE",
"70 374 CURVE SMOOTH",
"70 343 OFFCURVE",
"95 322 OFFCURVE",
"129 322 CURVE SMOOTH",
"157 322 OFFCURVE",
"183 341 OFFCURVE",
"196 389 CURVE SMOOTH",
"210 445 OFFCURVE",
"232 469 OFFCURVE",
"268 470 CURVE SMOOTH",
"295 471 OFFCURVE",
"317 464 OFFCURVE",
"332 446 CURVE SMOOTH",
"350 422 OFFCURVE",
"352 394 OFFCURVE",
"352 322 CURVE SMOOTH",
"352 270 OFFCURVE",
"349 241 OFFCURVE",
"349 226 CURVE"
);
}
);
width = 856;
}
);
unicode = 00E6;
},
{
glyphname = b;
lastChange = "2020-06-02 14:22:39 +0000";
layers = (
{
layerId = "BE1754C0-A605-45AC-AA12-D3A1FC0C380B";
paths = (
{
closed = 1;
nodes = (
"512 -79 OFFCURVE",
"651 21 OFFCURVE",
"651 248 CURVE SMOOTH",
"651 460 OFFCURVE",
"521 547 OFFCURVE",
"381 547 CURVE SMOOTH",
"263 547 OFFCURVE",
"185 499 OFFCURVE",
"125 438 CURVE",
"209 325 LINE",
"247 371 OFFCURVE",
"296 391 OFFCURVE",
"357 391 CURVE SMOOTH",
"420 391 OFFCURVE",
"504 366 OFFCURVE",
"504 244 CURVE SMOOTH",
"504 119 OFFCURVE",
"425 80 OFFCURVE",
"365 80 CURVE SMOOTH",
"304 80 OFFCURVE",
"238 100 OFFCURVE",
"192 195 CURVE",
"93 125 LINE",
"129 26 OFFCURVE",
"224 -79 OFFCURVE",
"366 -79 CURVE SMOOTH"
);
},
{
closed = 1;
nodes = (
"213 -71 LINE",
"215 209 OFFCURVE",
"235 589 OFFCURVE",
"257 806 CURVE",
"103 808 LINE",
"87 591 OFFCURVE",
"59 204 OFFCURVE",
"59 -73 CURVE"
);
}
);
width = 673;
}
);
unicode = 0062;
},
{
glyphname = c;
lastChange = "2020-08-16 10:04:43 +0000";
layers = (
{
layerId = "BE1754C0-A605-45AC-AA12-D3A1FC0C380B";
paths = (
{
closed = 1;
nodes = (
"505 -79 OFFCURVE",
"574 12 OFFCURVE",
"635 120 CURVE",
"496 194 LINE",
"453 88 OFFCURVE",
"394 75 OFFCURVE",
"333 75 CURVE SMOOTH",
"271 75 OFFCURVE",
"181 118 OFFCURVE",
"182 220 CURVE SMOOTH",
"183 337 OFFCURVE",
"253 402 OFFCURVE",
"342 403 CURVE SMOOTH",
"425 403 OFFCURVE",
"458 357 OFFCURVE",
"486 313 CURVE",
"615 401 LINE",
"551 501 OFFCURVE",
"474 550 OFFCURVE",
"350 550 CURVE SMOOTH",
"151 550 OFFCURVE",
"32 405 OFFCURVE",
"32 211 CURVE SMOOTH",
"32 29 OFFCURVE",
"172 -79 OFFCURVE",
"342 -79 CURVE SMOOTH"
);
}
);
width = 657;
}
);
unicode = 0063;
},
{
glyphname = d;
lastChange = "2020-06-02 14:25:03 +0000";
layers = (
{
layerId = "BE1754C0-A605-45AC-AA12-D3A1FC0C380B";
paths = (
{
closed = 1;
nodes = (
"442 -80 OFFCURVE",
"531 42 OFFCURVE",
"566 140 CURVE",
"478 206 LINE",
"433 113 OFFCURVE",
"370 81 OFFCURVE",
"310 81 CURVE SMOOTH",
"252 81 OFFCURVE",
"174 114 OFFCURVE",
"174 227 CURVE SMOOTH",
"174 362 OFFCURVE",
"269 396 OFFCURVE",
"334 396 CURVE SMOOTH",
"395 396 OFFCURVE",
"442 363 OFFCURVE",
"483 310 CURVE",
"582 442 LINE",
"523 502 OFFCURVE",
"445 549 OFFCURVE",
"327 549 CURVE SMOOTH",
"181 549 OFFCURVE",
"26 446 OFFCURVE",
"26 218 CURVE SMOOTH",
"26 14 OFFCURVE",
"159 -80 OFFCURVE",
"299 -80 CURVE SMOOTH"
);
},
{
closed = 1;
nodes = (
"610 -61 LINE",
"594 169 OFFCURVE",
"599 547 OFFCURVE",
"626 819 CURVE",
"470 830 LINE",
"445 519 OFFCURVE",
"438 175 OFFCURVE",
"449 -74 CURVE"
);
}
);
width = 660;
}
);
unicode = 0064;
},
{
glyphname = eth;
lastChange = "2020-08-16 10:04:43 +0000";
layers = (
{
layerId = "BE1754C0-A605-45AC-AA12-D3A1FC0C380B";
paths = (
{
closed = 1;
nodes = (
"363 -78 OFFCURVE",
"660 -79 OFFCURVE",
"659 239 CURVE SMOOTH",
"657 549 OFFCURVE",
"267 751 OFFCURVE",
"126 814 CURVE",
"56 668 LINE",
"392 530 OFFCURVE",
"498 341 OFFCURVE",
"498 239 CURVE SMOOTH",
"498 68 OFFCURVE",
"360 71 OFFCURVE",
"349 71 CURVE SMOOTH",
"297 71 OFFCURVE",
"191 106 OFFCURVE",
"191 219 CURVE SMOOTH",
"191 368 OFFCURVE",
"408 412 OFFCURVE",
"503 415 CURVE",
"405 544 LINE",
"93 468 OFFCURVE",
"35 324 OFFCURVE",
"35 212 CURVE SMOOTH",
"35 17 OFFCURVE",
"199 -78 OFFCURVE",
"352 -78 CURVE SMOOTH"
);
},
{
closed = 1;
nodes = (
"201 542 OFFCURVE",
"386 669 OFFCURVE",
"443 703 CURVE",
"373 814 LINE",
"290 766 OFFCURVE",
"99 623 OFFCURVE",
"42 569 CURVE",
"133 473 LINE"
);
}
);
width = 694;
},
{
associatedMasterId = "BE1754C0-A605-45AC-AA12-D3A1FC0C380B";
layerId = "3FC96813-E7C5-45AC-9F0B-5DBEB42CEC4B";
name = E;
paths = (
{
closed = 1;
nodes = (
"446 -5 OFFCURVE",
"535 101 OFFCURVE",
"547 251 CURVE SMOOTH",
"561 439 OFFCURVE",
"409 650 OFFCURVE",
"211 772 CURVE SMOOTH",
"206 776 OFFCURVE",
"200 775 OFFCURVE",
"196 770 CURVE SMOOTH",
"191 765 OFFCURVE",
"190 760 OFFCURVE",
"196 754 CURVE SMOOTH",
"283 674 OFFCURVE",
"347 575 OFFCURVE",
"382 461 CURVE",
"446 456 LINE",
"406 487 OFFCURVE",
"353 507 OFFCURVE",
"293 507 CURVE SMOOTH",
"139 507 OFFCURVE",
"38 383 OFFCURVE",
"38 251 CURVE SMOOTH",
"38 119 OFFCURVE",
"139 -5 OFFCURVE",
"293 -5 CURVE SMOOTH"
);
},
{
closed = 1;
nodes = (
"216 21 OFFCURVE",
"174 130 OFFCURVE",
"174 251 CURVE SMOOTH",
"174 372 OFFCURVE",
"216 481 OFFCURVE",
"293 481 CURVE SMOOTH",
"370 481 OFFCURVE",
"412 372 OFFCURVE",
"412 251 CURVE SMOOTH",
"412 130 OFFCURVE",
"370 21 OFFCURVE",
"293 21 CURVE SMOOTH"
);
},
{
closed = 1;
nodes = (
"462 745 LINE",
"446 771 LINE",
"130 577 LINE",
"146 551 LINE"
);
}
);
width = 591;
},
{
associatedMasterId = "BE1754C0-A605-45AC-AA12-D3A1FC0C380B";
layerId = "56DC1C81-F651-46E9-87C8-388DC3C1949A";
name = "new Layer";
paths = (
{
closed = 1;
nodes = (
"475 5 OFFCURVE",
"576 75 OFFCURVE",
"596 261 CURVE SMOOTH",
"615 415 OFFCURVE",
"476 620 OFFCURVE",
"265 777 CURVE SMOOTH",
"263 781 OFFCURVE",
"256 785 OFFCURVE",
"252 780 CURVE SMOOTH",
"245 775 OFFCURVE",
"247 772 OFFCURVE",
"248 768 CURVE SMOOTH",
"314 672 OFFCURVE",
"345 596 OFFCURVE",
"366 503 CURVE",
"459 488 LINE",
"417 507 OFFCURVE",
"364 517 OFFCURVE",
"310 517 CURVE SMOOTH",
"143 517 OFFCURVE",
"22 408 OFFCURVE",
"22 261 CURVE SMOOTH",
"22 114 OFFCURVE",
"143 5 OFFCURVE",
"310 5 CURVE SMOOTH"
);
},
{
closed = 1;
nodes = (
"233 17 OFFCURVE",
"225 149 OFFCURVE",
"225 261 CURVE SMOOTH",
"225 373 OFFCURVE",
"233 505 OFFCURVE",
"310 505 CURVE SMOOTH",
"386 505 OFFCURVE",
"394 373 OFFCURVE",
"394 261 CURVE SMOOTH",
"394 149 OFFCURVE",
"386 17 OFFCURVE",
"310 17 CURVE SMOOTH"
);
},
{
closed = 1;
nodes = (
"494 747 LINE",
"479 771 LINE",
"172 574 LINE",
"187 550 LINE"
);
}
);
width = 622;
},
{
associatedMasterId = "BE1754C0-A605-45AC-AA12-D3A1FC0C380B";
layerId = "B1A4DE2A-A433-45B8-A685-0F6164F66E71";
name = M;
paths = (
{
closed = 1;
nodes = (
"429 -11 OFFCURVE",
"510 117 OFFCURVE",
"518 245 CURVE SMOOTH",
"529 453 OFFCURVE",
"369 668 OFFCURVE",
"179 769 CURVE SMOOTH",
"172 773 OFFCURVE",
"166 769 OFFCURVE",
"162 764 CURVE SMOOTH",
"159 759 OFFCURVE",
"156 753 OFFCURVE",
"165 746 CURVE SMOOTH",
"264 676 OFFCURVE",
"349 562 OFFCURVE",
"392 436 CURVE",
"439 437 LINE",
"399 475 OFFCURVE",
"346 501 OFFCURVE",
"283 501 CURVE SMOOTH",
"137 501 OFFCURVE",
"48 368 OFFCURVE",
"48 245 CURVE SMOOTH",
"48 122 OFFCURVE",
"137 -11 OFFCURVE",
"283 -11 CURVE SMOOTH"
);
},
{
closed = 1;
nodes = (
"206 23 OFFCURVE",
"143 119 OFFCURVE",
"143 245 CURVE SMOOTH",
"143 371 OFFCURVE",
"206 467 OFFCURVE",
"283 467 CURVE SMOOTH",
"360 467 OFFCURVE",
"423 371 OFFCURVE",
"423 245 CURVE SMOOTH",
"423 119 OFFCURVE",
"360 23 OFFCURVE",
"283 23 CURVE SMOOTH"
);
},
{
closed = 1;
nodes = (
"443 744 LINE",
"427 771 LINE",
"105 579 LINE",
"121 552 LINE"
);
}
);
width = 572;
},
{
associatedMasterId = "BE1754C0-A605-45AC-AA12-D3A1FC0C380B";
layerId = "D4F92898-FE9E-4031-93CC-4B24C74A170D";
name = D;
paths = (
{
closed = 1;
nodes = (
"435 -9 OFFCURVE",
"518 112 OFFCURVE",
"528 247 CURVE SMOOTH",
"540 448 OFFCURVE",
"382 662 OFFCURVE",
"190 770 CURVE SMOOTH",
"183 774 OFFCURVE",
"177 771 OFFCURVE",
"173 766 CURVE SMOOTH",
"170 761 OFFCURVE",
"167 755 OFFCURVE",
"175 749 CURVE SMOOTH",
"270 675 OFFCURVE",
"348 566 OFFCURVE",
"389 444 CURVE",
"441 443 LINE",
"401 479 OFFCURVE",
"348 503 OFFCURVE",
"286 503 CURVE SMOOTH",
"138 503 OFFCURVE",
"45 373 OFFCURVE",
"45 247 CURVE SMOOTH",
"45 121 OFFCURVE",
"138 -9 OFFCURVE",
"286 -9 CURVE SMOOTH"
);
},
{
closed = 1;
nodes = (
"209 22 OFFCURVE",
"153 123 OFFCURVE",
"153 247 CURVE SMOOTH",
"153 371 OFFCURVE",
"209 472 OFFCURVE",
"286 472 CURVE SMOOTH",
"363 472 OFFCURVE",
"419 371 OFFCURVE",
"419 247 CURVE SMOOTH",
"419 123 OFFCURVE",
"363 22 OFFCURVE",
"286 22 CURVE SMOOTH"
);
},
{
closed = 1;
nodes = (
"449 744 LINE",
"433 771 LINE",
"113 578 LINE",
"129 552 LINE"
);
}
);
width = 578;
},
{
associatedMasterId = "BE1754C0-A605-45AC-AA12-D3A1FC0C380B";
layerId = "674859A0-EBFE-4816-8CD7-51AEBE2383D6";
name = B;
paths = (
{
closed = 1;
nodes = (
"440 -7 OFFCURVE",
"527 106 OFFCURVE",
"537 249 CURVE SMOOTH",
"550 444 OFFCURVE",
"396 656 OFFCURVE",
"200 771 CURVE SMOOTH",
"195 775 OFFCURVE",
"189 773 OFFCURVE",
"185 768 CURVE SMOOTH",
"180 763 OFFCURVE",
"179 758 OFFCURVE",
"186 751 CURVE SMOOTH",
"277 675 OFFCURVE",
"348 571 OFFCURVE",
"385 453 CURVE",
"444 450 LINE",
"404 483 OFFCURVE",
"351 505 OFFCURVE",
"290 505 CURVE SMOOTH",
"138 505 OFFCURVE",
"41 378 OFFCURVE",
"41 249 CURVE SMOOTH",
"41 120 OFFCURVE",
"138 -7 OFFCURVE",
"290 -7 CURVE SMOOTH"
);
},
{
closed = 1;
nodes = (
"213 22 OFFCURVE",
"164 126 OFFCURVE",
"164 249 CURVE SMOOTH",
"164 372 OFFCURVE",
"213 476 OFFCURVE",
"290 476 CURVE SMOOTH",
"367 476 OFFCURVE",
"416 372 OFFCURVE",
"416 249 CURVE SMOOTH",
"416 126 OFFCURVE",
"367 22 OFFCURVE",
"290 22 CURVE SMOOTH"
);
},
{
closed = 1;
nodes = (
"456 745 LINE",
"440 771 LINE",
"122 578 LINE",
"138 551 LINE"
);
}
);
width = 585;
}
);
unicode = 00F0;
},
{
glyphname = e;
lastChange = "2020-08-16 10:04:43 +0000";
layers = (
{
layerId = "BE1754C0-A605-45AC-AA12-D3A1FC0C380B";
paths = (
{
closed = 1;
nodes = (
"514 -78 OFFCURVE",
"590 -17 OFFCURVE",
"655 37 CURVE",
"574 153 LINE",
"510 85 OFFCURVE",
"440 56 OFFCURVE",
"352 56 CURVE SMOOTH",
"268 56 OFFCURVE",
"177 109 OFFCURVE",
"177 224 CURVE SMOOTH",
"177 325 OFFCURVE",
"252 408 OFFCURVE",
"359 414 CURVE SMOOTH",
"455 419 OFFCURVE",
"481 372 OFFCURVE",
"481 353 CURVE SMOOTH",
"481 301 OFFCURVE",
"359 278 OFFCURVE",
"299 278 CURVE SMOOTH",
"245 278 OFFCURVE",
"191 288 OFFCURVE",
"134 302 CURVE",
"116 188 LINE",
"155 177 OFFCURVE",
"227 160 OFFCURVE",
"318 160 CURVE SMOOTH",
"516 160 OFFCURVE",
"629 231 OFFCURVE",
"629 358 CURVE SMOOTH",
"629 411 OFFCURVE",
"595 551 OFFCURVE",
"370 551 CURVE SMOOTH",
"118 551 OFFCURVE",
"30 360 OFFCURVE",
"30 217 CURVE SMOOTH",
"30 38 OFFCURVE",
"163 -78 OFFCURVE",
"350 -78 CURVE SMOOTH"
);
}
);
width = 688;
}
);
unicode = 0065;
},
{
glyphname = f;
lastChange = "2020-06-25 14:50:08 +0000";
layers = (
{
layerId = "BE1754C0-A605-45AC-AA12-D3A1FC0C380B";
paths = (
{
closed = 1;
nodes = (
"352 -73 LINE",
"346 121 OFFCURVE",
"345 264 OFFCURVE",
"352 439 CURVE SMOOTH",
"358 592 OFFCURVE",
"359 695 OFFCURVE",
"456 695 CURVE SMOOTH",
"490 695 OFFCURVE",
"529 682 OFFCURVE",
"561 668 CURVE",
"571 709 OFFCURVE",
"592 814 OFFCURVE",
"592 814 CURVE",
"539 836 OFFCURVE",
"488 845 OFFCURVE",
"439 845 CURVE SMOOTH",
"175 845 OFFCURVE",
"196 498 OFFCURVE",
"194 338 CURVE SMOOTH",
"194 238 OFFCURVE",
"193 75 OFFCURVE",
"195 -73 CURVE"
);
},
{
closed = 1;
nodes = (
"182 413 OFFCURVE",
"409 415 OFFCURVE",
"534 397 CURVE",
"550 541 LINE",
"420 559 OFFCURVE",
"161 556 OFFCURVE",
"18 526 CURVE",
"37 379 LINE"
);
}
);
width = 562;
}
);
unicode = 0066;
},
{
glyphname = g;
lastChange = "2020-08-16 10:04:41 +0000";
layers = (
{
layerId = "BE1754C0-A605-45AC-AA12-D3A1FC0C380B";
paths = (
{
closed = 1;
nodes = (
"356 -250 OFFCURVE",
"577 -250 OFFCURVE",
"577 36 CURVE SMOOTH",
"577 121 OFFCURVE",
"576 196 OFFCURVE",
"576 263 CURVE SMOOTH",
"576 389 OFFCURVE",
"577 487 OFFCURVE",
"579 567 CURVE",
"418 567 LINE",
"418 512 LINE SMOOTH",
"418 386 OFFCURVE",
"424 132 OFFCURVE",
"424 47 CURVE SMOOTH",
"424 -29 OFFCURVE",
"418 -105 OFFCURVE",
"300 -105 CURVE SMOOTH",
"203 -105 OFFCURVE",
"157 -72 OFFCURVE",
"108 -31 CURVE",
"42 -171 LINE",
"119 -227 OFFCURVE",
"226 -250 OFFCURVE",
"303 -250 CURVE SMOOTH"
);
},
{
closed = 1;
nodes = (
"377 0 OFFCURVE",
"522 56 OFFCURVE",
"543 360 CURVE",
"453 365 LINE",
"431 189 OFFCURVE",
"366 140 OFFCURVE",
"296 140 CURVE SMOOTH",
"224 140 OFFCURVE",
"167 183 OFFCURVE",
"167 273 CURVE SMOOTH",
"167 364 OFFCURVE",
"236 407 OFFCURVE",
"317 407 CURVE SMOOTH",
"372 407 OFFCURVE",
"418 388 OFFCURVE",
"464 337 CURVE",
"489 476 LINE",
"489 476 OFFCURVE",
"444 549 OFFCURVE",
"319 549 CURVE SMOOTH",
"90 549 OFFCURVE",
"30 388 OFFCURVE",
"30 259 CURVE SMOOTH",
"30 176 OFFCURVE",
"71 0 OFFCURVE",
"279 0 CURVE SMOOTH"
);
}
);
width = 619;
}
);
unicode = 0067;
},
{
glyphname = h;
lastChange = "2020-06-02 14:23:25 +0000";
layers = (
{
layerId = "BE1754C0-A605-45AC-AA12-D3A1FC0C380B";
paths = (
{
closed = 1;
nodes = (
"602 -72 LINE",
"602 -23 OFFCURVE",
"604 114 OFFCURVE",
"605 240 CURVE SMOOTH",
"604 346 OFFCURVE",
"579 550 OFFCURVE",
"380 550 CURVE SMOOTH",
"237 550 OFFCURVE",
"150 421 OFFCURVE",
"97 276 CURVE",
"188 178 LINE",
"195 339 OFFCURVE",
"299 397 OFFCURVE",
"362 397 CURVE SMOOTH",
"442 397 OFFCURVE",
"447 277 OFFCURVE",
"447 224 CURVE SMOOTH",
"447 128 OFFCURVE",
"446 7 OFFCURVE",
"439 -73 CURVE"
);
},
{
closed = 1;
nodes = (
"209 -65 LINE",
"207 0 OFFCURVE",
"205 62 OFFCURVE",
"205 137 CURVE SMOOTH",
"205 380 OFFCURVE",
"215 657 OFFCURVE",
"226 806 CURVE",
"68 805 LINE",
"54 463 OFFCURVE",
"52 99 OFFCURVE",
"52 -70 CURVE"
);
}
);
width = 657;
}
);
unicode = 0068;
},
{
glyphname = i;
lastChange = "2020-08-16 10:04:41 +0000";
layers = (
{
layerId = "BE1754C0-A605-45AC-AA12-D3A1FC0C380B";
paths = (
{
closed = 1;
nodes = (
"209 -71 LINE",
"204 43 OFFCURVE",
"199 383 OFFCURVE",
"208 542 CURVE",
"49 541 LINE",
"41 369 OFFCURVE",
"39 117 OFFCURVE",
"47 -71 CURVE"
);
},
{
closed = 1;
nodes = (
"211 660 LINE",
"212 716 OFFCURVE",
"218 770 OFFCURVE",
"222 813 CURVE",
"56 816 LINE",
"52 773 OFFCURVE",
"49 704 OFFCURVE",
"51 660 CURVE"
);
}
);
width = 264;
}
);
unicode = 0069;
},
{
glyphname = idotless;
lastChange = "2020-08-15 18:22:44 +0000";
layers = (
{
layerId = "BE1754C0-A605-45AC-AA12-D3A1FC0C380B";
paths = (
{
closed = 1;
nodes = (
"209 -71 LINE",
"204 43 OFFCURVE",
"199 383 OFFCURVE",
"208 542 CURVE",
"49 541 LINE",
"41 369 OFFCURVE",
"39 117 OFFCURVE",
"47 -71 CURVE"
);
}
);
width = 251;
},
{
anchors = (
{
name = bottom;
position = "{175, 0}";
},
{
name = ogonek;
position = "{314, 10}";
},
{
name = top;
position = "{163, 487}";
}
);
associatedMasterId = "BE1754C0-A605-45AC-AA12-D3A1FC0C380B";
layerId = "3FC96813-E7C5-45AC-9F0B-5DBEB42CEC4B";
name = E;
paths = (
{
closed = 1;
nodes = (
"311 0 LINE SMOOTH",
"317 0 OFFCURVE",
"318 6 OFFCURVE",
"318 12 CURVE SMOOTH",
"318 18 OFFCURVE",
"317 23 OFFCURVE",
"311 23 CURVE SMOOTH",
"300 23 LINE SMOOTH",
"269 23 OFFCURVE",
"238 27 OFFCURVE",
"238 73 CURVE SMOOTH",
"239 498 LINE",
"239 498 OFFCURVE",
"54 462 OFFCURVE",
"44 459 CURVE SMOOTH",
"37 457 OFFCURVE",
"38 451 OFFCURVE",
"39 446 CURVE SMOOTH",
"40 441 OFFCURVE",
"41 436 OFFCURVE",
"47 436 CURVE SMOOTH",
"88 434 OFFCURVE",
"108 427 OFFCURVE",
"108 381 CURVE SMOOTH",
"109 73 LINE SMOOTH",
"109 27 OFFCURVE",
"78 23 OFFCURVE",
"47 23 CURVE SMOOTH",
"36 23 LINE SMOOTH",
"30 23 OFFCURVE",
"29 18 OFFCURVE",
"29 12 CURVE SMOOTH",
"29 6 OFFCURVE",
"30 0 OFFCURVE",
"36 0 CURVE SMOOTH"
);
}
);
width = 349;
},
{
anchors = (
{
name = bottom;
position = "{195, 0}";
},
{
name = ogonek;
position = "{350, 10}";
},
{
name = top;
position = "{188, 496}";
}
);
associatedMasterId = "BE1754C0-A605-45AC-AA12-D3A1FC0C380B";
layerId = "56DC1C81-F651-46E9-87C8-388DC3C1949A";
name = "new Layer";
paths = (
{
closed = 1;
nodes = (
"362 0 LINE SMOOTH",
"369 0 OFFCURVE",
"369 7 OFFCURVE",
"369 9 CURVE SMOOTH",
"369 12 OFFCURVE",
"369 17 OFFCURVE",
"362 17 CURVE SMOOTH",
"354 17 LINE SMOOTH",
"322 17 OFFCURVE",
"296 22 OFFCURVE",
"296 77 CURVE SMOOTH",
"296 509 LINE",
"296 509 OFFCURVE",
"50 468 OFFCURVE",
"48 469 CURVE SMOOTH",
"38 467 OFFCURVE",
"41 458 OFFCURVE",
"43 457 CURVE SMOOTH",
"45 456 OFFCURVE",
"47 449 OFFCURVE",
"50 450 CURVE SMOOTH",
"91 451 OFFCURVE",
"93 436 OFFCURVE",
"93 389 CURVE SMOOTH",
"91 77 LINE SMOOTH",
"91 22 OFFCURVE",
"64 17 OFFCURVE",
"32 17 CURVE SMOOTH",
"24 17 LINE SMOOTH",
"18 17 OFFCURVE",
"18 12 OFFCURVE",
"18 9 CURVE SMOOTH",
"18 7 OFFCURVE",
"18 0 OFFCURVE",
"24 0 CURVE SMOOTH"
);
}
);
width = 389;
},
{
anchors = (
{
name = bottom;
position = "{163, 0}";
},
{
name = ogonek;
position = "{292, 10}";
},
{
name = top;
position = "{148, 482}";
}
);
associatedMasterId = "BE1754C0-A605-45AC-AA12-D3A1FC0C380B";
layerId = "B1A4DE2A-A433-45B8-A685-0F6164F66E71";
name = M;
paths = (
{
closed = 1;
nodes = (
"280 0 LINE SMOOTH",
"286 0 OFFCURVE",
"287 5 OFFCURVE",
"287 14 CURVE SMOOTH",
"287 22 OFFCURVE",
"286 27 OFFCURVE",
"280 27 CURVE SMOOTH",
"268 27 LINE SMOOTH",
"238 27 OFFCURVE",
"204 30 OFFCURVE",
"204 71 CURVE SMOOTH",
"205 491 LINE",
"205 491 OFFCURVE",
"56 458 OFFCURVE",
"42 453 CURVE SMOOTH",
"36 451 OFFCURVE",
"37 447 OFFCURVE",
"37 439 CURVE SMOOTH",
"37 432 OFFCURVE",
"37 429 OFFCURVE",
"46 428 CURVE SMOOTH",
"87 424 OFFCURVE",
"117 422 OFFCURVE",
"117 377 CURVE SMOOTH",
"120 71 LINE SMOOTH",
"120 30 OFFCURVE",
"86 27 OFFCURVE",
"56 27 CURVE SMOOTH",
"44 27 LINE SMOOTH",
"38 27 OFFCURVE",
"36 22 OFFCURVE",
"36 14 CURVE SMOOTH",
"36 5 OFFCURVE",
"38 0 OFFCURVE",
"44 0 CURVE SMOOTH"
);
}
);
width = 325;
},
{
anchors = (
{
name = bottom;
position = "{167, 0}";
},
{
name = ogonek;
position = "{299, 10}";
},
{
name = top;
position = "{153, 484}";
}
);
associatedMasterId = "BE1754C0-A605-45AC-AA12-D3A1FC0C380B";
layerId = "D4F92898-FE9E-4031-93CC-4B24C74A170D";
name = D;
paths = (
{
closed = 1;
nodes = (
"290 0 LINE SMOOTH",
"296 0 OFFCURVE",
"297 5 OFFCURVE",
"297 13 CURVE SMOOTH",
"297 21 OFFCURVE",
"296 26 OFFCURVE",
"290 26 CURVE SMOOTH",
"279 26 LINE SMOOTH",
"248 26 OFFCURVE",
"215 29 OFFCURVE",
"215 72 CURVE SMOOTH",
"216 493 LINE",
"216 493 OFFCURVE",
"55 459 OFFCURVE",
"43 455 CURVE SMOOTH",
"36 453 OFFCURVE",
"37 448 OFFCURVE",
"38 441 CURVE SMOOTH",
"38 435 OFFCURVE",
"38 431 OFFCURVE",
"46 431 CURVE SMOOTH",
"87 427 OFFCURVE",
"114 424 OFFCURVE",
"114 378 CURVE SMOOTH",
"116 72 LINE SMOOTH",
"116 29 OFFCURVE",
"83 26 OFFCURVE",
"53 26 CURVE SMOOTH",
"41 26 LINE SMOOTH",
"35 26 OFFCURVE",
"34 21 OFFCURVE",
"34 13 CURVE SMOOTH",
"34 5 OFFCURVE",
"35 0 OFFCURVE",
"41 0 CURVE SMOOTH"
);
}
);
width = 333;
},
{
anchors = (
{
name = bottom;
position = "{171, 0}";
},
{
name = ogonek;
position = "{307, 10}";
},
{
name = top;
position = "{158, 485}";
}
);
associatedMasterId = "BE1754C0-A605-45AC-AA12-D3A1FC0C380B";
layerId = "674859A0-EBFE-4816-8CD7-51AEBE2383D6";
name = B;
paths = (
{
closed = 1;
nodes = (
"301 0 LINE SMOOTH",
"307 0 OFFCURVE",
"308 6 OFFCURVE",
"308 13 CURVE SMOOTH",
"308 19 OFFCURVE",
"307 24 OFFCURVE",
"301 24 CURVE SMOOTH",
"289 24 LINE SMOOTH",
"259 24 OFFCURVE",
"227 28 OFFCURVE",
"227 72 CURVE SMOOTH",
"228 496 LINE",
"228 496 OFFCURVE",
"55 461 OFFCURVE",
"43 457 CURVE SMOOTH",
"37 455 OFFCURVE",
"38 450 OFFCURVE",
"38 444 CURVE SMOOTH",
"39 438 OFFCURVE",
"40 434 OFFCURVE",
"47 433 CURVE SMOOTH",
"88 431 OFFCURVE",
"111 425 OFFCURVE",
"111 380 CURVE SMOOTH",
"113 72 LINE SMOOTH",
"113 28 OFFCURVE",
"81 24 OFFCURVE",
"50 24 CURVE SMOOTH",
"39 24 LINE SMOOTH",
"33 24 OFFCURVE",
"31 19 OFFCURVE",
"31 13 CURVE SMOOTH",
"31 6 OFFCURVE",
"33 0 OFFCURVE",
"39 0 CURVE SMOOTH"
);
}
);
width = 341;
}
);
unicode = 0131;
},
{
glyphname = j;
lastChange = "2020-08-16 10:04:43 +0000";
layers = (
{
layerId = "BE1754C0-A605-45AC-AA12-D3A1FC0C380B";
paths = (
{
closed = 1;
nodes = (
"466 -74 OFFCURVE",
"522 33 OFFCURVE",
"529 120 CURVE SMOOTH",
"542 264 OFFCURVE",
"527 475 OFFCURVE",
"529 539 CURVE",
"368 535 LINE",
"380 458 OFFCURVE",
"386 257 OFFCURVE",
"378 157 CURVE SMOOTH",
"373 95 OFFCURVE",
"348 71 OFFCURVE",
"295 69 CURVE SMOOTH",
"217 66 OFFCURVE",
"175 169 OFFCURVE",
"172 244 CURVE",
"17 198 LINE",
"50 25 OFFCURVE",
"145 -86 OFFCURVE",
"306 -80 CURVE SMOOTH"
);
},
{
closed = 1;
nodes = (
"526 660 LINE",
"525 671 OFFCURVE",
"522 780 OFFCURVE",
"522 816 CURVE",
"361 811 LINE",
"358 768 OFFCURVE",
"362 699 OFFCURVE",
"366 655 CURVE"
);
}
);
width = 576;
}
);
unicode = 006A;
},
{
glyphname = k;
lastChange = "2020-06-02 14:23:57 +0000";
layers = (
{
layerId = "BE1754C0-A605-45AC-AA12-D3A1FC0C380B";
paths = (
{
closed = 1;
nodes = (
"631 57 LINE",
"483 106 OFFCURVE",
"391 148 OFFCURVE",
"303 193 CURVE SMOOTH",
"276 207 OFFCURVE",
"266 215 OFFCURVE",
"266 223 CURVE SMOOTH",
"266 229 OFFCURVE",
"274 235 OFFCURVE",
"285 244 CURVE SMOOTH",
"356 302 OFFCURVE",
"469 364 OFFCURVE",
"612 410 CURVE",
"525 556 LINE",
"308 442 OFFCURVE",
"198 370 OFFCURVE",
"110 290 CURVE SMOOTH",
"86 268 OFFCURVE",
"77 243 OFFCURVE",
"77 217 CURVE SMOOTH",
"77 186 OFFCURVE",
"95 155 OFFCURVE",
"124 134 CURVE SMOOTH",
"222 63 OFFCURVE",
"400 -30 OFFCURVE",
"568 -80 CURVE"
);
},
{
closed = 1;
nodes = (
"218 -70 LINE",
"209 63 OFFCURVE",
"203 193 OFFCURVE",
"203 324 CURVE SMOOTH",
"203 481 OFFCURVE",
"212 639 OFFCURVE",
"233 801 CURVE",
"73 813 LINE",
"57 667 OFFCURVE",
"48 418 OFFCURVE",
"48 210 CURVE SMOOTH",
"48 95 OFFCURVE",
"51 -8 OFFCURVE",
"57 -74 CURVE"
);
}
);
width = 631;
}
);
unicode = 006B;
},
{
glyphname = l;
lastChange = "2020-08-27 14:43:44 +0000";
layers = (
{
layerId = "BE1754C0-A605-45AC-AA12-D3A1FC0C380B";
paths = (
{
closed = 1;
nodes = (
"324 -80 OFFCURVE",
"378 -39 OFFCURVE",
"418 6 CURVE",
"339 161 LINE",
"316 129 OFFCURVE",
"288 98 OFFCURVE",
"263 98 CURVE SMOOTH",
"226 98 OFFCURVE",
"220 173 OFFCURVE",
"220 349 CURVE SMOOTH",
"220 438 OFFCURVE",
"234 667 OFFCURVE",
"255 807 CURVE",
"87 809 LINE",
"73 691 OFFCURVE",
"56 479 OFFCURVE",
"56 337 CURVE SMOOTH",
"56 128 OFFCURVE",
"63 -80 OFFCURVE",
"243 -80 CURVE SMOOTH"
);
}
);
width = 462;
}
);
unicode = 006C;
},
{
glyphname = m;
lastChange = "2020-06-02 14:25:11 +0000";
layers = (
{
layerId = "BE1754C0-A605-45AC-AA12-D3A1FC0C380B";
paths = (
{
closed = 1;
nodes = (
"874 -71 LINE",
"874 -9 OFFCURVE",
"878 57 OFFCURVE",
"878 139 CURVE SMOOTH",
"878 320 OFFCURVE",
"867 553 OFFCURVE",
"672 551 CURVE SMOOTH",
"542 550 OFFCURVE",
"464 415 OFFCURVE",
"413 231 CURVE",
"501 66 LINE",
"521 187 OFFCURVE",
"560 402 OFFCURVE",
"649 402 CURVE SMOOTH",
"712 402 OFFCURVE",
"715 280 OFFCURVE",
"715 157 CURVE SMOOTH",
"715 143 OFFCURVE",
"714 -2 OFFCURVE",
"714 -71 CURVE"
);
},
{
closed = 1;
nodes = (
"209 -74 LINE",
"200 65 OFFCURVE",
"196 222 OFFCURVE",
"196 350 CURVE SMOOTH",
"196 430 OFFCURVE",
"198 499 OFFCURVE",
"201 544 CURVE",
"44 541 LINE",
"43 498 OFFCURVE",
"42 388 OFFCURVE",
"42 270 CURVE SMOOTH",
"42 126 OFFCURVE",
"43 -27 OFFCURVE",
"47 -76 CURVE"
);
},
{
closed = 1;
nodes = (
"534 -71 LINE",
"534 -28 OFFCURVE",
"535 8 OFFCURVE",
"535 60 CURVE SMOOTH",
"535 274 OFFCURVE",
"519 551 OFFCURVE",
"347 551 CURVE SMOOTH",
"210 551 OFFCURVE",
"153 393 OFFCURVE",
"101 204 CURVE",
"158 66 LINE",
"179 186 OFFCURVE",
"209 402 OFFCURVE",
"297 402 CURVE SMOOTH",
"355 402 OFFCURVE",
"368 293 OFFCURVE",
"373 189 CURVE SMOOTH",
"377 113 OFFCURVE",
"378 35 OFFCURVE",
"378 -71 CURVE"
);
}
);
width = 916;
}
);
unicode = 006D;
},
{
glyphname = n;
lastChange = "2020-08-16 10:04:41 +0000";
layers = (
{
layerId = "BE1754C0-A605-45AC-AA12-D3A1FC0C380B";
paths = (
{
closed = 1;
nodes = (
"618 -72 LINE",
"620 -49 OFFCURVE",
"627 62 OFFCURVE",
"627 176 CURVE SMOOTH",
"627 363 OFFCURVE",
"618 550 OFFCURVE",
"412 550 CURVE SMOOTH",
"260 550 OFFCURVE",
"183 411 OFFCURVE",
"141 299 CURVE",
"166 110 LINE",
"197 265 OFFCURVE",
"284 412 OFFCURVE",
"394 412 CURVE SMOOTH",
"457 412 OFFCURVE",
"472 309 OFFCURVE",
"472 187 CURVE SMOOTH",
"472 114 OFFCURVE",
"466 10 OFFCURVE",
"462 -72 CURVE"
);
},
{
closed = 1;
nodes = (
"206 -69 LINE",
"203 0 OFFCURVE",
"201 111 OFFCURVE",
"201 206 CURVE SMOOTH",
"201 324 OFFCURVE",
"205 433 OFFCURVE",
"215 541 CURVE",
"59 541 LINE",
"49 321 OFFCURVE",
"50 159 OFFCURVE",
"58 -70 CURVE"
);
}
);
width = 679;
}
);
unicode = 006E;
},
{
glyphname = o;
lastChange = "2020-06-02 14:25:25 +0000";
layers = (
{
layerId = "BE1754C0-A605-45AC-AA12-D3A1FC0C380B";
paths = (
{
closed = 1;
nodes = (
"559 -80 OFFCURVE",
"662 49 OFFCURVE",
"660 241 CURVE SMOOTH",
"658 423 OFFCURVE",
"515 552 OFFCURVE",
"338 552 CURVE SMOOTH",
"168 552 OFFCURVE",
"32 423 OFFCURVE",
"32 244 CURVE SMOOTH",
"32 69 OFFCURVE",
"131 -80 OFFCURVE",
"345 -80 CURVE SMOOTH"
);
},
{
closed = 1;
nodes = (
"230 69 OFFCURVE",
"181 154 OFFCURVE",
"181 235 CURVE SMOOTH",
"181 323 OFFCURVE",
"251 404 OFFCURVE",
"344 403 CURVE SMOOTH",
"434 402 OFFCURVE",
"505 342 OFFCURVE",
"505 239 CURVE SMOOTH",
"505 134 OFFCURVE",
"451 69 OFFCURVE",
"344 69 CURVE SMOOTH"
);
}
);
width = 692;
}
);
unicode = 006F;
},
{
glyphname = oslash;
lastChange = "2020-08-15 18:39:09 +0000";
layers = (
{
layerId = "BE1754C0-A605-45AC-AA12-D3A1FC0C380B";
paths = (
{
closed = 1;
nodes = (
"240 51 OFFCURVE",
"561 367 OFFCURVE",
"687 477 CURVE",
"625 552 LINE",
"487 431 OFFCURVE",
"171 111 OFFCURVE",
"38 -26 CURVE",
"113 -95 LINE"
);
},
{
closed = 1;
nodes = (
"256 69 OFFCURVE",
"207 154 OFFCURVE",
"207 235 CURVE SMOOTH",
"207 323 OFFCURVE",
"277 404 OFFCURVE",
"370 403 CURVE SMOOTH",
"460 402 OFFCURVE",
"531 342 OFFCURVE",
"531 239 CURVE SMOOTH",
"531 134 OFFCURVE",
"477 69 OFFCURVE",
"370 69 CURVE SMOOTH"
);
},
{
closed = 1;
nodes = (
"585 -80 OFFCURVE",
"688 49 OFFCURVE",
"686 241 CURVE SMOOTH",
"684 423 OFFCURVE",
"541 552 OFFCURVE",
"364 552 CURVE SMOOTH",
"194 552 OFFCURVE",
"58 423 OFFCURVE",
"58 244 CURVE SMOOTH",
"58 69 OFFCURVE",
"157 -80 OFFCURVE",
"371 -80 CURVE SMOOTH"
);
}
);
width = 703;
},
{
associatedMasterId = "BE1754C0-A605-45AC-AA12-D3A1FC0C380B";
components = (
{
alignment = -1;
name = o;
},
{
alignment = -1;
name = slashlongcomb;
}
);
layerId = "3FC96813-E7C5-45AC-9F0B-5DBEB42CEC4B";
name = E;
paths = (
{
closed = 1;
nodes = (
"498 498 LINE",
"480 511 LINE",
"88 -11 LINE",
"106 -25 LINE"
);
}
);
width = 586;
},
{
associatedMasterId = "BE1754C0-A605-45AC-AA12-D3A1FC0C380B";
components = (
{
alignment = -1;
name = o;
},
{
alignment = -1;
name = slashlongcomb;
}
);
layerId = "56DC1C81-F651-46E9-87C8-388DC3C1949A";
name = "new Layer";
paths = (
{
closed = 1;
nodes = (
"523 515 LINE",
"505 529 LINE",
"94 -20 LINE",
"112 -35 LINE"
);
}
);
width = 616;
},
{
associatedMasterId = "BE1754C0-A605-45AC-AA12-D3A1FC0C380B";
components = (
{
alignment = -1;
name = o;
},
{
alignment = -1;
name = slashlongcomb;
}
);
layerId = "B1A4DE2A-A433-45B8-A685-0F6164F66E71";
name = M;
paths = (
{
closed = 1;
nodes = (
"483 488 LINE",
"465 501 LINE",
"84 -6 LINE",
"102 -19 LINE"
);
}
);
width = 567;
},
{
associatedMasterId = "BE1754C0-A605-45AC-AA12-D3A1FC0C380B";
components = (
{
alignment = -1;
name = o;
},
{
alignment = -1;
name = slashlongcomb;
}
);
layerId = "D4F92898-FE9E-4031-93CC-4B24C74A170D";
name = D;
paths = (
{
closed = 1;
nodes = (
"488 491 LINE",
"470 504 LINE",
"85 -8 LINE",
"103 -21 LINE"
);
}
);
width = 573;
},
{
associatedMasterId = "BE1754C0-A605-45AC-AA12-D3A1FC0C380B";
components = (
{
alignment = -1;
name = o;
},
{
alignment = -1;
name = slashlongcomb;
}
);
layerId = "674859A0-EBFE-4816-8CD7-51AEBE2383D6";
name = B;
paths = (
{
closed = 1;
nodes = (
"493 495 LINE",
"475 508 LINE",
"87 -9 LINE",
"105 -23 LINE"
);
}
);
width = 580;
}
);
unicode = 00F8;
},
{
glyphname = oe;
lastChange = "2020-08-19 14:13:19 +0000";
layers = (
{
layerId = "BE1754C0-A605-45AC-AA12-D3A1FC0C380B";
paths = (
{
closed = 1;
nodes = (
"542 -80 OFFCURVE",
"573 149 OFFCURVE",
"573 244 CURVE SMOOTH",
"573 497 OFFCURVE",
"381 553 OFFCURVE",
"297 553 CURVE SMOOTH",
"104 553 OFFCURVE",
"0 394 OFFCURVE",
"0 223 CURVE SMOOTH",
"0 24 OFFCURVE",
"135 -80 OFFCURVE",
"310 -80 CURVE SMOOTH"
);
},
{
closed = 1;
nodes = (
"212 77 OFFCURVE",
"156 126 OFFCURVE",
"156 225 CURVE SMOOTH",
"156 307 OFFCURVE",
"199 397 OFFCURVE",
"292 397 CURVE SMOOTH",
"343 397 OFFCURVE",
"423 372 OFFCURVE",
"423 231 CURVE SMOOTH",
"423 119 OFFCURVE",
"379 77 OFFCURVE",
"304 77 CURVE SMOOTH"
);
},
{
closed = 1;
nodes = (
"869 -80 OFFCURVE",
"940 -7 OFFCURVE",
"998 53 CURVE",
"902 179 LINE",
"852 125 OFFCURVE",
"790 74 OFFCURVE",
"717 74 CURVE SMOOTH",
"645 74 OFFCURVE",
"575 108 OFFCURVE",
"575 209 CURVE SMOOTH",
"575 255 OFFCURVE",
"589 397 OFFCURVE",
"725 397 CURVE SMOOTH",
"802 397 OFFCURVE",
"816 370 OFFCURVE",
"816 351 CURVE SMOOTH",
"816 309 OFFCURVE",
"678 296 OFFCURVE",
"642 296 CURVE SMOOTH",
"602 296 OFFCURVE",
"560 300 OFFCURVE",
"520 311 CURVE",
"503 178 LINE",
"539 167 OFFCURVE",
"604 150 OFFCURVE",
"687 150 CURVE SMOOTH",
"866 150 OFFCURVE",
"969 243 OFFCURVE",
"969 370 CURVE SMOOTH",
"969 423 OFFCURVE",
"933 552 OFFCURVE",
"729 552 CURVE SMOOTH",
"501 552 OFFCURVE",
"425 364 OFFCURVE",
"425 221 CURVE SMOOTH",
"425 42 OFFCURVE",
"546 -80 OFFCURVE",
"708 -80 CURVE SMOOTH"
);
}
);
width = 1000;
},
{
associatedMasterId = "BE1754C0-A605-45AC-AA12-D3A1FC0C380B";
layerId = "3FC96813-E7C5-45AC-9F0B-5DBEB42CEC4B";
name = E;
paths = (
{
closed = 1;
nodes = (
"446 -13 OFFCURVE",
"547 112 OFFCURVE",
"547 243 CURVE SMOOTH",
"547 375 OFFCURVE",
"446 498 OFFCURVE",
"293 498 CURVE SMOOTH",
"139 498 OFFCURVE",
"38 375 OFFCURVE",
"38 243 CURVE SMOOTH",
"38 112 OFFCURVE",
"139 -13 OFFCURVE",
"293 -13 CURVE SMOOTH"
);
},
{
closed = 1;
nodes = (
"216 13 OFFCURVE",
"174 124 OFFCURVE",
"174 243 CURVE SMOOTH",
"174 364 OFFCURVE",
"216 472 OFFCURVE",
"293 472 CURVE SMOOTH",
"370 472 OFFCURVE",
"412 364 OFFCURVE",
"412 243 CURVE SMOOTH",
"412 124 OFFCURVE",
"370 13 OFFCURVE",
"293 13 CURVE SMOOTH"
);
},
{
closed = 1;
nodes = (
"774 -28 OFFCURVE",
"850 53 OFFCURVE",
"877 112 CURVE SMOOTH",
"881 120 OFFCURVE",
"877 125 OFFCURVE",
"873 128 CURVE SMOOTH",
"868 131 OFFCURVE",
"862 132 OFFCURVE",
"857 125 CURVE SMOOTH",
"812 59 OFFCURVE",
"752 33 OFFCURVE",
"690 38 CURVE SMOOTH",
"627 42 OFFCURVE",
"554 97 OFFCURVE",
"551 234 CURVE SMOOTH",
"548 372 OFFCURVE",
"589 458 OFFCURVE",
"655 461 CURVE SMOOTH",
"710 464 OFFCURVE",
"758 410 OFFCURVE",
"752 317 CURVE",
"491 315 LINE",
"488 286 LINE",
"885 288 LINE",
"871 422 OFFCURVE",
"774 498 OFFCURVE",
"663 498 CURVE SMOOTH",
"502 498 OFFCURVE",
"409 357 OFFCURVE",
"413 232 CURVE SMOOTH",
"416 115 OFFCURVE",
"497 12 OFFCURVE",
"637 -10 CURVE SMOOTH"
);
}
);
width = 923;
},
{
associatedMasterId = "BE1754C0-A605-45AC-AA12-D3A1FC0C380B";
layerId = "56DC1C81-F651-46E9-87C8-388DC3C1949A";
name = "new Layer";
paths = (
{
closed = 1;
nodes = (
"474 -12 OFFCURVE",
"595 95 OFFCURVE",
"595 250 CURVE SMOOTH",
"595 398 OFFCURVE",
"474 509 OFFCURVE",
"309 509 CURVE SMOOTH",
"142 509 OFFCURVE",
"21 398 OFFCURVE",
"21 250 CURVE SMOOTH",
"21 95 OFFCURVE",
"142 -12 OFFCURVE",
"309 -12 CURVE SMOOTH"
);
},
{
closed = 1;
nodes = (
"232 0 OFFCURVE",
"224 131 OFFCURVE",
"224 250 CURVE SMOOTH",
"224 363 OFFCURVE",
"232 497 OFFCURVE",
"309 497 CURVE SMOOTH",
"385 497 OFFCURVE",
"393 363 OFFCURVE",
"393 250 CURVE SMOOTH",
"393 131 OFFCURVE",
"385 0 OFFCURVE",
"309 0 CURVE SMOOTH"
);
},
{
closed = 1;
nodes = (
"785 -27 OFFCURVE",
"867 57 OFFCURVE",
"896 116 CURVE SMOOTH",
"900 123 OFFCURVE",
"891 127 OFFCURVE",
"889 129 CURVE SMOOTH",
"886 131 OFFCURVE",
"878 128 OFFCURVE",
"876 125 CURVE SMOOTH",
"816 37 OFFCURVE",
"742 31 OFFCURVE",
"698 42 CURVE SMOOTH",
"664 51 OFFCURVE",
"607 105 OFFCURVE",
"604 241 CURVE SMOOTH",
"600 383 OFFCURVE",
"621 469 OFFCURVE",
"674 470 CURVE SMOOTH",
"717 472 OFFCURVE",
"745 395 OFFCURVE",
"732 318 CURVE",
"497 316 LINE",
"494 291 LINE",
"911 293 LINE",
"897 431 OFFCURVE",
"775 508 OFFCURVE",
"673 508 CURVE SMOOTH",
"508 508 OFFCURVE",
"391 377 OFFCURVE",
"395 248 CURVE SMOOTH",
"397 129 OFFCURVE",
"488 19 OFFCURVE",
"645 -9 CURVE SMOOTH"
);
}
);
width = 928;
},
{
associatedMasterId = "BE1754C0-A605-45AC-AA12-D3A1FC0C380B";
layerId = "B1A4DE2A-A433-45B8-A685-0F6164F66E71";
name = M;
paths = (
{
closed = 1;
nodes = (
"430 -14 OFFCURVE",
"519 123 OFFCURVE",
"519 239 CURVE SMOOTH",
"519 362 OFFCURVE",
"430 491 OFFCURVE",
"283 491 CURVE SMOOTH",
"138 491 OFFCURVE",
"49 362 OFFCURVE",
"49 239 CURVE SMOOTH",
"49 123 OFFCURVE",
"138 -14 OFFCURVE",
"283 -14 CURVE SMOOTH"
);
},
{
closed = 1;
nodes = (
"206 21 OFFCURVE",
"144 120 OFFCURVE",
"144 239 CURVE SMOOTH",
"144 365 OFFCURVE",
"206 457 OFFCURVE",
"283 457 CURVE SMOOTH",
"361 457 OFFCURVE",
"423 365 OFFCURVE",
"423 239 CURVE SMOOTH",
"423 120 OFFCURVE",
"361 21 OFFCURVE",
"283 21 CURVE SMOOTH"
);
},
{
closed = 1;
nodes = (
"767 -29 OFFCURVE",
"840 51 OFFCURVE",
"866 110 CURVE SMOOTH",
"870 119 OFFCURVE",
"869 124 OFFCURVE",
"863 127 CURVE SMOOTH",
"858 131 OFFCURVE",
"852 134 OFFCURVE",
"846 125 CURVE SMOOTH",
"810 73 OFFCURVE",
"758 35 OFFCURVE",
"686 36 CURVE SMOOTH",
"605 37 OFFCURVE",
"523 93 OFFCURVE",
"520 230 CURVE SMOOTH",
"517 365 OFFCURVE",
"570 451 OFFCURVE",
"644 456 CURVE SMOOTH",
"706 460 OFFCURVE",
"766 419 OFFCURVE",
"764 316 CURVE",
"487 314 LINE",
"484 283 LINE",
"869 285 LINE",
"855 417 OFFCURVE",
"773 492 OFFCURVE",
"657 492 CURVE SMOOTH",
"498 492 OFFCURVE",
"420 345 OFFCURVE",
"424 222 CURVE SMOOTH",
"427 107 OFFCURVE",
"502 8 OFFCURVE",
"633 -11 CURVE SMOOTH"
);
}
);
width = 920;
},
{
associatedMasterId = "BE1754C0-A605-45AC-AA12-D3A1FC0C380B";
layerId = "D4F92898-FE9E-4031-93CC-4B24C74A170D";
name = D;
paths = (
{
closed = 1;
nodes = (
"435 -14 OFFCURVE",
"528 119 OFFCURVE",
"528 240 CURVE SMOOTH",
"528 366 OFFCURVE",
"435 493 OFFCURVE",
"286 493 CURVE SMOOTH",
"138 493 OFFCURVE",
"45 366 OFFCURVE",
"45 240 CURVE SMOOTH",
"45 119 OFFCURVE",
"138 -14 OFFCURVE",
"286 -14 CURVE SMOOTH"
);
},
{
closed = 1;
nodes = (
"209 18 OFFCURVE",
"154 121 OFFCURVE",
"154 240 CURVE SMOOTH",
"154 365 OFFCURVE",
"209 462 OFFCURVE",
"286 462 CURVE SMOOTH",
"364 462 OFFCURVE",
"419 365 OFFCURVE",
"419 240 CURVE SMOOTH",
"419 121 OFFCURVE",
"364 18 OFFCURVE",
"286 18 CURVE SMOOTH"
);
},
{
closed = 1;
nodes = (
"769 -29 OFFCURVE",
"843 52 OFFCURVE",
"870 111 CURVE SMOOTH",
"874 119 OFFCURVE",
"872 124 OFFCURVE",
"866 127 CURVE SMOOTH",
"861 131 OFFCURVE",
"855 133 OFFCURVE",
"850 125 CURVE SMOOTH",
"811 68 OFFCURVE",
"756 34 OFFCURVE",
"687 37 CURVE SMOOTH",
"612 39 OFFCURVE",
"533 94 OFFCURVE",
"530 231 CURVE SMOOTH",
"527 367 OFFCURVE",
"576 453 OFFCURVE",
"648 458 CURVE SMOOTH",
"707 461 OFFCURVE",
"763 416 OFFCURVE",
"760 316 CURVE",
"488 314 LINE",
"485 284 LINE",
"874 286 LINE",
"860 419 OFFCURVE",
"773 494 OFFCURVE",
"659 494 CURVE SMOOTH",
"499 494 OFFCURVE",
"416 349 OFFCURVE",
"420 225 CURVE SMOOTH",
"423 110 OFFCURVE",
"500 9 OFFCURVE",
"634 -11 CURVE SMOOTH"
);
}
);
width = 921;
},
{
associatedMasterId = "BE1754C0-A605-45AC-AA12-D3A1FC0C380B";
layerId = "674859A0-EBFE-4816-8CD7-51AEBE2383D6";
name = B;
paths = (
{
closed = 1;
nodes = (
"441 -13 OFFCURVE",
"538 116 OFFCURVE",
"538 242 CURVE SMOOTH",
"538 371 OFFCURVE",
"441 496 OFFCURVE",
"290 496 CURVE SMOOTH",
"139 496 OFFCURVE",
"42 371 OFFCURVE",
"42 242 CURVE SMOOTH",
"42 116 OFFCURVE",
"139 -13 OFFCURVE",
"290 -13 CURVE SMOOTH"
);
},
{
closed = 1;
nodes = (
"213 16 OFFCURVE",
"164 123 OFFCURVE",
"164 242 CURVE SMOOTH",
"164 364 OFFCURVE",
"213 467 OFFCURVE",
"290 467 CURVE SMOOTH",
"367 467 OFFCURVE",
"416 364 OFFCURVE",
"416 242 CURVE SMOOTH",
"416 123 OFFCURVE",
"367 16 OFFCURVE",
"290 16 CURVE SMOOTH"
);
},
{
closed = 1;
nodes = (
"772 -28 OFFCURVE",
"847 52 OFFCURVE",
"873 111 CURVE SMOOTH",
"877 120 OFFCURVE",
"874 125 OFFCURVE",
"870 128 CURVE SMOOTH",
"865 131 OFFCURVE",
"859 133 OFFCURVE",
"853 125 CURVE SMOOTH",
"811 64 OFFCURVE",
"754 34 OFFCURVE",
"689 37 CURVE SMOOTH",
"620 40 OFFCURVE",
"544 96 OFFCURVE",
"541 233 CURVE SMOOTH",
"538 370 OFFCURVE",
"583 456 OFFCURVE",
"651 459 CURVE SMOOTH",
"709 463 OFFCURVE",
"761 413 OFFCURVE",
"756 317 CURVE",
"490 315 LINE",
"487 285 LINE",
"880 287 LINE",
"866 420 OFFCURVE",
"774 496 OFFCURVE",
"661 496 CURVE SMOOTH",
"501 496 OFFCURVE",
"413 353 OFFCURVE",
"417 229 CURVE SMOOTH",
"420 112 OFFCURVE",
"499 11 OFFCURVE",
"636 -10 CURVE SMOOTH"
);
}
);
width = 921;
}
);
unicode = 0153;
},
{
color = 0;
glyphname = p;
lastChange = "2020-11-07 19:06:59 +0000";
layers = (
{
layerId = "BE1754C0-A605-45AC-AA12-D3A1FC0C380B";
paths = (
{
closed = 1;
nodes = (
"534 -83 OFFCURVE",
"679 18 OFFCURVE",
"679 238 CURVE SMOOTH",
"679 460 OFFCURVE",
"535 547 OFFCURVE",
"389 547 CURVE SMOOTH",
"258 547 OFFCURVE",
"128 472 OFFCURVE",
"105 286 CURVE",
"181 243 LINE",
"218 347 OFFCURVE",
"276 394 OFFCURVE",
"361 394 CURVE SMOOTH",
"408 394 OFFCURVE",
"519 369 OFFCURVE",
"519 246 CURVE SMOOTH",
"519 162 OFFCURVE",
"491 74 OFFCURVE",
"367 74 CURVE SMOOTH",
"267 74 OFFCURVE",
"212 132 OFFCURVE",
"180 186 CURVE",
"106 135 LINE",
"152 -8 OFFCURVE",
"262 -83 OFFCURVE",
"388 -83 CURVE SMOOTH"
);
},
{
closed = 1;
nodes = (
"214 -276 LINE",
"202 -158 OFFCURVE",
"197 -49 OFFCURVE",
"197 91 CURVE SMOOTH",
"197 258 OFFCURVE",
"205 425 OFFCURVE",
"220 551 CURVE",
"61 555 LINE",
"50 413 OFFCURVE",
"44 234 OFFCURVE",
"44 63 CURVE SMOOTH",
"44 -78 OFFCURVE",
"48 -182 OFFCURVE",
"57 -288 CURVE"
);
}
);
width = 705;
}
);
unicode = 0070;
},
{
color = 0;
glyphname = thorn;
lastChange = "2020-11-07 19:07:22 +0000";
layers = (
{
layerId = "BE1754C0-A605-45AC-AA12-D3A1FC0C380B";
paths = (
{
closed = 1;
nodes = (
"558 -82 OFFCURVE",
"703 19 OFFCURVE",
"703 239 CURVE SMOOTH",
"703 461 OFFCURVE",
"559 548 OFFCURVE",
"413 548 CURVE SMOOTH",
"282 548 OFFCURVE",
"152 473 OFFCURVE",
"129 287 CURVE",
"205 244 LINE",
"242 348 OFFCURVE",
"300 395 OFFCURVE",
"385 395 CURVE SMOOTH",
"432 395 OFFCURVE",
"543 370 OFFCURVE",
"543 247 CURVE SMOOTH",
"543 163 OFFCURVE",
"515 75 OFFCURVE",
"391 75 CURVE SMOOTH",
"291 75 OFFCURVE",
"236 133 OFFCURVE",
"204 187 CURVE",
"130 136 LINE",
"176 -7 OFFCURVE",
"286 -82 OFFCURVE",
"412 -82 CURVE SMOOTH"
);
},
{
closed = 1;
nodes = (
"238 -276 LINE",
"226 -158 OFFCURVE",
"221 -48 OFFCURVE",
"221 92 CURVE SMOOTH",
"221 259 OFFCURVE",
"230 481 OFFCURVE",
"263 733 CURVE",
"103 737 LINE",
"76 487 OFFCURVE",
"68 235 OFFCURVE",
"68 64 CURVE SMOOTH",
"68 -77 OFFCURVE",
"72 -182 OFFCURVE",
"81 -288 CURVE"
);
}
);
width = 733;
},
{
associatedMasterId = "BE1754C0-A605-45AC-AA12-D3A1FC0C380B";
layerId = "3FC96813-E7C5-45AC-9F0B-5DBEB42CEC4B";
name = E;
paths = (
{
closed = 1;
nodes = (
"295 -229 LINE",
"301 -229 OFFCURVE",
"303 -223 OFFCURVE",
"303 -217 CURVE",
"303 -211 OFFCURVE",
"301 -206 OFFCURVE",
"295 -206 CURVE",
"285 -206 LINE",
"254 -206 OFFCURVE",
"229 -202 OFFCURVE",
"229 -156 CURVE",
"229 751 LINE",
"229 751 OFFCURVE",
"44 715 OFFCURVE",
"35 712 CURVE",
"27 710 OFFCURVE",
"29 704 OFFCURVE",
"30 699 CURVE",
"31 694 OFFCURVE",
"31 690 OFFCURVE",
"38 689 CURVE",
"79 687 OFFCURVE",
"98 680 OFFCURVE",
"98 634 CURVE",
"99 -156 LINE",
"99 -202 OFFCURVE",
"74 -206 OFFCURVE",
"43 -206 CURVE",
"32 -206 LINE",
"26 -206 OFFCURVE",
"25 -211 OFFCURVE",
"25 -217 CURVE",
"25 -223 OFFCURVE",
"26 -229 OFFCURVE",
"32 -229 CURVE"
);
},
{
closed = 1;
nodes = (
"507 -13 OFFCURVE",
"592 97 OFFCURVE",
"593 250 CURVE",
"593 392 OFFCURVE",
"500 496 OFFCURVE",
"388 498 CURVE",
"279 499 OFFCURVE",
"216 425 OFFCURVE",
"196 399 CURVE",
"196 345 LINE",
"217 403 OFFCURVE",
"291 461 OFFCURVE",
"350 455 CURVE",
"418 449 OFFCURVE",
"457 363 OFFCURVE",
"455 250 CURVE",
"453 128 OFFCURVE",
"416 32 OFFCURVE",
"342 29 CURVE",
"289 27 OFFCURVE",
"215 80 OFFCURVE",
"193 139 CURVE",
"193 86 LINE",
"212 60 OFFCURVE",
"272 -13 OFFCURVE",
"382 -13 CURVE"
);
}
);
width = 631;
},
{
associatedMasterId = "BE1754C0-A605-45AC-AA12-D3A1FC0C380B";
layerId = "56DC1C81-F651-46E9-87C8-388DC3C1949A";
name = "new Layer";
paths = (
{
closed = 1;
nodes = (
"353 -230 LINE",
"359 -230 OFFCURVE",
"360 -223 OFFCURVE",
"360 -221 CURVE",
"360 -218 OFFCURVE",
"359 -212 OFFCURVE",
"353 -212 CURVE",
"345 -212 LINE",
"314 -212 OFFCURVE",
"299 -208 OFFCURVE",
"299 -152 CURVE",
"298 771 LINE",
"298 771 OFFCURVE",
"52 731 OFFCURVE",
"51 732 CURVE",
"41 730 OFFCURVE",
"46 720 OFFCURVE",
"47 720 CURVE",
"48 718 OFFCURVE",
"49 712 OFFCURVE",
"54 712 CURVE",
"94 712 OFFCURVE",
"97 699 OFFCURVE",
"96 652 CURVE",
"94 -152 LINE",
"94 -208 OFFCURVE",
"80 -212 OFFCURVE",
"49 -212 CURVE",
"40 -212 LINE",
"34 -212 OFFCURVE",
"34 -218 OFFCURVE",
"34 -221 CURVE",
"34 -223 OFFCURVE",
"34 -230 OFFCURVE",
"40 -230 CURVE"
);
},
{
closed = 1;
nodes = (
"593 -12 OFFCURVE",
"671 92 OFFCURVE",
"669 276 CURVE",
"666 425 OFFCURVE",
"553 518 OFFCURVE",
"447 510 CURVE",
"336 503 OFFCURVE",
"288 435 OFFCURVE",
"267 408 CURVE",
"267 347 LINE",
"290 406 OFFCURVE",
"345 475 OFFCURVE",
"402 469 CURVE",
"458 466 OFFCURVE",
"461 366 OFFCURVE",
"464 276 CURVE",
"467 170 OFFCURVE",
"460 21 OFFCURVE",
"373 27 CURVE",
"339 34 OFFCURVE",
"277 88 OFFCURVE",
"254 148 CURVE",
"254 89 LINE",
"275 63 OFFCURVE",
"337 -12 OFFCURVE",
"448 -12 CURVE"
);
}
);
width = 691;
},
{
associatedMasterId = "BE1754C0-A605-45AC-AA12-D3A1FC0C380B";
layerId = "B1A4DE2A-A433-45B8-A685-0F6164F66E71";
name = M;
paths = (
{
closed = 1;
nodes = (
"261 -228 LINE",
"267 -228 OFFCURVE",
"269 -223 OFFCURVE",
"269 -215 CURVE",
"269 -207 OFFCURVE",
"267 -202 OFFCURVE",
"261 -202 CURVE",
"249 -202 LINE",
"218 -202 OFFCURVE",
"187 -198 OFFCURVE",
"187 -158 CURVE",
"188 739 LINE",
"188 739 OFFCURVE",
"40 705 OFFCURVE",
"25 700 CURVE",
"19 698 OFFCURVE",
"19 694 OFFCURVE",
"20 686 CURVE",
"21 680 OFFCURVE",
"21 677 OFFCURVE",
"28 676 CURVE",
"70 672 OFFCURVE",
"99 669 OFFCURVE",
"100 624 CURVE",
"102 -158 LINE",
"102 -198 OFFCURVE",
"70 -202 OFFCURVE",
"39 -202 CURVE",
"28 -202 LINE",
"22 -202 OFFCURVE",
"20 -207 OFFCURVE",
"20 -215 CURVE",
"20 -223 OFFCURVE",
"22 -228 OFFCURVE",
"28 -228 CURVE"
);
},
{
closed = 1;
nodes = (
"455 -14 OFFCURVE",
"545 100 OFFCURVE",
"547 234 CURVE",
"550 373 OFFCURVE",
"469 483 OFFCURVE",
"353 491 CURVE",
"245 497 OFFCURVE",
"173 419 OFFCURVE",
"153 394 CURVE",
"153 344 LINE",
"174 402 OFFCURVE",
"259 453 OFFCURVE",
"319 447 CURVE",
"394 439 OFFCURVE",
"455 362 OFFCURVE",
"450 234 CURVE",
"445 103 OFFCURVE",
"390 39 OFFCURVE",
"323 31 CURVE",
"259 23 OFFCURVE",
"178 76 OFFCURVE",
"156 134 CURVE",
"156 85 LINE",
"175 59 OFFCURVE",
"233 -14 OFFCURVE",
"342 -14 CURVE"
);
}
);
width = 595;
},
{
associatedMasterId = "BE1754C0-A605-45AC-AA12-D3A1FC0C380B";
layerId = "D4F92898-FE9E-4031-93CC-4B24C74A170D";
name = D;
paths = (
{
closed = 1;
nodes = (
"272 -228 LINE",
"278 -228 OFFCURVE",
"280 -223 OFFCURVE",
"280 -216 CURVE",
"280 -208 OFFCURVE",
"278 -203 OFFCURVE",
"272 -203 CURVE",
"261 -203 LINE",
"230 -203 OFFCURVE",
"201 -199 OFFCURVE",
"201 -157 CURVE",
"202 743 LINE",
"202 743 OFFCURVE",
"41 708 OFFCURVE",
"28 704 CURVE",
"22 702 OFFCURVE",
"22 697 OFFCURVE",
"23 690 CURVE",
"24 685 OFFCURVE",
"24 681 OFFCURVE",
"31 680 CURVE",
"73 677 OFFCURVE",
"99 673 OFFCURVE",
"99 627 CURVE",
"101 -157 LINE",
"101 -199 OFFCURVE",
"71 -203 OFFCURVE",
"40 -203 CURVE",
"29 -203 LINE",
"23 -203 OFFCURVE",
"22 -208 OFFCURVE",
"22 -216 CURVE",
"22 -223 OFFCURVE",
"23 -228 OFFCURVE",
"29 -228 CURVE"
);
},
{
closed = 1;
nodes = (
"472 -14 OFFCURVE",
"561 99 OFFCURVE",
"562 239 CURVE",
"564 379 OFFCURVE",
"479 487 OFFCURVE",
"365 493 CURVE",
"256 498 OFFCURVE",
"187 421 OFFCURVE",
"167 396 CURVE",
"167 344 LINE",
"188 402 OFFCURVE",
"270 456 OFFCURVE",
"329 450 CURVE",
"402 442 OFFCURVE",
"456 362 OFFCURVE",
"452 239 CURVE",
"448 111 OFFCURVE",
"399 37 OFFCURVE",
"329 30 CURVE",
"269 24 OFFCURVE",
"190 77 OFFCURVE",
"168 136 CURVE",
"168 85 LINE",
"187 59 OFFCURVE",
"246 -14 OFFCURVE",
"355 -14 CURVE"
);
}
);
width = 607;
},
{
associatedMasterId = "BE1754C0-A605-45AC-AA12-D3A1FC0C380B";
layerId = "674859A0-EBFE-4816-8CD7-51AEBE2383D6";
name = B;
paths = (
{
closed = 1;
nodes = (
"284 -229 LINE",
"290 -229 OFFCURVE",
"292 -223 OFFCURVE",
"292 -216 CURVE",
"292 -210 OFFCURVE",
"290 -205 OFFCURVE",
"284 -205 CURVE",
"273 -205 LINE",
"242 -205 OFFCURVE",
"215 -201 OFFCURVE",
"215 -157 CURVE",
"215 747 LINE",
"215 747 OFFCURVE",
"43 712 OFFCURVE",
"32 708 CURVE",
"24 706 OFFCURVE",
"26 701 OFFCURVE",
"27 695 CURVE",
"28 689 OFFCURVE",
"28 686 OFFCURVE",
"35 685 CURVE",
"76 682 OFFCURVE",
"98 676 OFFCURVE",
"99 631 CURVE",
"100 -157 LINE",
"100 -201 OFFCURVE",
"73 -205 OFFCURVE",
"42 -205 CURVE",
"31 -205 LINE",
"25 -205 OFFCURVE",
"23 -210 OFFCURVE",
"23 -216 CURVE",
"23 -223 OFFCURVE",
"25 -229 OFFCURVE",
"31 -229 CURVE"
);
},
{
closed = 1;
nodes = (
"490 -13 OFFCURVE",
"576 98 OFFCURVE",
"578 245 CURVE",
"579 386 OFFCURVE",
"490 492 OFFCURVE",
"376 496 CURVE",
"268 498 OFFCURVE",
"202 423 OFFCURVE",
"182 397 CURVE",
"182 345 LINE",
"203 403 OFFCURVE",
"280 458 OFFCURVE",
"340 452 CURVE",
"410 446 OFFCURVE",
"456 363 OFFCURVE",
"453 245 CURVE",
"450 120 OFFCURVE",
"407 34 OFFCURVE",
"336 30 CURVE",
"279 26 OFFCURVE",
"203 79 OFFCURVE",
"181 137 CURVE",
"181 86 LINE",
"200 60 OFFCURVE",
"259 -13 OFFCURVE",
"369 -13 CURVE"
);
}
);
width = 619;
}
);
unicode = 00FE;
},
{
color = 0;
glyphname = q;
lastChange = "2020-11-07 19:07:38 +0000";
layers = (
{
layerId = "BE1754C0-A605-45AC-AA12-D3A1FC0C380B";
paths = (
{
closed = 1;
nodes = (
"405 -83 OFFCURVE",
"538 -58 OFFCURVE",
"603 146 CURVE",
"537 188 LINE",
"503 133 OFFCURVE",
"448 71 OFFCURVE",
"325 71 CURVE SMOOTH",
"225 71 OFFCURVE",
"180 136 OFFCURVE",
"180 217 CURVE SMOOTH",
"180 313 OFFCURVE",
"250 391 OFFCURVE",
"354 391 CURVE SMOOTH",
"441 391 OFFCURVE",
"497 345 OFFCURVE",
"535 239 CURVE",
"624 290 LINE",
"601 436 OFFCURVE",
"507 544 OFFCURVE",
"344 544 CURVE SMOOTH",
"209 544 OFFCURVE",
"26 434 OFFCURVE",
"26 225 CURVE SMOOTH",
"26 -2 OFFCURVE",
"187 -83 OFFCURVE",
"312 -83 CURVE SMOOTH"
);
},
{
closed = 1;
nodes = (
"639 -279 LINE",
"623 -56 OFFCURVE",
"628 275 OFFCURVE",
"664 540 CURVE",
"508 557 LINE",
"481 276 OFFCURVE",
"468 -71 OFFCURVE",
"482 -287 CURVE"
);
}
);
width = 698;
}
);
unicode = 0071;
},
{
glyphname = r;
lastChange = "2020-06-02 14:26:53 +0000";
layers = (
{
layerId = "BE1754C0-A605-45AC-AA12-D3A1FC0C380B";
paths = (
{
closed = 1;
nodes = (
"210 290 OFFCURVE",
"287 398 OFFCURVE",
"390 398 CURVE SMOOTH",
"414 398 OFFCURVE",
"453 391 OFFCURVE",
"487 374 CURVE",
"504 530 LINE",
"460 549 OFFCURVE",
"416 555 OFFCURVE",
"389 555 CURVE SMOOTH",
"240 555 OFFCURVE",
"160 403 OFFCURVE",
"127 269 CURVE",
"202 84 LINE"
);
},
{
closed = 1;
nodes = (
"203 -76 LINE",
"208 -5 OFFCURVE",
"210 89 OFFCURVE",
"210 188 CURVE SMOOTH",
"210 311 OFFCURVE",
"207 440 OFFCURVE",
"203 542 CURVE",
"47 537 LINE",
"52 446 OFFCURVE",
"54 350 OFFCURVE",
"55 252 CURVE SMOOTH",
"55 144 OFFCURVE",
"52 33 OFFCURVE",
"47 -76 CURVE"
);
}
);
width = 501;
}
);
unicode = 0072;
},
{
glyphname = s;
lastChange = "2020-06-02 14:26:47 +0000";
layers = (
{
layerId = "BE1754C0-A605-45AC-AA12-D3A1FC0C380B";
paths = (
{
closed = 1;
nodes = (
"490 -78 OFFCURVE",
"613 -16 OFFCURVE",
"613 121 CURVE SMOOTH",
"613 268 OFFCURVE",
"459 283 OFFCURVE",
"347 309 CURVE SMOOTH",
"257 330 OFFCURVE",
"220 343 OFFCURVE",
"220 368 CURVE SMOOTH",
"220 400 OFFCURVE",
"253 418 OFFCURVE",
"303 418 CURVE SMOOTH",
"366 418 OFFCURVE",
"453 392 OFFCURVE",
"515 352 CURVE",
"595 478 LINE",
"520 520 OFFCURVE",
"443 550 OFFCURVE",
"330 550 CURVE SMOOTH",
"194 550 OFFCURVE",
"69 487 OFFCURVE",
"69 363 CURVE SMOOTH",
"69 246 OFFCURVE",
"171 209 OFFCURVE",
"290 179 CURVE SMOOTH",
"375 158 OFFCURVE",
"467 154 OFFCURVE",
"467 115 CURVE SMOOTH",
"467 86 OFFCURVE",
"427 66 OFFCURVE",
"365 66 CURVE SMOOTH",
"267 66 OFFCURVE",
"194 84 OFFCURVE",
"114 159 CURVE",
"34 27 LINE",
"106 -26 OFFCURVE",
"204 -78 OFFCURVE",
"334 -78 CURVE SMOOTH"
);
}
);
width = 647;
}
);
unicode = 0073;
},
{
glyphname = germandbls;
lastChange = "2020-08-15 18:43:56 +0000";
layers = (
{
layerId = "BE1754C0-A605-45AC-AA12-D3A1FC0C380B";
paths = (
{
closed = 1;
nodes = (
"220 92 OFFCURVE",
"236 422 OFFCURVE",
"244 494 CURVE SMOOTH",
"252 566 OFFCURVE",
"282 661 OFFCURVE",
"384 666 CURVE SMOOTH",
"465 670 OFFCURVE",
"506 645 OFFCURVE",
"508 592 CURVE SMOOTH",
"510 537 OFFCURVE",
"471 472 OFFCURVE",
"338 468 CURVE",
"342 322 LINE",
"380 334 OFFCURVE",
"558 318 OFFCURVE",
"558 196 CURVE SMOOTH",
"558 74 OFFCURVE",
"431 56 OFFCURVE",
"301 102 CURVE",
"252 -54 LINE",
"377 -84 OFFCURVE",
"699 -138 OFFCURVE",
"717 182 CURVE SMOOTH",
"724 312 OFFCURVE",
"624 412 OFFCURVE",
"500 424 CURVE",
"512 386 LINE",
"544 392 OFFCURVE",
"660 436 OFFCURVE",
"660 590 CURVE SMOOTH",
"660 744 OFFCURVE",
"555 823 OFFCURVE",
"404 822 CURVE SMOOTH",
"250 821 OFFCURVE",
"108 744 OFFCURVE",
"92 510 CURVE SMOOTH",
"77 296 OFFCURVE",
"64 80 OFFCURVE",
"50 -62 CURVE",
"206 -64 LINE"
);
}
);
width = 732;
},
{
associatedMasterId = "BE1754C0-A605-45AC-AA12-D3A1FC0C380B";
layerId = "3FC96813-E7C5-45AC-9F0B-5DBEB42CEC4B";
name = E;
paths = (
{
closed = 1;
nodes = (
"522 -11 OFFCURVE",
"642 43 OFFCURVE",
"642 187 CURVE SMOOTH",
"642 372 OFFCURVE",
"424 398 OFFCURVE",
"391 402 CURVE",
"421 407 OFFCURVE",
"593 422 OFFCURVE",
"593 573 CURVE SMOOTH",
"593 680 OFFCURVE",
"504 766 OFFCURVE",
"347 766 CURVE SMOOTH",
"132 766 OFFCURVE",
"111 584 OFFCURVE",
"111 479 CURVE SMOOTH",
"111 73 LINE SMOOTH",
"111 27 OFFCURVE",
"80 23 OFFCURVE",
"49 23 CURVE SMOOTH",
"39 23 LINE SMOOTH",
"33 23 OFFCURVE",
"31 18 OFFCURVE",
"31 11 CURVE SMOOTH",
"31 6 OFFCURVE",
"33 0 OFFCURVE",
"39 0 CURVE SMOOTH",
"313 0 LINE SMOOTH",
"319 0 OFFCURVE",
"320 6 OFFCURVE",
"320 11 CURVE SMOOTH",
"320 18 OFFCURVE",
"319 23 OFFCURVE",
"313 23 CURVE SMOOTH",
"303 23 LINE SMOOTH",
"272 23 OFFCURVE",
"241 27 OFFCURVE",
"241 73 CURVE",
"241 73 OFFCURVE",
"239 345 OFFCURVE",
"241 482 CURVE SMOOTH",
"242 619 OFFCURVE",
"270 731 OFFCURVE",
"351 731 CURVE SMOOTH",
"413 731 OFFCURVE",
"453 651 OFFCURVE",
"452 573 CURVE SMOOTH",
"451 516 OFFCURVE",
"440 428 OFFCURVE",
"365 417 CURVE SMOOTH",
"350 414 OFFCURVE",
"340 416 OFFCURVE",
"330 416 CURVE SMOOTH",
"320 416 OFFCURVE",
"314 409 OFFCURVE",
"314 402 CURVE SMOOTH",
"314 395 OFFCURVE",
"322 389 OFFCURVE",
"332 389 CURVE SMOOTH",
"345 389 OFFCURVE",
"351 391 OFFCURVE",
"364 387 CURVE SMOOTH",
"460 360 OFFCURVE",
"495 310 OFFCURVE",
"495 191 CURVE SMOOTH",
"495 77 OFFCURVE",
"475 27 OFFCURVE",
"448 27 CURVE SMOOTH",
"420 27 OFFCURVE",
"426 54 OFFCURVE",
"425 79 CURVE SMOOTH",
"422 98 OFFCURVE",
"415 119 OFFCURVE",
"389 128 CURVE SMOOTH",
"333 148 OFFCURVE",
"301 100 OFFCURVE",
"313 57 CURVE SMOOTH",
"324 20 OFFCURVE",
"360 -3 OFFCURVE",
"433 -6 CURVE SMOOTH"
);
}
);
width = 674;
},
{
associatedMasterId = "BE1754C0-A605-45AC-AA12-D3A1FC0C380B";
layerId = "56DC1C81-F651-46E9-87C8-388DC3C1949A";
name = "new Layer";
paths = (
{
closed = 1;
nodes = (
"563 -17 OFFCURVE",
"715 34 OFFCURVE",
"715 187 CURVE SMOOTH",
"715 372 OFFCURVE",
"456 398 OFFCURVE",
"423 402 CURVE",
"466 409 OFFCURVE",
"685 418 OFFCURVE",
"685 573 CURVE SMOOTH",
"685 665 OFFCURVE",
"619 779 OFFCURVE",
"379 779 CURVE SMOOTH",
"106 779 OFFCURVE",
"106 550 OFFCURVE",
"106 491 CURVE SMOOTH",
"106 78 LINE SMOOTH",
"106 22 OFFCURVE",
"80 18 OFFCURVE",
"48 18 CURVE SMOOTH",
"41 18 LINE SMOOTH",
"35 18 OFFCURVE",
"34 13 OFFCURVE",
"34 9 CURVE SMOOTH",
"34 7 OFFCURVE",
"35 0 OFFCURVE",
"41 0 CURVE SMOOTH",
"376 0 LINE SMOOTH",
"383 0 OFFCURVE",
"383 7 OFFCURVE",
"383 9 CURVE SMOOTH",
"383 13 OFFCURVE",
"383 18 OFFCURVE",
"376 18 CURVE SMOOTH",
"369 18 LINE SMOOTH",
"337 18 OFFCURVE",
"310 22 OFFCURVE",
"310 78 CURVE",
"310 78 OFFCURVE",
"312 398 OFFCURVE",
"310 495 CURVE SMOOTH",
"307 592 OFFCURVE",
"335 746 OFFCURVE",
"393 746 CURVE SMOOTH",
"444 746 OFFCURVE",
"477 655 OFFCURVE",
"474 573 CURVE SMOOTH",
"472 516 OFFCURVE",
"466 429 OFFCURVE",
"397 417 CURVE SMOOTH",
"382 413 OFFCURVE",
"372 416 OFFCURVE",
"362 416 CURVE SMOOTH",
"352 416 OFFCURVE",
"346 409 OFFCURVE",
"346 402 CURVE SMOOTH",
"346 395 OFFCURVE",
"354 389 OFFCURVE",
"364 389 CURVE SMOOTH",
"377 389 OFFCURVE",
"383 391 OFFCURVE",
"396 387 CURVE SMOOTH",
"492 360 OFFCURVE",
"496 310 OFFCURVE",
"496 191 CURVE SMOOTH",
"496 77 OFFCURVE",
"484 27 OFFCURVE",
"466 27 CURVE SMOOTH",
"434 27 OFFCURVE",
"459 78 OFFCURVE",
"462 101 CURVE SMOOTH",
"460 124 OFFCURVE",
"458 146 OFFCURVE",
"427 154 CURVE SMOOTH",
"352 179 OFFCURVE",
"312 117 OFFCURVE",
"323 66 CURVE SMOOTH",
"334 24 OFFCURVE",
"363 1 OFFCURVE",
"461 -6 CURVE SMOOTH"
);
}
);
width = 749;
},
{
associatedMasterId = "BE1754C0-A605-45AC-AA12-D3A1FC0C380B";
layerId = "B1A4DE2A-A433-45B8-A685-0F6164F66E71";
name = M;
paths = (
{
closed = 1;
nodes = (
"497 -7 OFFCURVE",
"599 48 OFFCURVE",
"599 187 CURVE SMOOTH",
"599 372 OFFCURVE",
"405 398 OFFCURVE",
"372 402 CURVE",
"394 406 OFFCURVE",
"538 424 OFFCURVE",
"538 573 CURVE SMOOTH",
"538 689 OFFCURVE",
"435 759 OFFCURVE",
"328 759 CURVE SMOOTH",
"148 759 OFFCURVE",
"114 604 OFFCURVE",
"114 472 CURVE SMOOTH",
"114 70 LINE SMOOTH",
"114 30 OFFCURVE",
"80 26 OFFCURVE",
"50 26 CURVE SMOOTH",
"38 26 LINE SMOOTH",
"32 26 OFFCURVE",
"30 21 OFFCURVE",
"30 13 CURVE SMOOTH",
"30 5 OFFCURVE",
"32 0 OFFCURVE",
"38 0 CURVE SMOOTH",
"276 0 LINE SMOOTH",
"281 0 OFFCURVE",
"283 5 OFFCURVE",
"283 13 CURVE SMOOTH",
"283 21 OFFCURVE",
"281 26 OFFCURVE",
"276 26 CURVE SMOOTH",
"263 26 LINE SMOOTH",
"233 26 OFFCURVE",
"200 30 OFFCURVE",
"200 70 CURVE",
"200 70 OFFCURVE",
"196 314 OFFCURVE",
"200 475 CURVE SMOOTH",
"203 636 OFFCURVE",
"231 722 OFFCURVE",
"326 722 CURVE SMOOTH",
"394 722 OFFCURVE",
"439 649 OFFCURVE",
"439 573 CURVE SMOOTH",
"438 516 OFFCURVE",
"424 427 OFFCURVE",
"346 417 CURVE SMOOTH",
"331 415 OFFCURVE",
"321 416 OFFCURVE",
"311 416 CURVE SMOOTH",
"301 416 OFFCURVE",
"295 409 OFFCURVE",
"295 402 CURVE SMOOTH",
"295 395 OFFCURVE",
"303 389 OFFCURVE",
"313 389 CURVE SMOOTH",
"326 389 OFFCURVE",
"332 391 OFFCURVE",
"345 387 CURVE SMOOTH",
"441 360 OFFCURVE",
"494 310 OFFCURVE",
"494 191 CURVE SMOOTH",
"494 77 OFFCURVE",
"470 27 OFFCURVE",
"438 27 CURVE SMOOTH",
"412 27 OFFCURVE",
"407 40 OFFCURVE",
"403 66 CURVE SMOOTH",
"400 82 OFFCURVE",
"390 103 OFFCURVE",
"367 112 CURVE SMOOTH",
"322 129 OFFCURVE",
"294 90 OFFCURVE",
"307 52 CURVE SMOOTH",
"318 18 OFFCURVE",
"359 -5 OFFCURVE",
"417 -6 CURVE SMOOTH"
);
}
);
width = 628;
},
{
associatedMasterId = "BE1754C0-A605-45AC-AA12-D3A1FC0C380B";
layerId = "D4F92898-FE9E-4031-93CC-4B24C74A170D";
name = D;
paths = (
{
closed = 1;
nodes = (
"505 -8 OFFCURVE",
"613 46 OFFCURVE",
"613 187 CURVE SMOOTH",
"613 372 OFFCURVE",
"411 398 OFFCURVE",
"378 402 CURVE",
"403 406 OFFCURVE",
"556 423 OFFCURVE",
"556 573 CURVE SMOOTH",
"556 686 OFFCURVE",
"458 761 OFFCURVE",
"334 761 CURVE SMOOTH",
"143 761 OFFCURVE",
"113 597 OFFCURVE",
"113 474 CURVE SMOOTH",
"113 71 LINE SMOOTH",
"113 29 OFFCURVE",
"80 25 OFFCURVE",
"50 25 CURVE SMOOTH",
"38 25 LINE SMOOTH",
"32 25 OFFCURVE",
"30 20 OFFCURVE",
"30 12 CURVE SMOOTH",
"30 5 OFFCURVE",
"32 0 OFFCURVE",
"38 0 CURVE SMOOTH",
"288 0 LINE SMOOTH",
"294 0 OFFCURVE",
"295 5 OFFCURVE",
"295 12 CURVE SMOOTH",
"295 20 OFFCURVE",
"294 25 OFFCURVE",
"288 25 CURVE SMOOTH",
"276 25 LINE SMOOTH",
"246 25 OFFCURVE",
"214 29 OFFCURVE",
"214 71 CURVE",
"214 71 OFFCURVE",
"210 324 OFFCURVE",
"214 477 CURVE SMOOTH",
"216 630 OFFCURVE",
"244 725 OFFCURVE",
"334 725 CURVE SMOOTH",
"400 725 OFFCURVE",
"444 650 OFFCURVE",
"443 573 CURVE SMOOTH",
"442 516 OFFCURVE",
"429 427 OFFCURVE",
"352 417 CURVE SMOOTH",
"337 415 OFFCURVE",
"327 416 OFFCURVE",
"317 416 CURVE SMOOTH",
"307 416 OFFCURVE",
"301 409 OFFCURVE",
"301 402 CURVE SMOOTH",
"301 395 OFFCURVE",
"309 389 OFFCURVE",
"319 389 CURVE SMOOTH",
"332 389 OFFCURVE",
"338 391 OFFCURVE",
"351 387 CURVE SMOOTH",
"447 360 OFFCURVE",
"494 310 OFFCURVE",
"494 191 CURVE SMOOTH",
"494 77 OFFCURVE",
"472 27 OFFCURVE",
"441 27 CURVE SMOOTH",
"415 27 OFFCURVE",
"413 45 OFFCURVE",
"410 70 CURVE SMOOTH",
"407 87 OFFCURVE",
"398 108 OFFCURVE",
"374 117 CURVE SMOOTH",
"326 135 OFFCURVE",
"296 93 OFFCURVE",
"309 54 CURVE SMOOTH",
"320 19 OFFCURVE",
"359 -4 OFFCURVE",
"422 -6 CURVE SMOOTH"
);
}
);
width = 643;
},
{
associatedMasterId = "BE1754C0-A605-45AC-AA12-D3A1FC0C380B";
layerId = "674859A0-EBFE-4816-8CD7-51AEBE2383D6";
name = B;
paths = (
{
closed = 1;
nodes = (
"514 -10 OFFCURVE",
"628 45 OFFCURVE",
"628 187 CURVE SMOOTH",
"628 372 OFFCURVE",
"418 398 OFFCURVE",
"385 402 CURVE",
"412 407 OFFCURVE",
"575 423 OFFCURVE",
"575 573 CURVE SMOOTH",
"575 683 OFFCURVE",
"481 764 OFFCURVE",
"341 764 CURVE SMOOTH",
"137 764 OFFCURVE",
"112 591 OFFCURVE",
"112 477 CURVE SMOOTH",
"112 72 LINE SMOOTH",
"112 28 OFFCURVE",
"80 24 OFFCURVE",
"49 24 CURVE SMOOTH",
"39 24 LINE SMOOTH",
"33 24 OFFCURVE",
"31 19 OFFCURVE",
"31 12 CURVE SMOOTH",
"31 6 OFFCURVE",
"33 0 OFFCURVE",
"39 0 CURVE SMOOTH",
"301 0 LINE SMOOTH",
"306 0 OFFCURVE",
"308 6 OFFCURVE",
"308 12 CURVE SMOOTH",
"308 19 OFFCURVE",
"306 24 OFFCURVE",
"301 24 CURVE SMOOTH",
"290 24 LINE SMOOTH",
"259 24 OFFCURVE",
"227 28 OFFCURVE",
"227 72 CURVE",
"227 72 OFFCURVE",
"225 335 OFFCURVE",
"227 480 CURVE SMOOTH",
"229 625 OFFCURVE",
"257 728 OFFCURVE",
"343 728 CURVE SMOOTH",
"407 728 OFFCURVE",
"448 650 OFFCURVE",
"448 573 CURVE SMOOTH",
"447 516 OFFCURVE",
"435 428 OFFCURVE",
"359 417 CURVE SMOOTH",
"344 414 OFFCURVE",
"334 416 OFFCURVE",
"324 416 CURVE SMOOTH",
"314 416 OFFCURVE",
"308 409 OFFCURVE",
"308 402 CURVE SMOOTH",
"308 395 OFFCURVE",
"316 389 OFFCURVE",
"326 389 CURVE SMOOTH",
"339 389 OFFCURVE",
"345 391 OFFCURVE",
"358 387 CURVE SMOOTH",
"454 360 OFFCURVE",
"495 310 OFFCURVE",
"495 191 CURVE SMOOTH",
"495 77 OFFCURVE",
"473 27 OFFCURVE",
"445 27 CURVE SMOOTH",
"417 27 OFFCURVE",
"420 49 OFFCURVE",
"418 75 CURVE SMOOTH",
"415 93 OFFCURVE",
"407 114 OFFCURVE",
"382 123 CURVE SMOOTH",
"329 142 OFFCURVE",
"299 97 OFFCURVE",
"311 55 CURVE SMOOTH",
"322 19 OFFCURVE",
"360 -4 OFFCURVE",
"428 -6 CURVE SMOOTH"
);
}
);
width = 659;
}
);
unicode = 00DF;
},
{
glyphname = t;
lastChange = "2020-08-16 10:04:41 +0000";
layers = (
{
layerId = "BE1754C0-A605-45AC-AA12-D3A1FC0C380B";
paths = (
{
closed = 1;
nodes = (
"423 -80 OFFCURVE",
"494 -48 OFFCURVE",
"556 10 CURVE",
"485 156 LINE",
"457 115 OFFCURVE",
"407 77 OFFCURVE",
"371 77 CURVE SMOOTH",
"331 77 OFFCURVE",
"334 156 OFFCURVE",
"334 213 CURVE SMOOTH",
"334 364 OFFCURVE",
"358 586 OFFCURVE",
"396 758 CURVE",
"237 772 LINE",
"204 550 OFFCURVE",
"183 398 OFFCURVE",
"183 240 CURVE SMOOTH",
"183 65 OFFCURVE",
"193 -80 OFFCURVE",
"349 -80 CURVE SMOOTH"
);
},
{
closed = 1;
nodes = (
"164 390 OFFCURVE",
"285 402 OFFCURVE",
"398 402 CURVE SMOOTH",
"448 402 OFFCURVE",
"497 400 OFFCURVE",
"543 395 CURVE",
"561 540 LINE",
"506 546 OFFCURVE",
"444 549 OFFCURVE",
"379 550 CURVE SMOOTH",
"262 552 OFFCURVE",
"135 538 OFFCURVE",
"26 510 CURVE",
"54 366 LINE"
);
}
);
width = 587;
}
);
unicode = 0074;
},
{
glyphname = u;
lastChange = "2020-08-16 10:04:43 +0000";
layers = (
{
layerId = "BE1754C0-A605-45AC-AA12-D3A1FC0C380B";
paths = (
{
closed = 1;
nodes = (
"556 -74 OFFCURVE",
"544 225 OFFCURVE",
"572 541 CURVE",
"422 538 LINE",
"427 150 OFFCURVE",
"358 75 OFFCURVE",
"284 71 CURVE SMOOTH",
"244 69 OFFCURVE",
"208 97 OFFCURVE",
"203 239 CURVE SMOOTH",
"199 361 OFFCURVE",
"218 488 OFFCURVE",
"226 542 CURVE",
"57 531 LINE",
"49 419 OFFCURVE",
"44 331 OFFCURVE",
"47 237 CURVE SMOOTH",
"54 34 OFFCURVE",
"108 -84 OFFCURVE",
"276 -80 CURVE SMOOTH"
);
},
{
closed = 1;
nodes = (
"605 -76 OFFCURVE",
"624 -74 OFFCURVE",
"646 -71 CURVE",
"653 83 LINE",
"638 76 OFFCURVE",
"623 71 OFFCURVE",
"610 71 CURVE SMOOTH",
"558 71 OFFCURVE",
"565 147 OFFCURVE",
"565 203 CURVE SMOOTH",
"565 243 OFFCURVE",
"573 389 OFFCURVE",
"596 542 CURVE",
"441 538 LINE",
"437 492 OFFCURVE",
"436 452 OFFCURVE",
"433 415 CURVE SMOOTH",
"416 208 OFFCURVE",
"433 103 OFFCURVE",
"441 44 CURVE SMOOTH",
"450 -20 OFFCURVE",
"503 -76 OFFCURVE",
"587 -76 CURVE SMOOTH"
);
}
);
width = 689;
}
);
unicode = 0075;
},
{
glyphname = v;
lastChange = "2020-06-02 14:27:13 +0000";
layers = (
{
layerId = "BE1754C0-A605-45AC-AA12-D3A1FC0C380B";
paths = (
{
closed = 1;
nodes = (
"416 -76 OFFCURVE",
"468 7 OFFCURVE",
"500 63 CURVE SMOOTH",
"561 167 OFFCURVE",
"608 272 OFFCURVE",
"677 522 CURVE",
"513 554 LINE",
"474 359 OFFCURVE",
"421 226 OFFCURVE",
"362 122 CURVE SMOOTH",
"352 105 OFFCURVE",
"346 96 OFFCURVE",
"340 96 CURVE SMOOTH",
"334 96 OFFCURVE",
"329 105 OFFCURVE",
"319 122 CURVE SMOOTH",
"269 202 OFFCURVE",
"221 363 OFFCURVE",
"203 550 CURVE",
"36 526 LINE",
"59 367 OFFCURVE",
"113 199 OFFCURVE",
"177 73 CURVE SMOOTH",
"211 5 OFFCURVE",
"255 -76 OFFCURVE",
"335 -76 CURVE SMOOTH"
);
}
);
width = 713;
}
);
unicode = 0076;
},
{
glyphname = w;
lastChange = "2020-06-02 14:27:18 +0000";
layers = (
{
layerId = "BE1754C0-A605-45AC-AA12-D3A1FC0C380B";
paths = (
{
closed = 1;
nodes = (
"631 -81 OFFCURVE",
"684 -65 OFFCURVE",
"731 37 CURVE SMOOTH",
"781 145 OFFCURVE",
"838 341 OFFCURVE",
"873 533 CURVE",
"721 565 LINE",
"697 377 OFFCURVE",
"652 213 OFFCURVE",
"620 125 CURVE SMOOTH",
"610 100 OFFCURVE",
"603 86 OFFCURVE",
"595 86 CURVE SMOOTH",
"587 86 OFFCURVE",
"580 101 OFFCURVE",
"569 128 CURVE SMOOTH",
"548 181 OFFCURVE",
"506 433 OFFCURVE",
"507 537 CURVE",
"351 531 LINE",
"363 410 OFFCURVE",
"422 101 OFFCURVE",
"477 3 CURVE SMOOTH",
"514 -64 OFFCURVE",
"559 -79 OFFCURVE",
"594 -80 CURVE SMOOTH"
);
},
{
closed = 1;
nodes = (
"324 -81 OFFCURVE",
"366 -30 OFFCURVE",
"397 43 CURVE SMOOTH",
"457 181 OFFCURVE",
"479 406 OFFCURVE",
"499 512 CURVE",
"381 519 LINE",
"369 399 OFFCURVE",
"337 224 OFFCURVE",
"293 121 CURVE SMOOTH",
"284 99 OFFCURVE",
"276 88 OFFCURVE",
"270 88 CURVE SMOOTH",
"263 88 OFFCURVE",
"258 99 OFFCURVE",
"251 119 CURVE SMOOTH",
"220 205 OFFCURVE",
"200 331 OFFCURVE",
"187 559 CURVE",
"36 524 LINE",
"42 443 OFFCURVE",
"63 197 OFFCURVE",
"130 47 CURVE SMOOTH",
"163 -28 OFFCURVE",
"207 -81 OFFCURVE",
"266 -81 CURVE SMOOTH"
);
}
);
width = 909;
}
);
unicode = 0077;
},
{
glyphname = x;
lastChange = "2020-06-02 14:27:24 +0000";
layers = (
{
layerId = "BE1754C0-A605-45AC-AA12-D3A1FC0C380B";
paths = (
{
closed = 1;
nodes = (
"720 27 LINE",
"574 190 OFFCURVE",
"312 424 OFFCURVE",
"128 557 CURVE",
"36 436 LINE",
"154 359 OFFCURVE",
"516 37 OFFCURVE",
"608 -75 CURVE"
);
},
{
closed = 1;
nodes = (
"244 32 OFFCURVE",
"594 368 OFFCURVE",
"711 455 CURVE",
"604 565 LINE",
"427 408 OFFCURVE",
"202 206 OFFCURVE",
"44 20 CURVE",
"159 -80 LINE"
);
}
);
width = 756;
}
);
unicode = 0078;
},
{
glyphname = y;
lastChange = "2020-06-02 14:28:30 +0000";
layers = (
{
layerId = "BE1754C0-A605-45AC-AA12-D3A1FC0C380B";
paths = (
{
closed = 1;
nodes = (
"394 -49 OFFCURVE",
"581 265 OFFCURVE",
"702 497 CURVE",
"549 558 LINE",
"445 309 OFFCURVE",
"272 31 OFFCURVE",
"63 -200 CURVE",
"202 -273 LINE"
);
},
{
closed = 1;
nodes = (
"422 127 LINE",
"326 240 OFFCURVE",
"222 416 OFFCURVE",
"174 542 CURVE",
"25 477 LINE",
"89 340 OFFCURVE",
"224 127 OFFCURVE",
"330 0 CURVE"
);
}
);
width = 728;
}
);
unicode = 0079;
},
{
glyphname = z;
lastChange = "2020-06-02 14:27:41 +0000";
layers = (
{
layerId = "BE1754C0-A605-45AC-AA12-D3A1FC0C380B";
paths = (
{
closed = 1;
nodes = (
"382 107 OFFCURVE",
"636 354 OFFCURVE",
"637 453 CURVE SMOOTH",
"638 545 OFFCURVE",
"523 550 OFFCURVE",
"438 551 CURVE SMOOTH",
"324 552 OFFCURVE",
"197 537 OFFCURVE",
"56 511 CURVE",
"84 363 LINE",
"221 405 OFFCURVE",
"371 419 OFFCURVE",
"432 413 CURVE SMOOTH",
"443 412 OFFCURVE",
"448 411 OFFCURVE",
"448 407 CURVE SMOOTH",
"448 403 OFFCURVE",
"444 397 OFFCURVE",
"437 388 CURVE SMOOTH",
"388 324 OFFCURVE",
"166 104 OFFCURVE",
"65 44 CURVE",
"133 -59 LINE"
);
},
{
closed = 1;
nodes = (
"196 -63 OFFCURVE",
"563 -62 OFFCURVE",
"666 -70 CURVE",
"665 75 LINE",
"581 88 OFFCURVE",
"142 92 OFFCURVE",
"48 44 CURVE",
"71 -77 LINE"
);
}
);
width = 714;
}
);
unicode = 007A;
},
{
glyphname = ordfeminine;
lastChange = "2020-08-27 14:43:21 +0000";
layers = (
{
layerId = "BE1754C0-A605-45AC-AA12-D3A1FC0C380B";
paths = (
{
closed = 1;
nodes = (
"279 417 OFFCURVE",
"331 455 OFFCURVE",
"358 536 CURVE",
"299 677 LINE",
"284 575 OFFCURVE",
"256 531 OFFCURVE",
"205 531 CURVE SMOOTH",
"171 531 OFFCURVE",
"148 550 OFFCURVE",
"144 580 CURVE SMOOTH",
"135 669 OFFCURVE",
"246 711 OFFCURVE",
"325 643 CURVE",
"365 750 LINE",
"208 848 OFFCURVE",
"21 748 OFFCURVE",
"32 575 CURVE SMOOTH",
"38 485 OFFCURVE",
"107 417 OFFCURVE",
"193 417 CURVE SMOOTH"
);
},
{
closed = 1;
nodes = (
"438 538 LINE",
"402 528 OFFCURVE",
"389 539 OFFCURVE",
"389 596 CURVE SMOOTH",
"389 654 OFFCURVE",
"398 739 OFFCURVE",
"413 785 CURVE",
"294 804 LINE",
"285 753 OFFCURVE",
"273 670 OFFCURVE",
"273 597 CURVE SMOOTH",
"273 471 OFFCURVE",
"321 413 OFFCURVE",
"421 416 CURVE"
);
}
);
width = 470;
},
{
associatedMasterId = "BE1754C0-A605-45AC-AA12-D3A1FC0C380B";
layerId = "3FC96813-E7C5-45AC-9F0B-5DBEB42CEC4B";
name = E;
paths = (
{
closed = 1;
nodes = (
"455 406 OFFCURVE",
"486 437 OFFCURVE",
"496 467 CURVE SMOOTH",
"499 477 OFFCURVE",
"488 483 OFFCURVE",
"482 475 CURVE",
"472 459 OFFCURVE",
"459 450 OFFCURVE",
"448 454 CURVE SMOOTH",
"436 457 OFFCURVE",
"432 466 OFFCURVE",
"432 497 CURVE SMOOTH",
"432 539 OFFCURVE",
"433 574 OFFCURVE",
"434 638 CURVE SMOOTH",
"435 668 OFFCURVE",
"431 691 OFFCURVE",
"412 710 CURVE SMOOTH",
"391 732 OFFCURVE",
"358 751 OFFCURVE",
"295 751 CURVE SMOOTH",
"191 751 OFFCURVE",
"161 702 OFFCURVE",
"155 674 CURVE SMOOTH",
"151 652 OFFCURVE",
"161 633 OFFCURVE",
"185 626 CURVE SMOOTH",
"215 618 OFFCURVE",
"240 638 OFFCURVE",
"249 676 CURVE SMOOTH",
"257 712 OFFCURVE",
"270 729 OFFCURVE",
"292 730 CURVE SMOOTH",
"308 730 OFFCURVE",
"321 727 OFFCURVE",
"330 715 CURVE SMOOTH",
"342 699 OFFCURVE",
"343 681 OFFCURVE",
"343 631 CURVE SMOOTH",
"343 613 OFFCURVE",
"343 593 OFFCURVE",
"342 574 CURVE SMOOTH",
"340 541 OFFCURVE",
"340 508 OFFCURVE",
"343 482 CURVE SMOOTH",
"347 434 OFFCURVE",
"371 406 OFFCURVE",
"416 406 CURVE SMOOTH"
);
},
{
closed = 1;
nodes = (
"148 375 OFFCURVE",
"325 385 OFFCURVE",
"388 494 CURVE",
"387 527 LINE",
"383 528 LINE",
"348 428 OFFCURVE",
"233 425 OFFCURVE",
"230 484 CURVE SMOOTH",
"227 538 OFFCURVE",
"278 571 OFFCURVE",
"384 589 CURVE",
"383 615 LINE",
"349 602 OFFCURVE",
"318 596 OFFCURVE",
"288 591 CURVE SMOOTH",
"254 584 OFFCURVE",
"221 578 OFFCURVE",
"196 565 CURVE SMOOTH",
"152 541 OFFCURVE",
"131 510 OFFCURVE",
"137 466 CURVE SMOOTH"
);
}
);
width = 576;
},
{
associatedMasterId = "BE1754C0-A605-45AC-AA12-D3A1FC0C380B";
layerId = "56DC1C81-F651-46E9-87C8-388DC3C1949A";
name = "new Layer";
paths = (
{
closed = 1;
nodes = (
"490 419 OFFCURVE",
"526 457 OFFCURVE",
"535 489 CURVE SMOOTH",
"536 499 OFFCURVE",
"526 505 OFFCURVE",
"520 497 CURVE",
"508 482 OFFCURVE",
"498 470 OFFCURVE",
"491 476 CURVE SMOOTH",
"484 481 OFFCURVE",
"485 480 OFFCURVE",
"485 519 CURVE SMOOTH",
"485 587 OFFCURVE",
"485 615 OFFCURVE",
"488 646 CURVE SMOOTH",
"490 682 OFFCURVE",
"483 707 OFFCURVE",
"460 725 CURVE SMOOTH",
"434 747 OFFCURVE",
"412 771 OFFCURVE",
"319 771 CURVE SMOOTH",
"230 771 OFFCURVE",
"176 736 OFFCURVE",
"163 692 CURVE SMOOTH",
"153 658 OFFCURVE",
"165 629 OFFCURVE",
"200 620 CURVE SMOOTH",
"244 609 OFFCURVE",
"279 638 OFFCURVE",
"289 692 CURVE SMOOTH",
"295 735 OFFCURVE",
"308 750 OFFCURVE",
"315 752 CURVE SMOOTH",
"322 753 OFFCURVE",
"331 753 OFFCURVE",
"340 740 CURVE SMOOTH",
"351 723 OFFCURVE",
"348 704 OFFCURVE",
"348 645 CURVE SMOOTH",
"348 633 OFFCURVE",
"349 628 OFFCURVE",
"347 620 CURVE SMOOTH",
"343 588 OFFCURVE",
"345 551 OFFCURVE",
"350 504 CURVE SMOOTH",
"355 446 OFFCURVE",
"379 421 OFFCURVE",
"439 420 CURVE SMOOTH"
);
},
{
closed = 1;
nodes = (
"162 381 OFFCURVE",
"346 403 OFFCURVE",
"413 519 CURVE",
"411 540 LINE",
"407 541 LINE",
"365 442 OFFCURVE",
"272 455 OFFCURVE",
"275 506 CURVE SMOOTH",
"277 557 OFFCURVE",
"306 601 OFFCURVE",
"405 617 CURVE",
"407 637 LINE",
"354 616 OFFCURVE",
"310 610 OFFCURVE",
"271 606 CURVE SMOOTH",
"253 607 OFFCURVE",
"239 608 OFFCURVE",
"214 597 CURVE SMOOTH",
"151 566 OFFCURVE",
"127 523 OFFCURVE",
"139 474 CURVE SMOOTH"
);
}
);
width = 609;
},
{
associatedMasterId = "BE1754C0-A605-45AC-AA12-D3A1FC0C380B";
layerId = "B1A4DE2A-A433-45B8-A685-0F6164F66E71";
name = M;
paths = (
{
closed = 1;
nodes = (
"434 399 OFFCURVE",
"462 425 OFFCURVE",
"473 454 CURVE SMOOTH",
"477 464 OFFCURVE",
"466 470 OFFCURVE",
"460 462 CURVE",
"450 446 OFFCURVE",
"436 438 OFFCURVE",
"423 441 CURVE SMOOTH",
"408 443 OFFCURVE",
"401 458 OFFCURVE",
"401 484 CURVE SMOOTH",
"401 511 OFFCURVE",
"402 549 OFFCURVE",
"402 634 CURVE SMOOTH",
"402 660 OFFCURVE",
"400 681 OFFCURVE",
"384 701 CURVE SMOOTH",
"366 723 OFFCURVE",
"326 739 OFFCURVE",
"281 739 CURVE SMOOTH",
"168 739 OFFCURVE",
"152 682 OFFCURVE",
"151 664 CURVE SMOOTH",
"150 648 OFFCURVE",
"159 635 OFFCURVE",
"176 630 CURVE SMOOTH",
"198 623 OFFCURVE",
"217 638 OFFCURVE",
"225 666 CURVE SMOOTH",
"235 699 OFFCURVE",
"248 716 OFFCURVE",
"279 717 CURVE SMOOTH",
"300 717 OFFCURVE",
"315 711 OFFCURVE",
"324 700 CURVE SMOOTH",
"337 685 OFFCURVE",
"340 668 OFFCURVE",
"340 623 CURVE SMOOTH",
"340 601 OFFCURVE",
"339 572 OFFCURVE",
"339 546 CURVE SMOOTH",
"339 513 OFFCURVE",
"337 483 OFFCURVE",
"339 469 CURVE SMOOTH",
"343 427 OFFCURVE",
"367 397 OFFCURVE",
"403 398 CURVE SMOOTH"
);
},
{
closed = 1;
nodes = (
"140 371 OFFCURVE",
"312 375 OFFCURVE",
"373 479 CURVE",
"373 520 LINE",
"369 521 LINE",
"338 420 OFFCURVE",
"210 407 OFFCURVE",
"203 471 CURVE SMOOTH",
"197 527 OFFCURVE",
"262 553 OFFCURVE",
"371 573 CURVE",
"369 602 LINE",
"346 594 OFFCURVE",
"323 588 OFFCURVE",
"299 582 CURVE SMOOTH",
"255 571 OFFCURVE",
"211 560 OFFCURVE",
"186 546 CURVE SMOOTH",
"153 526 OFFCURVE",
"133 503 OFFCURVE",
"136 462 CURVE SMOOTH"
);
}
);
width = 557;
},
{
associatedMasterId = "BE1754C0-A605-45AC-AA12-D3A1FC0C380B";
layerId = "D4F92898-FE9E-4031-93CC-4B24C74A170D";
name = D;
paths = (
{
closed = 1;
nodes = (
"441 401 OFFCURVE",
"470 429 OFFCURVE",
"481 458 CURVE SMOOTH",
"484 468 OFFCURVE",
"473 474 OFFCURVE",
"467 466 CURVE",
"457 450 OFFCURVE",
"444 442 OFFCURVE",
"431 445 CURVE SMOOTH",
"417 448 OFFCURVE",
"411 461 OFFCURVE",
"411 488 CURVE SMOOTH",
"411 520 OFFCURVE",
"412 557 OFFCURVE",
"413 635 CURVE SMOOTH",
"413 663 OFFCURVE",
"410 684 OFFCURVE",
"393 704 CURVE SMOOTH",
"374 726 OFFCURVE",
"337 743 OFFCURVE",
"286 743 CURVE SMOOTH",
"176 743 OFFCURVE",
"155 689 OFFCURVE",
"152 667 CURVE SMOOTH",
"150 649 OFFCURVE",
"160 634 OFFCURVE",
"179 629 CURVE SMOOTH",
"204 621 OFFCURVE",
"225 638 OFFCURVE",
"233 669 CURVE SMOOTH",
"242 703 OFFCURVE",
"255 720 OFFCURVE",
"283 721 CURVE SMOOTH",
"303 721 OFFCURVE",
"317 716 OFFCURVE",
"326 705 CURVE SMOOTH",
"339 690 OFFCURVE",
"341 672 OFFCURVE",
"341 626 CURVE SMOOTH",
"341 605 OFFCURVE",
"340 579 OFFCURVE",
"340 555 CURVE SMOOTH",
"339 522 OFFCURVE",
"338 491 OFFCURVE",
"340 473 CURVE SMOOTH",
"344 429 OFFCURVE",
"368 400 OFFCURVE",
"407 401 CURVE SMOOTH"
);
},
{
closed = 1;
nodes = (
"143 372 OFFCURVE",
"316 378 OFFCURVE",
"378 484 CURVE",
"378 522 LINE",
"374 523 LINE",
"341 423 OFFCURVE",
"218 413 OFFCURVE",
"212 475 CURVE SMOOTH",
"207 531 OFFCURVE",
"267 559 OFFCURVE",
"375 578 CURVE",
"374 606 LINE",
"347 597 OFFCURVE",
"321 591 OFFCURVE",
"295 585 CURVE SMOOTH",
"255 575 OFFCURVE",
"214 566 OFFCURVE",
"189 552 CURVE SMOOTH",
"153 531 OFFCURVE",
"132 505 OFFCURVE",
"136 463 CURVE SMOOTH"
);
}
);
width = 563;
},
{
associatedMasterId = "BE1754C0-A605-45AC-AA12-D3A1FC0C380B";
layerId = "674859A0-EBFE-4816-8CD7-51AEBE2383D6";
name = B;
paths = (
{
closed = 1;
nodes = (
"448 404 OFFCURVE",
"478 433 OFFCURVE",
"488 463 CURVE SMOOTH",
"492 473 OFFCURVE",
"481 479 OFFCURVE",
"475 471 CURVE",
"465 455 OFFCURVE",
"451 446 OFFCURVE",
"440 450 CURVE SMOOTH",
"427 452 OFFCURVE",
"422 463 OFFCURVE",
"422 493 CURVE SMOOTH",
"422 530 OFFCURVE",
"423 566 OFFCURVE",
"423 637 CURVE SMOOTH",
"424 665 OFFCURVE",
"421 688 OFFCURVE",
"403 707 CURVE SMOOTH",
"383 729 OFFCURVE",
"347 747 OFFCURVE",
"290 747 CURVE SMOOTH",
"183 747 OFFCURVE",
"158 695 OFFCURVE",
"154 671 CURVE SMOOTH",
"151 651 OFFCURVE",
"160 634 OFFCURVE",
"182 627 CURVE SMOOTH",
"209 620 OFFCURVE",
"232 638 OFFCURVE",
"241 673 CURVE SMOOTH",
"250 708 OFFCURVE",
"263 725 OFFCURVE",
"288 726 CURVE SMOOTH",
"305 726 OFFCURVE",
"319 722 OFFCURVE",
"328 710 CURVE SMOOTH",
"340 694 OFFCURVE",
"342 677 OFFCURVE",
"342 628 CURVE SMOOTH",
"342 609 OFFCURVE",
"342 586 OFFCURVE",
"341 565 CURVE SMOOTH",
"340 532 OFFCURVE",
"339 500 OFFCURVE",
"342 478 CURVE SMOOTH",
"346 432 OFFCURVE",
"370 403 OFFCURVE",
"412 403 CURVE SMOOTH"
);
},
{
closed = 1;
nodes = (
"145 374 OFFCURVE",
"321 382 OFFCURVE",
"383 489 CURVE",
"382 525 LINE",
"378 526 LINE",
"345 425 OFFCURVE",
"225 419 OFFCURVE",
"221 480 CURVE SMOOTH",
"217 534 OFFCURVE",
"273 565 OFFCURVE",
"380 584 CURVE",
"378 611 LINE",
"348 599 OFFCURVE",
"320 593 OFFCURVE",
"292 588 CURVE SMOOTH",
"254 580 OFFCURVE",
"218 572 OFFCURVE",
"193 559 CURVE SMOOTH",
"152 536 OFFCURVE",
"132 508 OFFCURVE",
"137 465 CURVE SMOOTH"
);
}
);
width = 570;
}
);
note = ordfeminine;
unicode = 00AA;
},
{
glyphname = "close-han";
lastChange = "2020-08-16 05:14:02 +0000";
layers = (
{
anchors = (
{
name = LSB;
position = "{64.103, 380}";
},
{
name = RSB;
position = "{952, 380}";
}
);
layerId = "BE1754C0-A605-45AC-AA12-D3A1FC0C380B";
paths = (
{
closed = 1;
nodes = (
"263 -62 OFFCURVE",
"347 -15 OFFCURVE",
"426 62 CURVE SMOOTH",
"622 252 OFFCURVE",
"846 588 OFFCURVE",
"926 704 CURVE",
"792 796 LINE",
"703 638 OFFCURVE",
"450 300 OFFCURVE",
"334 187 CURVE SMOOTH",
"299 153 OFFCURVE",
"274 133 OFFCURVE",
"251 144 CURVE SMOOTH",
"218 160 OFFCURVE",
"239 273 OFFCURVE",
"247 346 CURVE",
"98 343 LINE",
"87 226 OFFCURVE",
"69 -4 OFFCURVE",
"191 -40 CURVE SMOOTH"
);
},
{
closed = 1;
nodes = (
"870 291 LINE",
"749 407 OFFCURVE",
"517 611 OFFCURVE",
"368 720 CURVE",
"277 613 LINE",
"421 500 OFFCURVE",
"641 300 OFFCURVE",
"766 179 CURVE"
);
}
);
width = 1000;
},
{
associatedMasterId = "BE1754C0-A605-45AC-AA12-D3A1FC0C380B";
layerId = "3FC96813-E7C5-45AC-9F0B-5DBEB42CEC4B";
name = E;
paths = (
{
closed = 1;
nodes = (
"844 715 OFFCURVE",
"846 683 OFFCURVE",
"817 657 CURVE",
"768 613 OFFCURVE",
"535 469 OFFCURVE",
"380 349 CURVE",
"297 286 OFFCURVE",
"263 252 OFFCURVE",
"235 236 CURVE SMOOTH",
"225 230 OFFCURVE",
"220 236 OFFCURVE",
"223 262 CURVE SMOOTH",
"232 343 OFFCURVE",
"236 528 OFFCURVE",
"352 528 CURVE SMOOTH",
"422 528 OFFCURVE",
"505 448 OFFCURVE",
"554 313 CURVE",
"568 274 OFFCURVE",
"599 249 OFFCURVE",
"630 249 CURVE SMOOTH",
"663 249 OFFCURVE",
"681 270 OFFCURVE",
"681 309 CURVE SMOOTH",
"681 341 OFFCURVE",
"667 381 OFFCURVE",
"638 414 CURVE",
"593 465 OFFCURVE",
"480 558 OFFCURVE",
"375 558 CURVE SMOOTH",
"211 558 OFFCURVE",
"208 402 OFFCURVE",
"153 250 CURVE",
"120 159 OFFCURVE",
"87 134 OFFCURVE",
"59 89 CURVE",
"28 39 OFFCURVE",
"65 3 OFFCURVE",
"105 3 CURVE SMOOTH",
"129 3 OFFCURVE",
"176 10 OFFCURVE",
"248 102 CURVE",
"390 284 OFFCURVE",
"663 484 OFFCURVE",
"830 532 CURVE",
"929 560 OFFCURVE",
"960 528 OFFCURVE",
"960 619 CURVE SMOOTH",
"960 671 OFFCURVE",
"903 745 OFFCURVE",
"864 757 CURVE SMOOTH",
"843 763 OFFCURVE",
"793 772 OFFCURVE",
"809 753 CURVE"
);
}
);
width = 1000;
},
{
associatedMasterId = "BE1754C0-A605-45AC-AA12-D3A1FC0C380B";
layerId = "56DC1C81-F651-46E9-87C8-388DC3C1949A";
name = "new Layer";
width = 1000;
},
{
associatedMasterId = "BE1754C0-A605-45AC-AA12-D3A1FC0C380B";
layerId = "B1A4DE2A-A433-45B8-A685-0F6164F66E71";
name = M;
paths = (
{
closed = 1;
nodes = (
"874 688 OFFCURVE",
"864 668 OFFCURVE",
"837 647 CURVE",
"707 549 OFFCURVE",
"493 414 OFFCURVE",
"384 327 CURVE",
"291 252 OFFCURVE",
"245 213 OFFCURVE",
"204 179 CURVE",
"192 168 OFFCURVE",
"189 173 OFFCURVE",
"195 198 CURVE",
"247 436 OFFCURVE",
"268 521 OFFCURVE",
"371 521 CURVE SMOOTH",
"439 521 OFFCURVE",
"518 456 OFFCURVE",
"578 326 CURVE",
"596 287 OFFCURVE",
"615 257 OFFCURVE",
"641 257 CURVE SMOOTH",
"658 257 OFFCURVE",
"678 269 OFFCURVE",
"678 297 CURVE SMOOTH",
"678 325 OFFCURVE",
"660 365 OFFCURVE",
"627 404 CURVE",
"577 464 OFFCURVE",
"473 551 OFFCURVE",
"376 551 CURVE SMOOTH",
"218 551 OFFCURVE",
"206 380 OFFCURVE",
"154 236 CURVE",
"121 144 OFFCURVE",
"104 128 OFFCURVE",
"77 82 CURVE",
"51 40 OFFCURVE",
"73 17 OFFCURVE",
"101 17 CURVE SMOOTH",
"137 17 OFFCURVE",
"164 36 OFFCURVE",
"244 120 CURVE",
"432 315 OFFCURVE",
"638 466 OFFCURVE",
"858 564 CURVE",
"927 592 OFFCURVE",
"954 573 OFFCURVE",
"953 633 CURVE",
"952 685 OFFCURVE",
"922 722 OFFCURVE",
"879 742 CURVE",
"856 754 OFFCURVE",
"819 759 OFFCURVE",
"835 739 CURVE"
);
}
);
width = 1000;
},
{
associatedMasterId = "BE1754C0-A605-45AC-AA12-D3A1FC0C380B";
layerId = "D4F92898-FE9E-4031-93CC-4B24C74A170D";
name = D;
paths = (
{
closed = 1;
nodes = (
"864 697 OFFCURVE",
"858 673 OFFCURVE",
"830 650 CURVE",
"727 570 OFFCURVE",
"507 432 OFFCURVE",
"383 334 CURVE",
"293 263 OFFCURVE",
"251 226 OFFCURVE",
"214 198 CURVE SMOOTH",
"203 189 OFFCURVE",
"199 194 OFFCURVE",
"204 219 CURVE SMOOTH",
"242 405 OFFCURVE",
"257 523 OFFCURVE",
"365 523 CURVE SMOOTH",
"433 523 OFFCURVE",
"514 453 OFFCURVE",
"570 322 CURVE",
"587 283 OFFCURVE",
"610 254 OFFCURVE",
"637 254 CURVE SMOOTH",
"660 254 OFFCURVE",
"679 269 OFFCURVE",
"679 301 CURVE SMOOTH",
"679 330 OFFCURVE",
"662 370 OFFCURVE",
"631 407 CURVE",
"582 464 OFFCURVE",
"475 553 OFFCURVE",
"376 553 CURVE SMOOTH",
"216 553 OFFCURVE",
"207 387 OFFCURVE",
"154 241 CURVE",
"121 149 OFFCURVE",
"98 130 OFFCURVE",
"71 84 CURVE",
"43 40 OFFCURVE",
"70 12 OFFCURVE",
"102 12 CURVE SMOOTH",
"134 12 OFFCURVE",
"168 27 OFFCURVE",
"245 114 CURVE",
"418 305 OFFCURVE",
"646 472 OFFCURVE",
"849 553 CURVE",
"928 581 OFFCURVE",
"956 558 OFFCURVE",
"955 628 CURVE SMOOTH",
"955 680 OFFCURVE",
"916 730 OFFCURVE",
"874 747 CURVE SMOOTH",
"852 757 OFFCURVE",
"810 763 OFFCURVE",
"826 744 CURVE"
);
}
);
width = 1000;
},
{
associatedMasterId = "BE1754C0-A605-45AC-AA12-D3A1FC0C380B";
layerId = "674859A0-EBFE-4816-8CD7-51AEBE2383D6";
name = B;
paths = (
{
closed = 1;
nodes = (
"854 706 OFFCURVE",
"852 678 OFFCURVE",
"824 654 CURVE",
"748 592 OFFCURVE",
"521 451 OFFCURVE",
"381 342 CURVE",
"295 275 OFFCURVE",
"257 239 OFFCURVE",
"225 217 CURVE SMOOTH",
"214 209 OFFCURVE",
"210 215 OFFCURVE",
"214 241 CURVE SMOOTH",
"237 374 OFFCURVE",
"247 526 OFFCURVE",
"358 526 CURVE SMOOTH",
"428 526 OFFCURVE",
"509 451 OFFCURVE",
"562 317 CURVE",
"577 278 OFFCURVE",
"604 252 OFFCURVE",
"634 252 CURVE SMOOTH",
"661 252 OFFCURVE",
"680 270 OFFCURVE",
"680 305 CURVE SMOOTH",
"680 336 OFFCURVE",
"665 376 OFFCURVE",
"634 411 CURVE",
"588 465 OFFCURVE",
"478 556 OFFCURVE",
"375 556 CURVE SMOOTH",
"213 556 OFFCURVE",
"207 395 OFFCURVE",
"153 245 CURVE",
"120 154 OFFCURVE",
"93 132 OFFCURVE",
"65 87 CURVE",
"36 39 OFFCURVE",
"68 8 OFFCURVE",
"104 8 CURVE SMOOTH",
"132 8 OFFCURVE",
"172 19 OFFCURVE",
"247 108 CURVE",
"404 294 OFFCURVE",
"655 478 OFFCURVE",
"839 543 CURVE",
"928 571 OFFCURVE",
"958 543 OFFCURVE",
"958 624 CURVE SMOOTH",
"957 676 OFFCURVE",
"909 737 OFFCURVE",
"869 752 CURVE SMOOTH",
"847 760 OFFCURVE",
"802 768 OFFCURVE",
"818 748 CURVE"
);
}
);
width = 1000;
}
);
unicode = 3006;
},
{
glyphname = "iterationmark-han";
lastChange = "2020-08-16 04:43:46 +0000";
layers = (
{
layerId = "BE1754C0-A605-45AC-AA12-D3A1FC0C380B";
paths = (
{
closed = 1;
nodes = (
"689 200 OFFCURVE",
"916 479 OFFCURVE",
"881 592 CURVE SMOOTH",
"842 713 OFFCURVE",
"536 663 OFFCURVE",
"373 641 CURVE",
"364 493 LINE",
"459 510 OFFCURVE",
"609 520 OFFCURVE",
"681 520 CURVE SMOOTH",
"699 520 OFFCURVE",
"709 517 OFFCURVE",
"711 513 CURVE SMOOTH",
"713 508 OFFCURVE",
"711 501 OFFCURVE",
"700 484 CURVE SMOOTH",
"668 427 OFFCURVE",
"581 305 OFFCURVE",
"502 218 CURVE",
"607 128 LINE"
);
},
{
closed = 1;
nodes = (
"735 107 LINE",
"647 189 OFFCURVE",
"539 278 OFFCURVE",
"448 342 CURVE",
"351 229 LINE",
"456 153 OFFCURVE",
"534 84 OFFCURVE",
"630 -7 CURVE"
);
},
{
closed = 1;
nodes = (
"333 319 OFFCURVE",
"455 587 OFFCURVE",
"486 718 CURVE",
"330 751 LINE",
"310 606 OFFCURVE",
"180 379 OFFCURVE",
"78 291 CURVE",
"205 188 LINE"
);
}
);
width = 1000;
},
{
associatedMasterId = "BE1754C0-A605-45AC-AA12-D3A1FC0C380B";
layerId = "3FC96813-E7C5-45AC-9F0B-5DBEB42CEC4B";
name = E;
paths = (
{
closed = 1;
nodes = (
"33 152 OFFCURVE",
"41 155 OFFCURVE",
"49 159 CURVE SMOOTH",
"225 247 OFFCURVE",
"409 442 OFFCURVE",
"472 573 CURVE SMOOTH",
"486 602 OFFCURVE",
"539 639 OFFCURVE",
"522 671 CURVE SMOOTH",
"505 704 OFFCURVE",
"473 721 OFFCURVE",
"439 732 CURVE SMOOTH",
"409 742 OFFCURVE",
"351 727 OFFCURVE",
"346 714 CURVE",
"345 709 OFFCURVE",
"349 709 OFFCURVE",
"357 706 CURVE SMOOTH",
"377 699 OFFCURVE",
"395 689 OFFCURVE",
"387 654 CURVE SMOOTH",
"359 533 OFFCURVE",
"215 342 OFFCURVE",
"46 173 CURVE SMOOTH",
"36 163 OFFCURVE",
"31 159 OFFCURVE",
"32 156 CURVE SMOOTH"
);
},
{
closed = 1;
nodes = (
"656 46 OFFCURVE",
"669 80 OFFCURVE",
"669 104 CURVE SMOOTH",
"669 193 OFFCURVE",
"422 287 OFFCURVE",
"337 299 CURVE SMOOTH",
"330 300 OFFCURVE",
"327 299 OFFCURVE",
"327 296 CURVE SMOOTH",
"327 293 OFFCURVE",
"337 288 OFFCURVE",
"342 284 CURVE",
"432 221 OFFCURVE",
"508 150 OFFCURVE",
"546 103 CURVE SMOOTH",
"575 67 OFFCURVE",
"595 46 OFFCURVE",
"618 46 CURVE SMOOTH"
);
},
{
closed = 1;
nodes = (
"508 209 OFFCURVE",
"511 210 OFFCURVE",
"520 216 CURVE SMOOTH",
"653 305 OFFCURVE",
"730 374 OFFCURVE",
"766 407 CURVE SMOOTH",
"789 428 OFFCURVE",
"819 426 OFFCURVE",
"834 454 CURVE SMOOTH",
"857 496 OFFCURVE",
"744 589 OFFCURVE",
"714 589 CURVE SMOOTH",
"700 589 OFFCURVE",
"691 579 OFFCURVE",
"669 565 CURVE SMOOTH",
"629 540 OFFCURVE",
"463 525 OFFCURVE",
"418 545 CURVE SMOOTH",
"400 553 OFFCURVE",
"391 558 OFFCURVE",
"386 553 CURVE SMOOTH",
"366 533 OFFCURVE",
"418 471 OFFCURVE",
"465 471 CURVE SMOOTH",
"518 471 OFFCURVE",
"612 487 OFFCURVE",
"664 487 CURVE SMOOTH",
"685 487 OFFCURVE",
"684 475 OFFCURVE",
"674 455 CURVE SMOOTH",
"652 411 OFFCURVE",
"614 348 OFFCURVE",
"511 228 CURVE SMOOTH",
"505 221 OFFCURVE",
"501 214 OFFCURVE",
"505 211 CURVE SMOOTH"
);
}
);
width = 1000;
},
{
associatedMasterId = "BE1754C0-A605-45AC-AA12-D3A1FC0C380B";
layerId = "56DC1C81-F651-46E9-87C8-388DC3C1949A";
name = "new Layer";
width = 1000;
},
{
associatedMasterId = "BE1754C0-A605-45AC-AA12-D3A1FC0C380B";
layerId = "B1A4DE2A-A433-45B8-A685-0F6164F66E71";
name = M;
paths = (
{
closed = 1;
nodes = (
"94 164 OFFCURVE",
"103 167 OFFCURVE",
"110 171 CURVE SMOOTH",
"257 255 OFFCURVE",
"438 468 OFFCURVE",
"500 586 CURVE SMOOTH",
"515 615 OFFCURVE",
"539 634 OFFCURVE",
"530 655 CURVE SMOOTH",
"519 678 OFFCURVE",
"497 694 OFFCURVE",
"463 706 CURVE SMOOTH",
"436 714 OFFCURVE",
"389 704 OFFCURVE",
"384 691 CURVE SMOOTH",
"383 686 OFFCURVE",
"387 684 OFFCURVE",
"395 682 CURVE SMOOTH",
"415 679 OFFCURVE",
"433 674 OFFCURVE",
"425 635 CURVE SMOOTH",
"411 566 OFFCURVE",
"306 380 OFFCURVE",
"107 185 CURVE SMOOTH",
"98 176 OFFCURVE",
"92 171 OFFCURVE",
"93 168 CURVE SMOOTH"
);
},
{
closed = 1;
nodes = (
"640 74 OFFCURVE",
"654 100 OFFCURVE",
"654 124 CURVE SMOOTH",
"654 223 OFFCURVE",
"406 306 OFFCURVE",
"354 309 CURVE SMOOTH",
"347 309 OFFCURVE",
"344 308 OFFCURVE",
"344 305 CURVE SMOOTH",
"344 301 OFFCURVE",
"352 297 OFFCURVE",
"359 294 CURVE SMOOTH",
"441 249 OFFCURVE",
"509 191 OFFCURVE",
"551 127 CURVE SMOOTH",
"577 88 OFFCURVE",
"596 74 OFFCURVE",
"614 74 CURVE SMOOTH"
);
},
{
closed = 1;
nodes = (
"517 217 OFFCURVE",
"521 217 OFFCURVE",
"529 224 CURVE SMOOTH",
"643 319 OFFCURVE",
"702 382 OFFCURVE",
"726 407 CURVE SMOOTH",
"757 439 OFFCURVE",
"791 430 OFFCURVE",
"801 457 CURVE SMOOTH",
"813 489 OFFCURVE",
"722 563 OFFCURVE",
"692 563 CURVE SMOOTH",
"678 563 OFFCURVE",
"669 553 OFFCURVE",
"647 539 CURVE SMOOTH",
"607 514 OFFCURVE",
"476 498 OFFCURVE",
"431 519 CURVE SMOOTH",
"413 527 OFFCURVE",
"404 532 OFFCURVE",
"399 527 CURVE SMOOTH",
"379 507 OFFCURVE",
"444 458 OFFCURVE",
"491 458 CURVE SMOOTH",
"544 458 OFFCURVE",
"611 480 OFFCURVE",
"663 480 CURVE SMOOTH",
"684 480 OFFCURVE",
"681 471 OFFCURVE",
"668 448 CURVE SMOOTH",
"648 412 OFFCURVE",
"612 348 OFFCURVE",
"520 236 CURVE SMOOTH",
"514 229 OFFCURVE",
"510 222 OFFCURVE",
"514 219 CURVE SMOOTH"
);
}
);
width = 1000;
},
{
associatedMasterId = "BE1754C0-A605-45AC-AA12-D3A1FC0C380B";
layerId = "D4F92898-FE9E-4031-93CC-4B24C74A170D";
name = D;
paths = (
{
closed = 1;
nodes = (
"74 160 OFFCURVE",
"82 163 OFFCURVE",
"90 167 CURVE SMOOTH",
"246 252 OFFCURVE",
"428 459 OFFCURVE",
"491 582 CURVE SMOOTH",
"505 611 OFFCURVE",
"539 636 OFFCURVE",
"527 660 CURVE SMOOTH",
"514 687 OFFCURVE",
"489 703 OFFCURVE",
"455 715 CURVE SMOOTH",
"427 723 OFFCURVE",
"376 712 OFFCURVE",
"371 699 CURVE",
"370 694 OFFCURVE",
"374 692 OFFCURVE",
"382 690 CURVE SMOOTH",
"402 686 OFFCURVE",
"420 679 OFFCURVE",
"412 641 CURVE SMOOTH",
"394 555 OFFCURVE",
"276 367 OFFCURVE",
"87 181 CURVE SMOOTH",
"77 172 OFFCURVE",
"72 167 OFFCURVE",
"73 164 CURVE SMOOTH"
);
},
{
closed = 1;
nodes = (
"645 65 OFFCURVE",
"659 93 OFFCURVE",
"659 117 CURVE SMOOTH",
"659 213 OFFCURVE",
"411 300 OFFCURVE",
"348 306 CURVE SMOOTH",
"341 306 OFFCURVE",
"338 305 OFFCURVE",
"338 302 CURVE SMOOTH",
"338 298 OFFCURVE",
"347 294 OFFCURVE",
"353 291 CURVE",
"438 240 OFFCURVE",
"509 177 OFFCURVE",
"549 119 CURVE SMOOTH",
"576 81 OFFCURVE",
"596 65 OFFCURVE",
"615 65 CURVE SMOOTH"
);
},
{
closed = 1;
nodes = (
"514 214 OFFCURVE",
"518 215 OFFCURVE",
"526 221 CURVE SMOOTH",
"646 314 OFFCURVE",
"711 379 OFFCURVE",
"739 407 CURVE SMOOTH",
"768 435 OFFCURVE",
"800 429 OFFCURVE",
"812 456 CURVE SMOOTH",
"828 491 OFFCURVE",
"729 572 OFFCURVE",
"699 572 CURVE SMOOTH",
"685 572 OFFCURVE",
"676 562 OFFCURVE",
"654 548 CURVE SMOOTH",
"614 523 OFFCURVE",
"472 507 OFFCURVE",
"427 528 CURVE SMOOTH",
"409 536 OFFCURVE",
"400 541 OFFCURVE",
"395 536 CURVE SMOOTH",
"375 516 OFFCURVE",
"435 462 OFFCURVE",
"482 462 CURVE SMOOTH",
"535 462 OFFCURVE",
"611 482 OFFCURVE",
"663 482 CURVE SMOOTH",
"684 482 OFFCURVE",
"682 472 OFFCURVE",
"670 450 CURVE SMOOTH",
"649 412 OFFCURVE",
"613 348 OFFCURVE",
"517 233 CURVE SMOOTH",
"511 226 OFFCURVE",
"507 219 OFFCURVE",
"511 216 CURVE SMOOTH"
);
}
);
width = 1000;
},
{
associatedMasterId = "BE1754C0-A605-45AC-AA12-D3A1FC0C380B";
layerId = "674859A0-EBFE-4816-8CD7-51AEBE2383D6";
name = B;
paths = (
{
closed = 1;
nodes = (
"53 156 OFFCURVE",
"62 159 OFFCURVE",
"69 163 CURVE SMOOTH",
"236 250 OFFCURVE",
"419 451 OFFCURVE",
"481 577 CURVE SMOOTH",
"496 606 OFFCURVE",
"539 637 OFFCURVE",
"525 666 CURVE SMOOTH",
"510 695 OFFCURVE",
"481 712 OFFCURVE",
"447 723 CURVE SMOOTH",
"418 733 OFFCURVE",
"364 719 OFFCURVE",
"359 706 CURVE",
"358 701 OFFCURVE",
"362 701 OFFCURVE",
"370 698 CURVE SMOOTH",
"390 692 OFFCURVE",
"408 684 OFFCURVE",
"400 648 CURVE SMOOTH",
"376 544 OFFCURVE",
"245 355 OFFCURVE",
"66 177 CURVE SMOOTH",
"57 167 OFFCURVE",
"51 163 OFFCURVE",
"52 160 CURVE SMOOTH"
);
},
{
closed = 1;
nodes = (
"651 55 OFFCURVE",
"664 87 OFFCURVE",
"664 111 CURVE SMOOTH",
"664 203 OFFCURVE",
"417 293 OFFCURVE",
"343 302 CURVE SMOOTH",
"336 303 OFFCURVE",
"333 302 OFFCURVE",
"333 299 CURVE SMOOTH",
"333 296 OFFCURVE",
"342 291 OFFCURVE",
"348 287 CURVE",
"435 230 OFFCURVE",
"508 164 OFFCURVE",
"548 111 CURVE SMOOTH",
"576 74 OFFCURVE",
"595 55 OFFCURVE",
"617 55 CURVE SMOOTH"
);
},
{
closed = 1;
nodes = (
"511 212 OFFCURVE",
"514 212 OFFCURVE",
"523 219 CURVE SMOOTH",
"650 310 OFFCURVE",
"721 377 OFFCURVE",
"753 407 CURVE SMOOTH",
"778 432 OFFCURVE",
"810 427 OFFCURVE",
"823 455 CURVE SMOOTH",
"842 494 OFFCURVE",
"737 580 OFFCURVE",
"707 580 CURVE SMOOTH",
"693 580 OFFCURVE",
"684 570 OFFCURVE",
"662 556 CURVE SMOOTH",
"622 531 OFFCURVE",
"467 516 OFFCURVE",
"422 536 CURVE SMOOTH",
"404 544 OFFCURVE",
"395 549 OFFCURVE",
"390 544 CURVE SMOOTH",
"370 524 OFFCURVE",
"427 467 OFFCURVE",
"474 467 CURVE SMOOTH",
"527 467 OFFCURVE",
"612 485 OFFCURVE",
"664 485 CURVE SMOOTH",
"685 485 OFFCURVE",
"683 474 OFFCURVE",
"672 453 CURVE SMOOTH",
"651 411 OFFCURVE",
"613 348 OFFCURVE",
"514 231 CURVE SMOOTH",
"508 224 OFFCURVE",
"504 217 OFFCURVE",
"508 214 CURVE SMOOTH"
);
}
);
width = 1000;
}
);
unicode = 3005;
},
{
glyphname = "ninojiten-han";
lastChange = "2020-08-16 04:45:29 +0000";
layers = (
{
layerId = "BE1754C0-A605-45AC-AA12-D3A1FC0C380B";
paths = (
{
closed = 1;
nodes = (
"677 -85 OFFCURVE",
"733 37 OFFCURVE",
"733 124 CURVE SMOOTH",
"733 240 OFFCURVE",
"634 367 OFFCURVE",
"498 426 CURVE",
"522 389 LINE",
"608 412 OFFCURVE",
"690 452 OFFCURVE",
"700 575 CURVE SMOOTH",
"709 697 OFFCURVE",
"594 767 OFFCURVE",
"457 847 CURVE",
"352 713 LINE",
"483 664 OFFCURVE",
"544 622 OFFCURVE",
"544 579 CURVE SMOOTH",
"544 528 OFFCURVE",
"461 491 OFFCURVE",
"365 531 CURVE",
"322 387 LINE",
"444 343 OFFCURVE",
"592 193 OFFCURVE",
"576 121 CURVE SMOOTH",
"567 75 OFFCURVE",
"527 56 OFFCURVE",
"465 68 CURVE SMOOTH",
"414 79 OFFCURVE",
"359 114 OFFCURVE",
"327 137 CURVE",
"268 -16 LINE",
"312 -38 OFFCURVE",
"361 -85 OFFCURVE",
"494 -85 CURVE SMOOTH"
);
}
);
width = 1000;
},
{
associatedMasterId = "BE1754C0-A605-45AC-AA12-D3A1FC0C380B";
layerId = "3FC96813-E7C5-45AC-9F0B-5DBEB42CEC4B";
name = E;
paths = (
{
closed = 1;
nodes = (
"356 68 OFFCURVE",
"535 157 OFFCURVE",
"582 132 CURVE SMOOTH",
"629 107 OFFCURVE",
"666 99 OFFCURVE",
"678 164 CURVE SMOOTH",
"685 204 OFFCURVE",
"669 240 OFFCURVE",
"624 275 CURVE SMOOTH",
"569 316 OFFCURVE",
"455 334 OFFCURVE",
"455 388 CURVE SMOOTH",
"455 437 OFFCURVE",
"536 486 OFFCURVE",
"577 484 CURVE SMOOTH",
"593 483 OFFCURVE",
"624 469 OFFCURVE",
"642 504 CURVE SMOOTH",
"655 530 OFFCURVE",
"641 583 OFFCURVE",
"580 605 CURVE SMOOTH",
"486 641 OFFCURVE",
"426 662 OFFCURVE",
"383 742 CURVE SMOOTH",
"366 772 OFFCURVE",
"366 748 OFFCURVE",
"366 719 CURVE SMOOTH",
"369 609 OFFCURVE",
"427 565 OFFCURVE",
"508 520 CURVE SMOOTH",
"528 509 OFFCURVE",
"530 505 OFFCURVE",
"498 484 CURVE SMOOTH",
"455 454 OFFCURVE",
"401 415 OFFCURVE",
"398 367 CURVE SMOOTH",
"396 322 OFFCURVE",
"421 280 OFFCURVE",
"468 242 CURVE SMOOTH",
"527 195 OFFCURVE",
"482 181 OFFCURVE",
"429 146 CURVE SMOOTH",
"387 118 OFFCURVE",
"341 87 OFFCURVE",
"315 66 CURVE SMOOTH",
"295 50 OFFCURVE",
"297 40 OFFCURVE",
"316 49 CURVE SMOOTH"
);
}
);
width = 1000;
},
{
associatedMasterId = "BE1754C0-A605-45AC-AA12-D3A1FC0C380B";
layerId = "56DC1C81-F651-46E9-87C8-388DC3C1949A";
name = "new Layer";
paths = (
{
closed = 1;
nodes = (
"347 81 OFFCURVE",
"599 212 OFFCURVE",
"625 159 CURVE",
"657 107 OFFCURVE",
"668 88 OFFCURVE",
"688 163 CURVE",
"698 194 OFFCURVE",
"711 238 OFFCURVE",
"649 287 CURVE",
"583 335 OFFCURVE",
"426 350 OFFCURVE",
"432 399 CURVE",
"437 439 OFFCURVE",
"553 503 OFFCURVE",
"609 490 CURVE",
"621 479 OFFCURVE",
"621 454 OFFCURVE",
"652 480 CURVE",
"676 482 OFFCURVE",
"687 552 OFFCURVE",
"618 576 CURVE",
"495 624 OFFCURVE",
"418 638 OFFCURVE",
"377 748 CURVE",
"368 782 OFFCURVE",
"367 754 OFFCURVE",
"360 726 CURVE",
"357 563 OFFCURVE",
"429 532 OFFCURVE",
"538 484 CURVE",
"537 496 OFFCURVE",
"552 510 OFFCURVE",
"509 490 CURVE",
"449 456 OFFCURVE",
"374 416 OFFCURVE",
"370 362 CURVE",
"368 312 OFFCURVE",
"405 265 OFFCURVE",
"455 232 CURVE",
"519 193 OFFCURVE",
"472 199 OFFCURVE",
"398 150 CURVE",
"344 114 OFFCURVE",
"333 99 OFFCURVE",
"310 80 CURVE",
"292 64 OFFCURVE",
"292 55 OFFCURVE",
"310 63 CURVE"
);
}
);
width = 1000;
},
{
associatedMasterId = "BE1754C0-A605-45AC-AA12-D3A1FC0C380B";
layerId = "B1A4DE2A-A433-45B8-A685-0F6164F66E71";
name = M;
paths = (
{
closed = 1;
nodes = (
"364 56 OFFCURVE",
"475 105 OFFCURVE",
"542 107 CURVE",
"603 107 OFFCURVE",
"665 110 OFFCURVE",
"669 165 CURVE",
"673 213 OFFCURVE",
"629 242 OFFCURVE",
"601 264 CURVE",
"556 298 OFFCURVE",
"482 319 OFFCURVE",
"477 378 CURVE",
"472 435 OFFCURVE",
"520 470 OFFCURVE",
"547 478 CURVE",
"567 487 OFFCURVE",
"627 483 OFFCURVE",
"632 527 CURVE",
"636 575 OFFCURVE",
"598 612 OFFCURVE",
"545 632 CURVE",
"478 657 OFFCURVE",
"434 685 OFFCURVE",
"388 737 CURVE",
"364 763 OFFCURVE",
"365 743 OFFCURVE",
"371 712 CURVE",
"380 652 OFFCURVE",
"425 596 OFFCURVE",
"480 554 CURVE",
"520 521 OFFCURVE",
"509 501 OFFCURVE",
"488 478 CURVE",
"461 452 OFFCURVE",
"427 414 OFFCURVE",
"424 372 CURVE",
"422 331 OFFCURVE",
"436 294 OFFCURVE",
"480 251 CURVE",
"535 197 OFFCURVE",
"492 165 OFFCURVE",
"458 142 CURVE",
"428 122 OFFCURVE",
"349 76 OFFCURVE",
"320 53 CURVE",
"298 37 OFFCURVE",
"302 26 OFFCURVE",
"322 36 CURVE"
);
}
);
width = 1000;
},
{
associatedMasterId = "BE1754C0-A605-45AC-AA12-D3A1FC0C380B";
layerId = "D4F92898-FE9E-4031-93CC-4B24C74A170D";
name = D;
paths = (
{
closed = 1;
nodes = (
"361 60 OFFCURVE",
"495 122 OFFCURVE",
"555 115 CURVE SMOOTH",
"612 107 OFFCURVE",
"665 106 OFFCURVE",
"672 165 CURVE SMOOTH",
"677 210 OFFCURVE",
"642 241 OFFCURVE",
"609 268 CURVE SMOOTH",
"560 304 OFFCURVE",
"473 324 OFFCURVE",
"470 381 CURVE SMOOTH",
"466 436 OFFCURVE",
"525 475 OFFCURVE",
"557 480 CURVE SMOOTH",
"576 486 OFFCURVE",
"626 478 OFFCURVE",
"635 519 CURVE SMOOTH",
"642 560 OFFCURVE",
"612 602 OFFCURVE",
"557 623 CURVE SMOOTH",
"481 652 OFFCURVE",
"431 677 OFFCURVE",
"386 739 CURVE SMOOTH",
"365 766 OFFCURVE",
"365 745 OFFCURVE",
"369 714 CURVE SMOOTH",
"376 638 OFFCURVE",
"426 586 OFFCURVE",
"489 543 CURVE SMOOTH",
"523 517 OFFCURVE",
"516 502 OFFCURVE",
"491 480 CURVE SMOOTH",
"459 453 OFFCURVE",
"418 414 OFFCURVE",
"415 370 CURVE SMOOTH",
"413 328 OFFCURVE",
"431 289 OFFCURVE",
"476 248 CURVE SMOOTH",
"532 196 OFFCURVE",
"489 170 OFFCURVE",
"448 143 CURVE SMOOTH",
"414 121 OFFCURVE",
"346 80 OFFCURVE",
"318 57 CURVE SMOOTH",
"297 41 OFFCURVE",
"300 31 OFFCURVE",
"320 40 CURVE SMOOTH"
);
}
);
width = 1000;
},
{
associatedMasterId = "BE1754C0-A605-45AC-AA12-D3A1FC0C380B";
layerId = "674859A0-EBFE-4816-8CD7-51AEBE2383D6";
name = B;
paths = (
{
closed = 1;
nodes = (
"359 64 OFFCURVE",
"515 140 OFFCURVE",
"569 124 CURVE SMOOTH",
"620 107 OFFCURVE",
"666 103 OFFCURVE",
"675 164 CURVE SMOOTH",
"681 207 OFFCURVE",
"656 241 OFFCURVE",
"616 271 CURVE SMOOTH",
"565 310 OFFCURVE",
"464 329 OFFCURVE",
"462 385 CURVE SMOOTH",
"461 436 OFFCURVE",
"531 481 OFFCURVE",
"567 482 CURVE SMOOTH",
"584 484 OFFCURVE",
"625 474 OFFCURVE",
"639 512 CURVE SMOOTH",
"649 545 OFFCURVE",
"627 593 OFFCURVE",
"568 614 CURVE SMOOTH",
"483 646 OFFCURVE",
"429 670 OFFCURVE",
"385 740 CURVE SMOOTH",
"365 769 OFFCURVE",
"366 746 OFFCURVE",
"368 717 CURVE SMOOTH",
"373 623 OFFCURVE",
"426 575 OFFCURVE",
"499 531 CURVE SMOOTH",
"525 513 OFFCURVE",
"523 504 OFFCURVE",
"495 482 CURVE SMOOTH",
"457 453 OFFCURVE",
"410 415 OFFCURVE",
"407 369 CURVE SMOOTH",
"405 325 OFFCURVE",
"426 285 OFFCURVE",
"472 245 CURVE SMOOTH",
"530 196 OFFCURVE",
"485 176 OFFCURVE",
"439 145 CURVE SMOOTH",
"401 119 OFFCURVE",
"344 83 OFFCURVE",
"317 62 CURVE SMOOTH",
"296 46 OFFCURVE",
"299 35 OFFCURVE",
"318 45 CURVE SMOOTH"
);
}
);
width = 1000;
}
);
unicode = 303B;
},
{
glyphname = "a-hira";
lastChange = "2020-11-07 18:38:08 +0000";
layers = (
{
anchors = (
{
name = LSB;
position = "{22.802, 380}";
},
{
name = RSB;
position = "{970, 380}";
}
);
layerId = "BE1754C0-A605-45AC-AA12-D3A1FC0C380B";
paths = (
{
closed = 1;
nodes = (
"896 -16 OFFCURVE",
"944 96 OFFCURVE",
"944 194 CURVE SMOOTH",
"944 367 OFFCURVE",
"790 526 OFFCURVE",
"534 523 CURVE SMOOTH",
"403 521 OFFCURVE",
"270 478 OFFCURVE",
"185 399 CURVE SMOOTH",
"102 322 OFFCURVE",
"45 224 OFFCURVE",
"49 129 CURVE SMOOTH",
"55 -16 OFFCURVE",
"146 -60 OFFCURVE",
"258 -60 CURVE SMOOTH",
"522 -60 OFFCURVE",
"665 192 OFFCURVE",
"696 466 CURVE SMOOTH",
"700 500 OFFCURVE",
"702 534 OFFCURVE",
"703 568 CURVE",
"559 578 LINE",
"556 541 OFFCURVE",
"552 505 OFFCURVE",
"547 471 CURVE SMOOTH",
"513 230 OFFCURVE",
"428 85 OFFCURVE",
"257 85 CURVE SMOOTH",
"216 85 OFFCURVE",
"185 101 OFFCURVE",
"187 141 CURVE SMOOTH",
"195 300 OFFCURVE",
"382 382 OFFCURVE",
"547 382 CURVE SMOOTH",
"693 382 OFFCURVE",
"787 307 OFFCURVE",
"787 207 CURVE SMOOTH",
"787 142 OFFCURVE",
"755 54 OFFCURVE",
"653 -7 CURVE",
"790 -86 LINE"
);
},
{
closed = 1;
nodes = (
"498 117 LINE",
"455 194 OFFCURVE",
"433 321 OFFCURVE",
"433 448 CURVE SMOOTH",
"433 592 OFFCURVE",
"461 737 OFFCURVE",
"516 814 CURVE",
"372 848 LINE",
"315 736 OFFCURVE",
"284 570 OFFCURVE",
"284 410 CURVE SMOOTH",
"284 270 OFFCURVE",
"308 136 OFFCURVE",
"358 47 CURVE"
);
},
{
closed = 1;
nodes = (
"169 563 OFFCURVE",
"209 569 OFFCURVE",
"253 574 CURVE SMOOTH",
"385 589 OFFCURVE",
"554 596 OFFCURVE",
"686 594 CURVE SMOOTH",
"742 593 OFFCURVE",
"791 590 OFFCURVE",
"829 586 CURVE",
"834 724 LINE",
"797 728 OFFCURVE",
"748 731 OFFCURVE",
"692 732 CURVE SMOOTH",
"562 734 OFFCURVE",
"395 728 OFFCURVE",
"259 714 CURVE SMOOTH",
"205 709 OFFCURVE",
"156 702 OFFCURVE",
"116 694 CURVE",
"136 556 LINE"
);
}
);
width = 1000;
}
);
unicode = 3042;
},
{
glyphname = "asmall-hira";
lastChange = "2020-09-08 04:55:39 +0000";
layers = (
{
anchors = (
{
name = LSB;
position = "{111, 380}";
},
{
name = RSB;
position = "{899, 380}";
}
);
layerId = "BE1754C0-A605-45AC-AA12-D3A1FC0C380B";
paths = (
{
closed = 1;
nodes = (
"822 -47 OFFCURVE",
"873 43 OFFCURVE",
"873 137 CURVE SMOOTH",
"873 295 OFFCURVE",
"729 413 OFFCURVE",
"535 411 CURVE SMOOTH",
"422 409 OFFCURVE",
"315 371 OFFCURVE",
"249 308 CURVE SMOOTH",
"175 240 OFFCURVE",
"134 158 OFFCURVE",
"137 85 CURVE SMOOTH",
"142 -22 OFFCURVE",
"202 -76 OFFCURVE",
"315 -76 CURVE SMOOTH",
"506 -76 OFFCURVE",
"645 92 OFFCURVE",
"675 354 CURVE SMOOTH",
"678 385 OFFCURVE",
"680 416 OFFCURVE",
"681 446 CURVE",
"546 456 LINE",
"544 421 OFFCURVE",
"540 389 OFFCURVE",
"536 360 CURVE SMOOTH",
"508 156 OFFCURVE",
"436 60 OFFCURVE",
"314 60 CURVE SMOOTH",
"282 60 OFFCURVE",
"267 72 OFFCURVE",
"268 94 CURVE SMOOTH",
"274 215 OFFCURVE",
"416 278 OFFCURVE",
"546 278 CURVE SMOOTH",
"654 278 OFFCURVE",
"728 225 OFFCURVE",
"728 148 CURVE SMOOTH",
"728 80 OFFCURVE",
"685 15 OFFCURVE",
"611 -23 CURVE",
"740 -99 LINE"
);
},
{
closed = 1;
nodes = (
"521 72 LINE",
"486 125 OFFCURVE",
"465 226 OFFCURVE",
"465 341 CURVE SMOOTH",
"465 473 OFFCURVE",
"494 589 OFFCURVE",
"539 639 CURVE",
"401 673 LINE",
"353 584 OFFCURVE",
"325 447 OFFCURVE",
"325 310 CURVE SMOOTH",
"325 187 OFFCURVE",
"349 76 OFFCURVE",
"391 7 CURVE"
);
},
{
closed = 1;
nodes = (
"236 422 OFFCURVE",
"271 426 OFFCURVE",
"312 431 CURVE SMOOTH",
"417 443 OFFCURVE",
"551 449 OFFCURVE",
"657 447 CURVE SMOOTH",
"707 447 OFFCURVE",
"749 443 OFFCURVE",
"781 440 CURVE",
"785 570 LINE",
"757 574 OFFCURVE",
"718 577 OFFCURVE",
"662 578 CURVE SMOOTH",
"558 579 OFFCURVE",
"423 575 OFFCURVE",
"314 563 CURVE SMOOTH",
"261 558 OFFCURVE",
"221 552 OFFCURVE",
"190 545 CURVE",
"209 415 LINE"
);
}
);
width = 1000;
}
);
unicode = 3041;
},
{
glyphname = "i-hira";
lastChange = "2020-09-08 11:03:20 +0000";
layers = (
{
anchors = (
{
name = LSB;
position = "{35, 380}";
},
{
name = RSB;
position = "{1008, 380}";
}
);
layerId = "BE1754C0-A605-45AC-AA12-D3A1FC0C380B";
paths = (
{
closed = 1;
nodes = (
"982 509 LINE",
"920 570 OFFCURVE",
"789 684 OFFCURVE",
"679 741 CURVE",
"573 618 LINE",
"698 555 OFFCURVE",
"820 437 OFFCURVE",
"877 382 CURVE"
);
},
{
closed = 1;
nodes = (
"519 -20 OFFCURVE",
"582 43 OFFCURVE",
"640 158 CURVE",
"553 318 LINE",
"514 201 OFFCURVE",
"470 151 OFFCURVE",
"428 151 CURVE SMOOTH",
"326 151 OFFCURVE",
"231 448 OFFCURVE",
"221 774 CURVE",
"61 751 LINE",
"69 408 OFFCURVE",
"176 -20 OFFCURVE",
"422 -20 CURVE SMOOTH"
);
}
);
width = 1000;
}
);
unicode = 3044;
},
{
glyphname = "ismall-hira";
lastChange = "2020-05-07 01:33:58 +0000";
layers = (
{
anchors = (
{
name = LSB;
position = "{119, 380}";
},
{
name = RSB;
position = "{932, 380}";
}
);
layerId = "BE1754C0-A605-45AC-AA12-D3A1FC0C380B";
paths = (
{
closed = 1;
nodes = (
"906 352 LINE",
"857 399 OFFCURVE",
"742 502 OFFCURVE",
"648 548 CURVE",
"549 435 LINE",
"658 383 OFFCURVE",
"765 276 OFFCURVE",
"809 234 CURVE"
);
},
{
closed = 1;
nodes = (
"521 -83 OFFCURVE",
"577 -36 OFFCURVE",
"629 70 CURVE",
"547 223 LINE",
"517 126 OFFCURVE",
"482 74 OFFCURVE",
"449 74 CURVE SMOOTH",
"376 74 OFFCURVE",
"299 312 OFFCURVE",
"293 575 CURVE",
"145 553 LINE",
"149 276 OFFCURVE",
"237 -83 OFFCURVE",
"444 -83 CURVE SMOOTH"
);
}
);
width = 1000;
}
);
unicode = 3043;
},
{
glyphname = "u-hira";
lastChange = "2020-05-08 14:31:06 +0000";
layers = (
{
anchors = (
{
name = LSB;
position = "{24, 380}";
},
{
name = RSB;
position = "{932, 380}";
}
);
layerId = "BE1754C0-A605-45AC-AA12-D3A1FC0C380B";
paths = (
{
closed = 1;
nodes = (
"685 34 OFFCURVE",
"906 174 OFFCURVE",
"906 385 CURVE SMOOTH",
"906 560 OFFCURVE",
"765 624 OFFCURVE",
"590 624 CURVE SMOOTH",
"405 624 OFFCURVE",
"183 552 OFFCURVE",
"50 462 CURVE",
"131 315 LINE",
"267 408 OFFCURVE",
"472 473 OFFCURVE",
"608 473 CURVE SMOOTH",
"701 473 OFFCURVE",
"749 446 OFFCURVE",
"749 385 CURVE SMOOTH",
"749 272 OFFCURVE",
"581 132 OFFCURVE",
"359 57 CURVE",
"493 -60 LINE"
);
},
{
closed = 1;
nodes = (
"699 743 LINE",
"574 750 OFFCURVE",
"438 811 OFFCURVE",
"326 873 CURVE",
"251 724 LINE",
"333 669 OFFCURVE",
"541 593 OFFCURVE",
"667 579 CURVE"
);
}
);
width = 1000;
}
);
unicode = 3046;
},
{
glyphname = "usmall-hira";
lastChange = "2020-05-08 14:31:06 +0000";
layers = (
{
anchors = (
{
name = LSB;
position = "{98, 380}";
},
{
name = RSB;
position = "{857, 380}";
}
);
layerId = "BE1754C0-A605-45AC-AA12-D3A1FC0C380B";
paths = (
{
closed = 1;
nodes = (
"645 -14 OFFCURVE",
"831 102 OFFCURVE",
"831 279 CURVE SMOOTH",
"831 409 OFFCURVE",
"737 481 OFFCURVE",
"569 481 CURVE SMOOTH",
"423 481 OFFCURVE",
"237 424 OFFCURVE",
"124 344 CURVE",
"198 208 LINE",
"301 283 OFFCURVE",
"469 340 OFFCURVE",
"583 340 CURVE SMOOTH",
"654 340 OFFCURVE",
"686 320 OFFCURVE",
"686 279 CURVE SMOOTH",
"686 192 OFFCURVE",
"546 78 OFFCURVE",
"364 21 CURVE",
"489 -89 LINE"
);
},
{
closed = 1;
nodes = (
"668 576 LINE",
"584 577 OFFCURVE",
"480 613 OFFCURVE",
"353 684 CURVE",
"284 548 LINE",
"347 502 OFFCURVE",
"533 433 OFFCURVE",
"638 424 CURVE"
);
}
);
width = 1000;
}
);
unicode = 3045;
},
{
glyphname = "e-hira";
lastChange = "2020-05-07 01:29:58 +0000";
layers = (
{
anchors = (
{
name = LSB;
position = "{9, 380}";
},
{
name = RSB;
position = "{986, 380}";
}
);
layerId = "BE1754C0-A605-45AC-AA12-D3A1FC0C380B";
paths = (
{
closed = 1;
nodes = (
"526 681 LINE",
"512 715 OFFCURVE",
"469 812 OFFCURVE",
"451 866 CURVE",
"306 825 LINE",
"319 766 OFFCURVE",
"356 678 OFFCURVE",
"393 624 CURVE"
);
},
{
closed = 1;
nodes = (
"216 26 OFFCURVE",
"429 156 OFFCURVE",
"492 156 CURVE SMOOTH",
"511 156 OFFCURVE",
"517 144 OFFCURVE",
"515 115 CURVE SMOOTH",
"510 53 OFFCURVE",
"554 -38 OFFCURVE",
"661 -38 CURVE SMOOTH",
"754 -38 OFFCURVE",
"926 93 OFFCURVE",
"960 122 CURVE",
"866 245 LINE",
"848 230 OFFCURVE",
"754 150 OFFCURVE",
"704 132 CURVE",
"699 130 OFFCURVE",
"695 128 OFFCURVE",
"691 128 CURVE SMOOTH",
"662 128 OFFCURVE",
"675 169 OFFCURVE",
"675 196 CURVE SMOOTH",
"675 279 OFFCURVE",
"628 309 OFFCURVE",
"576 309 CURVE SMOOTH",
"544 309 OFFCURVE",
"509 297 OFFCURVE",
"482 281 CURVE",
"485 274 LINE",
"514 297 OFFCURVE",
"751 465 OFFCURVE",
"751 578 CURVE SMOOTH",
"751 656 OFFCURVE",
"687 684 OFFCURVE",
"589 684 CURVE SMOOTH",
"461 684 OFFCURVE",
"275 636 OFFCURVE",
"103 589 CURVE",
"151 436 LINE",
"345 506 OFFCURVE",
"508 532 OFFCURVE",
"522 532 CURVE SMOOTH",
"534 532 OFFCURVE",
"540 528 OFFCURVE",
"540 522 CURVE SMOOTH",
"540 516 OFFCURVE",
"534 509 OFFCURVE",
"521 494 CURVE SMOOTH",
"456 419 OFFCURVE",
"216 205 OFFCURVE",
"35 89 CURVE",
"142 -47 LINE"
);
}
);
width = 1000;
}
);
unicode = 3048;
},
{
glyphname = "esmall-hira";
lastChange = "2020-05-08 14:31:06 +0000";
layers = (
{
anchors = (
{
name = LSB;
position = "{93, 380}";
},
{
name = RSB;
position = "{909, 380}";
}
);
layerId = "BE1754C0-A605-45AC-AA12-D3A1FC0C380B";
paths = (
{
closed = 1;
nodes = (
"540 521 LINE",
"539 523 OFFCURVE",
"532 539 OFFCURVE",
"524 560 CURVE SMOOTH",
"509 600 OFFCURVE",
"483 656 OFFCURVE",
"473 686 CURVE",
"339 648 LINE",
"350 592 OFFCURVE",
"386 509 OFFCURVE",
"418 468 CURVE"
);
},
{
closed = 1;
nodes = (
"274 -11 OFFCURVE",
"455 96 OFFCURVE",
"500 96 CURVE SMOOTH",
"507 96 OFFCURVE",
"510 93 OFFCURVE",
"509 74 CURVE SMOOTH",
"505 1 OFFCURVE",
"560 -60 OFFCURVE",
"635 -60 CURVE SMOOTH",
"713 -60 OFFCURVE",
"853 47 OFFCURVE",
"881 70 CURVE",
"883 84 LINE",
"807 183 LINE",
"792 185 LINE",
"779 173 OFFCURVE",
"703 114 OFFCURVE",
"667 96 CURVE SMOOTH",
"665 95 OFFCURVE",
"664 94 OFFCURVE",
"662 94 CURVE",
"661 93 OFFCURVE",
"660 93 OFFCURVE",
"659 93 CURVE SMOOTH",
"654 93 OFFCURVE",
"652 96 OFFCURVE",
"656 120 CURVE SMOOTH",
"657 126 OFFCURVE",
"657 132 OFFCURVE",
"657 138 CURVE SMOOTH",
"657 200 OFFCURVE",
"623 238 OFFCURVE",
"567 238 CURVE SMOOTH",
"543 238 OFFCURVE",
"514 230 OFFCURVE",
"487 215 CURVE",
"483 203 LINE",
"485 197 LINE",
"500 192 LINE",
"524 210 OFFCURVE",
"717 348 OFFCURVE",
"717 443 CURVE SMOOTH",
"717 506 OFFCURVE",
"670 538 OFFCURVE",
"578 538 CURVE SMOOTH",
"471 538 OFFCURVE",
"316 498 OFFCURVE",
"176 459 CURVE",
"221 317 LINE",
"379 375 OFFCURVE",
"514 397 OFFCURVE",
"524 397 CURVE SMOOTH",
"532 397 OFFCURVE",
"529 394 OFFCURVE",
"529 399 CURVE SMOOTH",
"529 400 OFFCURVE",
"526 394 OFFCURVE",
"516 383 CURVE SMOOTH",
"462 323 OFFCURVE",
"265 146 OFFCURVE",
"119 55 CURVE",
"219 -72 LINE"
);
}
);
width = 1000;
}
);
unicode = 3047;
},
{
glyphname = "o-hira";
lastChange = "2020-05-08 14:31:06 +0000";
layers = (
{
anchors = (
{
name = LSB;
position = "{21, 380}";
},
{
name = RSB;
position = "{1023, 380}";
}
);
layerId = "BE1754C0-A605-45AC-AA12-D3A1FC0C380B";
paths = (
{
closed = 1;
nodes = (
"836 -19 OFFCURVE",
"893 81 OFFCURVE",
"899 191 CURVE SMOOTH",
"906 299 OFFCURVE",
"810 508 OFFCURVE",
"504 508 CURVE SMOOTH",
"237 508 OFFCURVE",
"57 347 OFFCURVE",
"47 162 CURVE SMOOTH",
"44 93 OFFCURVE",
"86 -41 OFFCURVE",
"258 -41 CURVE SMOOTH",
"488 -41 OFFCURVE",
"517 185 OFFCURVE",
"517 383 CURVE SMOOTH",
"517 601 OFFCURVE",
"483 777 OFFCURVE",
"470 839 CURVE",
"324 822 LINE",
"348 669 OFFCURVE",
"371 486 OFFCURVE",
"371 328 CURVE SMOOTH",
"371 225 OFFCURVE",
"359 104 OFFCURVE",
"255 104 CURVE SMOOTH",
"223 104 OFFCURVE",
"193 122 OFFCURVE",
"193 167 CURVE SMOOTH",
"195 256 OFFCURVE",
"332 367 OFFCURVE",
"504 367 CURVE SMOOTH",
"638 367 OFFCURVE",
"745 299 OFFCURVE",
"745 210 CURVE SMOOTH",
"745 120 OFFCURVE",
"660 49 OFFCURVE",
"595 22 CURVE",
"721 -78 LINE"
);
},
{
closed = 1;
nodes = (
"304 581 OFFCURVE",
"568 601 OFFCURVE",
"704 583 CURVE",
"709 724 LINE",
"603 735 OFFCURVE",
"254 724 OFFCURVE",
"101 674 CURVE",
"132 537 LINE"
);
},
{
closed = 1;
nodes = (
"997 492 LINE",
"941 589 OFFCURVE",
"871 672 OFFCURVE",
"813 734 CURVE",
"705 635 LINE",
"765 565 OFFCURVE",
"826 493 OFFCURVE",
"878 412 CURVE"
);
}
);
width = 1000;
}
);
unicode = 304A;
},
{
glyphname = "osmall-hira";
lastChange = "2020-05-08 14:31:06 +0000";
layers = (
{
anchors = (
{
name = LSB;
position = "{97, 380}";
},
{
name = RSB;
position = "{932, 380}";
}
);
layerId = "BE1754C0-A605-45AC-AA12-D3A1FC0C380B";
paths = (
{
closed = 1;
nodes = (
"764 -60 OFFCURVE",
"819 22 OFFCURVE",
"825 121 CURVE SMOOTH",
"830 210 OFFCURVE",
"749 386 OFFCURVE",
"499 386 CURVE SMOOTH",
"292 386 OFFCURVE",
"132 263 OFFCURVE",
"123 99 CURVE SMOOTH",
"120 42 OFFCURVE",
"157 -74 OFFCURVE",
"302 -74 CURVE SMOOTH",
"495 -74 OFFCURVE",
"519 116 OFFCURVE",
"519 276 CURVE SMOOTH",
"519 463 OFFCURVE",
"488 612 OFFCURVE",
"479 651 CURVE",
"344 636 LINE",
"363 511 OFFCURVE",
"382 361 OFFCURVE",
"382 231 CURVE SMOOTH",
"382 113 OFFCURVE",
"358 62 OFFCURVE",
"299 62 CURVE SMOOTH",
"275 62 OFFCURVE",
"260 77 OFFCURVE",
"260 103 CURVE SMOOTH",
"260 176 OFFCURVE",
"380 253 OFFCURVE",
"499 253 CURVE SMOOTH",
"601 253 OFFCURVE",
"681 201 OFFCURVE",
"681 137 CURVE SMOOTH",
"681 77 OFFCURVE",
"624 13 OFFCURVE",
"551 -10 CURVE",
"671 -105 LINE"
);
},
{
closed = 1;
nodes = (
"331 424 OFFCURVE",
"560 442 OFFCURVE",
"669 425 CURVE",
"673 557 LINE",
"599 568 OFFCURVE",
"288 559 OFFCURVE",
"164 515 CURVE",
"194 387 LINE"
);
},
{
closed = 1;
nodes = (
"906 360 LINE",
"859 445 OFFCURVE",
"796 519 OFFCURVE",
"747 570 CURVE",
"645 478 LINE",
"697 417 OFFCURVE",
"750 356 OFFCURVE",
"795 285 CURVE"
);
}
);
width = 1000;
}
);
unicode = 3049;
},
{
glyphname = "ka-hira";
lastChange = "2020-05-07 01:38:40 +0000";
layers = (
{
anchors = (
{
name = LSB;
position = "{8, 380}";
},
{
name = RSB;
position = "{1031, 380}";
}
);
layerId = "BE1754C0-A605-45AC-AA12-D3A1FC0C380B";
paths = (
{
closed = 1;
nodes = (
"686 74 OFFCURVE",
"749 214 OFFCURVE",
"749 353 CURVE SMOOTH",
"749 550 OFFCURVE",
"610 643 OFFCURVE",
"391 643 CURVE SMOOTH",
"223 643 OFFCURVE",
"53 574 OFFCURVE",
"34 565 CURVE",
"70 418 LINE",
"127 438 OFFCURVE",
"286 491 OFFCURVE",
"395 491 CURVE SMOOTH",
"490 491 OFFCURVE",
"587 477 OFFCURVE",
"587 362 CURVE SMOOTH",
"587 267 OFFCURVE",
"549 157 OFFCURVE",
"426 41 CURVE",
"553 -68 LINE"
);
},
{
closed = 1;
nodes = (
"301 289 OFFCURVE",
"388 586 OFFCURVE",
"493 821 CURVE",
"342 860 LINE",
"256 655 OFFCURVE",
"155 353 OFFCURVE",
"91 57 CURVE",
"252 30 LINE"
);
},
{
closed = 1;
nodes = (
"1005 502 LINE",
"935 621 OFFCURVE",
"876 694 OFFCURVE",
"781 790 CURVE",
"665 695 LINE",
"742 622 OFFCURVE",
"812 528 OFFCURVE",
"875 412 CURVE"
);
}
);
width = 1000;
}
);
unicode = 304B;
},
{
glyphname = "kasmall-hira";
lastChange = "2020-05-08 14:31:06 +0000";
layers = (
{
anchors = (
{
name = LSB;
position = "{95, 380}";
},
{
name = RSB;
position = "{949, 380}";
}
);
layerId = "BE1754C0-A605-45AC-AA12-D3A1FC0C380B";
paths = (
{
closed = 1;
nodes = (
"155 323 LINE",
"186 334 OFFCURVE",
"329 384 OFFCURVE",
"422 384 CURVE",
"525 384 OFFCURVE",
"566 358 OFFCURVE",
"566 291 CURVE",
"566 201 OFFCURVE",
"521 115 OFFCURVE",
"432 34 CURVE",
"549 -67 LINE",
"660 48 OFFCURVE",
"715 165 OFFCURVE",
"715 284 CURVE",
"715 439 OFFCURVE",
"609 526 OFFCURVE",
"419 526 CURVE",
"273 526 OFFCURVE",
"128 462 OFFCURVE",
"121 458 CURVE"
);
},
{
closed = 1;
nodes = (
"355 226 OFFCURVE",
"427 473 OFFCURVE",
"514 665 CURVE",
"373 701 LINE",
"303 534 OFFCURVE",
"219 284 OFFCURVE",
"167 39 CURVE",
"315 13 LINE"
);
},
{
closed = 1;
nodes = (
"923 400 LINE",
"863 503 OFFCURVE",
"815 565 OFFCURVE",
"732 646 CURVE",
"623 557 LINE",
"690 497 OFFCURVE",
"750 416 OFFCURVE",
"802 316 CURVE"
);
}
);
width = 1000;
}
);
unicode = 3095;
},
{
glyphname = "ga-hira";
lastChange = "2020-05-07 01:50:07 +0000";
layers = (
{
anchors = (
{
name = LSB;
position = "{8, 380}";
},
{
name = RSB;
position = "{1031, 380}";
}
);
layerId = "BE1754C0-A605-45AC-AA12-D3A1FC0C380B";
paths = (
{
closed = 1;
nodes = (
"70 418 LINE",
"127 438 OFFCURVE",
"286 491 OFFCURVE",
"395 491 CURVE SMOOTH",
"490 491 OFFCURVE",
"587 477 OFFCURVE",
"587 362 CURVE SMOOTH",
"587 267 OFFCURVE",
"549 157 OFFCURVE",
"426 41 CURVE",
"553 -68 LINE",
"686 74 OFFCURVE",
"749 214 OFFCURVE",
"749 353 CURVE SMOOTH",
"749 550 OFFCURVE",
"610 643 OFFCURVE",
"391 643 CURVE SMOOTH",
"223 643 OFFCURVE",
"53 574 OFFCURVE",
"34 565 CURVE"
);
},
{
closed = 1;
nodes = (
"252 30 LINE",
"301 289 OFFCURVE",
"388 586 OFFCURVE",
"493 821 CURVE",
"342 860 LINE",
"256 655 OFFCURVE",
"155 353 OFFCURVE",
"91 57 CURVE"
);
},
{
closed = 1;
nodes = (
"742 622 OFFCURVE",
"812 528 OFFCURVE",
"875 412 CURVE",
"1005 502 LINE",
"954.675 586.834 OFFCURVE",
"910.035 648.409 OFFCURVE",
"853.616 712.366 CURVE",
"784 660 LINE",
"765.486 682.016 OFFCURVE",
"744.97 712.795 OFFCURVE",
"727.211 745.948 CURVE",
"665 695 LINE"
);
},
{
closed = 1;
nodes = (
"772 721 OFFCURVE",
"730 794 OFFCURVE",
"722 828 CURVE",
"793 856 LINE",
"803 825 OFFCURVE",
"827 778 OFFCURVE",
"853 749 CURVE",
"789 701 LINE"
);
},
{
closed = 1;
nodes = (
"973 774 LINE",
"943 799 OFFCURVE",
"912 840 OFFCURVE",
"896 869 CURVE",
"833 827 LINE",
"847 795 OFFCURVE",
"896 735 OFFCURVE",
"916 718 CURVE"
);
}
);
width = 1000;
}
);
unicode = 304C;
},
{
glyphname = "ki-hira";
lastChange = "2020-05-07 01:30:52 +0000";
layers = (
{
anchors = (
{
name = LSB;
position = "{47, 380}";
},
{
name = RSB;
position = "{923, 380}";
}
);
layerId = "BE1754C0-A605-45AC-AA12-D3A1FC0C380B";
paths = (
{
closed = 1;
nodes = (
"822 296 LINE",
"648 409 OFFCURVE",
"514 685 OFFCURVE",
"502 838 CURVE",
"349 825 LINE",
"396 520 OFFCURVE",
"569 292 OFFCURVE",
"716 189 CURVE"
);
},
{
closed = 1;
nodes = (
"658 95 LINE",
"639 93 OFFCURVE",
"619 92 OFFCURVE",
"598 92 CURVE SMOOTH",
"459 92 OFFCURVE",
"294 141 OFFCURVE",
"217 259 CURVE",
"111 147 LINE",
"212 19 OFFCURVE",
"360 -59 OFFCURVE",
"611 -59 CURVE"
);
},
{
closed = 1;
nodes = (
"278 362 OFFCURVE",
"661 406 OFFCURVE",
"842 406 CURVE SMOOTH",
"863 406 OFFCURVE",
"882 405 OFFCURVE",
"897 404 CURVE",
"890 539 LINE",
"868 541 OFFCURVE",
"843 542 OFFCURVE",
"815 542 CURVE SMOOTH",
"603 542 OFFCURVE",
"239 489 OFFCURVE",
"95 438 CURVE",
"122 304 LINE"
);
},
{
closed = 1;
nodes = (
"276 578 OFFCURVE",
"693 634 OFFCURVE",
"852 628 CURVE",
"850 756 LINE",
"838 757 OFFCURVE",
"824 758 OFFCURVE",
"807 758 CURVE SMOOTH",
"632 758 OFFCURVE",
"233 701 OFFCURVE",
"73 645 CURVE",
"109 522 LINE"
);
}
);
width = 1000;
}
);
unicode = 304D;
},
